<svg width="40" height="40" viewBox="0 0 40 40" fill="none" xmlns="http://www.w3.org/2000/svg">
<path d="M23.6621 26.191H16.5234V13.457H23.6621V26.191Z" fill="#FF5F00"/>
<path d="M16.9828 19.8232C16.9828 17.24 18.2013 14.939 20.0989 13.4561C18.7112 12.3718 16.96 11.7246 15.0566 11.7246C10.5509 11.7246 6.89844 15.3504 6.89844 19.8232C6.89844 24.2959 10.5509 27.9217 15.0566 27.9217C16.96 27.9217 18.7112 27.2745 20.0989 26.1901C18.2013 24.7073 16.9828 22.4063 16.9828 19.8232Z" fill="#EB001B"/>
<path d="M33.2907 19.8232C33.2907 24.2959 29.6383 27.9217 25.1325 27.9217C23.2292 27.9217 21.478 27.2745 20.0898 26.1901C21.9879 24.7073 23.2064 22.4063 23.2064 19.8232C23.2064 17.24 21.9879 14.939 20.0898 13.4561C21.478 12.3718 23.2292 11.7246 25.1325 11.7246C29.6383 11.7246 33.2907 15.3504 33.2907 19.8232Z" fill="#F79E1B"/>
</svg>
