<svg width="44" height="12" viewBox="0 0 44 12" fill="none" xmlns="http://www.w3.org/2000/svg">
<g clip-path="url(#clip0_216_9414)">
<path d="M0 4.15266e-05H4.1272C4.5012 4.15266e-05 5.6276 -0.123035 6.1292 1.62642C6.5032 2.75169 7.0048 4.50114 7.7572 7.12532H8.008C8.756 4.37367 9.3808 2.50114 9.6316 1.62642C10.1332 -0.123035 11.3828 4.15266e-05 11.8844 4.15266e-05H15.7608V12H11.7568V4.87916H11.506L9.3808 12H6.38L4.2548 4.87916H3.8808V12H0M17.3888 4.15266e-05H21.3928V7.12092H21.7668L24.3936 1.24839C24.8952 0.123118 26.0216 4.15266e-05 26.0216 4.15266e-05H29.7748V12H25.7708V4.87916H25.52L22.8932 10.7517C22.3916 11.877 21.142 12 21.142 12H17.3888M35.1516 8.37367V12H31.3984V5.74949H43.6568C43.1552 7.24839 41.404 8.37367 39.402 8.37367" fill="#0F754E"/>
<path d="M43.9084 5.0022C44.4056 2.75165 42.9052 0 39.6536 0H31.1484C31.3992 2.62418 33.652 4.9978 36.028 4.9978" fill="url(#paint0_linear_216_9414)"/>
</g>
<defs>
<linearGradient id="paint0_linear_216_9414" x1="42.4055" y1="2.5012" x2="32.3985" y2="2.5012" gradientUnits="userSpaceOnUse">
<stop stop-color="#1F5CD7"/>
<stop offset="1" stop-color="#02AEFF"/>
</linearGradient>
<clipPath id="clip0_216_9414">
<rect width="44" height="12" fill="white"/>
</clipPath>
</defs>
</svg>
