<svg width="132" height="40" viewBox="0 0 132 40" fill="none" xmlns="http://www.w3.org/2000/svg">
<path d="M20.687 17.6452C20.6642 19.4444 22.2906 20.4486 23.5157 21.0456C24.7745 21.6581 25.1973 22.0509 25.1925 22.5986C25.1829 23.437 24.1883 23.8069 23.2575 23.8214C21.6335 23.8466 20.6894 23.383 19.9387 23.0322L19.3538 25.7696C20.1069 26.1167 21.5014 26.4194 22.9476 26.4326C26.342 26.4326 28.5628 24.757 28.5749 22.159C28.5881 18.8619 24.0142 18.6793 24.0454 17.2055C24.0562 16.7587 24.4826 16.2819 25.4171 16.1606C25.8795 16.0993 27.1563 16.0525 28.6037 16.7191L29.1718 14.0706C28.3935 13.7871 27.3929 13.5157 26.1474 13.5157C22.9524 13.5157 20.7051 15.2141 20.687 17.6452ZM34.631 13.7439C34.0112 13.7439 33.4887 14.1054 33.2557 14.6604L28.4067 26.238H31.7987L32.4737 24.3727H36.6188L37.0104 26.238H40L37.3911 13.7439H34.631ZM35.1054 17.1191L36.0843 21.8107H33.4034L35.1054 17.1191ZM16.5744 13.7439L13.9007 26.238H17.1329L19.8054 13.7439H16.5744ZM11.7927 13.7439L8.42832 22.2479L7.06744 15.0171C6.90769 14.2099 6.2771 13.7439 5.57684 13.7439H0.0768723L0 14.1066C1.12906 14.3517 2.41187 14.7468 3.189 15.1696C3.66464 15.4279 3.80037 15.6537 3.95652 16.2675L6.53414 26.238H9.95015L15.1871 13.7439H11.7927Z" fill="url(#paint0_linear_216_9406)"/>
<path d="M67.6621 26.191H60.5234V13.457H67.6621V26.191Z" fill="#FF5F00"/>
<path d="M60.9828 19.8232C60.9828 17.24 62.2013 14.939 64.0989 13.4561C62.7112 12.3718 60.96 11.7246 59.0566 11.7246C54.5509 11.7246 50.8984 15.3504 50.8984 19.8232C50.8984 24.2959 54.5509 27.9217 59.0566 27.9217C60.96 27.9217 62.7112 27.2745 64.0989 26.1901C62.2013 24.7073 60.9828 22.4063 60.9828 19.8232Z" fill="#EB001B"/>
<path d="M77.2907 19.8232C77.2907 24.2959 73.6383 27.9217 69.1325 27.9217C67.2292 27.9217 65.478 27.2745 64.0898 26.1901C65.9879 24.7073 67.2064 22.4063 67.2064 19.8232C67.2064 17.24 65.9879 14.939 64.0898 13.4561C65.478 12.3718 67.2292 11.7246 69.1325 11.7246C73.6383 11.7246 77.2907 15.3504 77.2907 19.8232Z" fill="#F79E1B"/>
<g clip-path="url(#clip0_216_9406)">
<path d="M88 14H92.1272C92.5012 14 93.6276 13.877 94.1292 15.6264C94.5032 16.7517 95.0048 18.5011 95.7572 21.1253H96.008C96.756 18.3737 97.3808 16.5011 97.6316 15.6264C98.1332 13.877 99.3828 14 99.8844 14H103.761V26H99.7568V18.8792H99.506L97.3808 26H94.38L92.2548 18.8792H91.8808V26H88M105.389 14H109.393V21.1209H109.767L112.394 15.2484C112.895 14.1231 114.022 14 114.022 14H117.775V26H113.771V18.8792H113.52L110.893 24.7517C110.392 25.877 109.142 26 109.142 26H105.389M123.152 22.3737V26H119.398V19.7495H131.657C131.155 21.2484 129.404 22.3737 127.402 22.3737" fill="#0F754E"/>
<path d="M131.908 19.0022C132.406 16.7516 130.905 14 127.654 14H119.148C119.399 16.6242 121.652 18.9978 124.028 18.9978" fill="url(#paint1_linear_216_9406)"/>
</g>
<defs>
<linearGradient id="paint0_linear_216_9406" x1="1838.97" y1="52.3463" x2="1876.36" y2="-1274.24" gradientUnits="userSpaceOnUse">
<stop stop-color="#222357"/>
<stop offset="1" stop-color="#254AA5"/>
</linearGradient>
<linearGradient id="paint1_linear_216_9406" x1="130.405" y1="16.5012" x2="120.398" y2="16.5012" gradientUnits="userSpaceOnUse">
<stop stop-color="#1F5CD7"/>
<stop offset="1" stop-color="#02AEFF"/>
</linearGradient>
<clipPath id="clip0_216_9406">
<rect width="44" height="12" fill="white" transform="translate(88 14)"/>
</clipPath>
</defs>
</svg>
