<svg width="40" height="40" viewBox="0 0 40 40" fill="none" xmlns="http://www.w3.org/2000/svg">
<path d="M20.687 17.6452C20.6642 19.4444 22.2906 20.4486 23.5157 21.0456C24.7745 21.6581 25.1973 22.0509 25.1925 22.5986C25.1829 23.437 24.1883 23.8069 23.2575 23.8214C21.6335 23.8466 20.6894 23.383 19.9387 23.0322L19.3538 25.7696C20.1069 26.1167 21.5014 26.4194 22.9476 26.4326C26.342 26.4326 28.5628 24.757 28.5749 22.159C28.5881 18.8619 24.0142 18.6793 24.0454 17.2055C24.0562 16.7587 24.4826 16.2819 25.4171 16.1606C25.8795 16.0993 27.1563 16.0525 28.6037 16.7191L29.1718 14.0706C28.3935 13.7871 27.3929 13.5157 26.1474 13.5157C22.9524 13.5157 20.7051 15.2141 20.687 17.6452ZM34.631 13.7439C34.0112 13.7439 33.4887 14.1054 33.2557 14.6604L28.4067 26.238H31.7987L32.4737 24.3727H36.6188L37.0104 26.238H40L37.3911 13.7439H34.631ZM35.1054 17.1191L36.0843 21.8107H33.4034L35.1054 17.1191ZM16.5744 13.7439L13.9007 26.238H17.1329L19.8054 13.7439H16.5744ZM11.7927 13.7439L8.42832 22.2479L7.06744 15.0171C6.90769 14.2099 6.2771 13.7439 5.57684 13.7439H0.0768723L0 14.1066C1.12906 14.3517 2.41187 14.7468 3.189 15.1696C3.66464 15.4279 3.80037 15.6537 3.95652 16.2675L6.53414 26.238H9.95015L15.1871 13.7439H11.7927Z" fill="url(#paint0_linear_216_9407)"/>
<defs>
<linearGradient id="paint0_linear_216_9407" x1="1838.97" y1="52.3463" x2="1876.36" y2="-1274.24" gradientUnits="userSpaceOnUse">
<stop stop-color="#222357"/>
<stop offset="1" stop-color="#254AA5"/>
</linearGradient>
</defs>
</svg>
