<svg width="20" height="20" viewBox="0 0 20 20" fill="none" xmlns="http://www.w3.org/2000/svg">
<path d="M1.33266 7.18474C0.941364 7.23114 0.784212 7.71479 1.07351 7.98232L5.17287 11.7736C5.29077 11.8826 5.34314 12.0453 5.31184 12.2028L4.22385 17.6788C4.14706 18.0653 4.55914 18.3641 4.90298 18.1716L9.7755 15.4448C9.9157 15.3663 10.0859 15.366 10.226 15.4445L15.0981 18.1723C15.4419 18.3647 15.8532 18.0653 15.7764 17.6788L14.6886 12.2025C14.6573 12.045 14.7098 11.8826 14.8278 11.7737L18.9266 7.98247C19.2158 7.71493 19.0591 7.23114 18.6678 7.18474L13.1229 6.52726C12.9634 6.50834 12.8258 6.40792 12.7586 6.2621L10.42 1.19205C10.2549 0.834236 9.74623 0.834304 9.58119 1.19212L7.24253 6.2622C7.17525 6.40803 7.03673 6.50817 6.87725 6.52709L1.33266 7.18474Z" fill="#FACC15" stroke="#FACC15" stroke-width="1.84633" stroke-linecap="round" stroke-linejoin="round"/>
</svg>
