<svg width="13" height="13" viewBox="0 0 13 13" fill="none" xmlns="http://www.w3.org/2000/svg">
<path d="M12.3837 9.43812V11.2167C12.3844 11.3818 12.3506 11.5453 12.2844 11.6965C12.2183 11.8478 12.1213 11.9836 11.9996 12.0953C11.8779 12.2069 11.7343 12.2919 11.5779 12.3448C11.4215 12.3977 11.2557 12.4173 11.0913 12.4024C9.26695 12.2042 7.51454 11.5808 5.97487 10.5824C4.54241 9.6721 3.32793 8.45763 2.41769 7.02517C1.41573 5.4785 0.792197 3.71757 0.597593 1.88503C0.582778 1.72109 0.602262 1.55585 0.654805 1.39985C0.707348 1.24385 0.791798 1.10049 0.90278 0.978913C1.01376 0.857336 1.14884 0.760199 1.29942 0.693687C1.45 0.627175 1.61278 0.592746 1.77739 0.592591H3.55599C3.84371 0.589759 4.12264 0.691646 4.3408 0.87926C4.55895 1.06687 4.70144 1.32741 4.74171 1.61232C4.81678 2.18151 4.956 2.74038 5.15672 3.27826C5.23648 3.49046 5.25375 3.72108 5.20646 3.94279C5.15918 4.16451 5.04933 4.36801 4.88993 4.52921L4.13699 5.28214C4.98097 6.76641 6.20991 7.99535 7.69418 8.83933L8.44711 8.08639C8.60831 7.92699 8.81182 7.81714 9.03353 7.76986C9.25524 7.72257 9.48586 7.73984 9.69806 7.8196C10.2359 8.02032 10.7948 8.15954 11.364 8.23461C11.652 8.27524 11.915 8.4203 12.103 8.6422C12.291 8.8641 12.3909 9.14737 12.3837 9.43812Z" stroke="white" stroke-width="1.16667" stroke-linecap="round" stroke-linejoin="round"/>
</svg>
