<svg width="18" height="16" viewBox="0 0 18 16" fill="none" xmlns="http://www.w3.org/2000/svg">
<path fill-rule="evenodd" clip-rule="evenodd" d="M3.87601 9.69141C3.91474 9.70473 3.95383 9.71409 3.99288 9.71985C4.03548 9.82172 4.0905 9.95337 4.15471 10.1073C4.31138 10.4831 4.52249 10.9915 4.74041 11.5217C5.1848 12.6031 5.63306 13.7178 5.73207 14.0369C5.85462 14.4313 5.98417 14.6995 6.12559 14.8826C6.19871 14.9773 6.28329 15.0599 6.38225 15.1225C6.43207 15.154 6.48469 15.1798 6.53962 15.1991C6.54204 15.2 6.54446 15.2008 6.54687 15.2016C6.83003 15.3103 7.08819 15.265 7.24982 15.2097C7.3363 15.18 7.40627 15.1443 7.45587 15.1153C7.48115 15.1004 7.50251 15.0867 7.51956 15.075L7.52357 15.0723L10.0242 13.4862L12.9128 15.7385C12.9554 15.7717 13.0019 15.7996 13.0511 15.8214C13.3981 15.9754 13.7342 16.0291 14.0503 15.9852C14.3659 15.9414 14.6164 15.8066 14.8029 15.6548C14.9855 15.5062 15.1094 15.3397 15.1864 15.2161C15.2258 15.1529 15.2554 15.097 15.2763 15.0543C15.2867 15.0328 15.2951 15.0142 15.3017 14.9994L15.31 14.9798L15.3132 14.972L15.3145 14.9688L15.315 14.9673L15.3156 14.9658C15.3308 14.9272 15.3424 14.8873 15.3504 14.8465L17.9873 1.3253C17.9958 1.28206 18 1.23807 18 1.19399C18 0.798028 17.8533 0.421516 17.5084 0.193044C17.2136 -0.00223178 16.8851 -0.0106367 16.6776 0.00538128C16.4537 0.0226681 16.2469 0.0788839 16.1082 0.123797C16.036 0.147176 15.9754 0.169728 15.9317 0.186933C15.9098 0.195581 15.8918 0.203005 15.8784 0.208665L15.8684 0.212967L1.07972 6.11311L1.07781 6.11383C1.06838 6.11734 1.05628 6.12193 1.0419 6.12759C1.01327 6.13893 0.974894 6.15486 0.930078 6.17556C0.842675 6.21587 0.720057 6.27878 0.594227 6.36642C0.393204 6.50645 -0.0691053 6.88989 0.0087412 7.52278C0.0708467 8.0277 0.410954 8.3378 0.61817 8.48692C0.731949 8.56881 0.840047 8.6273 0.91877 8.66545C0.955286 8.68309 1.03112 8.71441 1.06401 8.72809L1.07232 8.73151L3.87601 9.69141ZM16.3859 1.45589L16.3839 1.45681C16.3764 1.46007 16.3691 1.46318 16.3616 1.46617L1.555 7.37349C1.54727 7.37655 1.53948 7.37952 1.53164 7.38231L1.5234 7.38546C1.51393 7.38924 1.49798 7.3958 1.47797 7.40498C1.46661 7.4102 1.45477 7.41596 1.44269 7.42208C1.45928 7.43162 1.47516 7.43981 1.48928 7.44665C1.50282 7.45322 1.51316 7.45772 1.51881 7.46006L4.29947 8.41214C4.35037 8.42959 4.39781 8.45263 4.44136 8.48053L13.623 3.01415L13.6316 3.00899C13.6382 3.00496 13.647 2.9998 13.6576 2.99374C13.6785 2.98173 13.7071 2.96574 13.7413 2.94805C13.805 2.91507 13.907 2.86611 14.0219 2.83001C14.1017 2.80487 14.3376 2.73406 14.5925 2.81722C14.7498 2.86854 14.9127 2.97888 15.0187 3.16578C15.0712 3.25864 15.0993 3.35192 15.1129 3.43731C15.149 3.57183 15.1433 3.70466 15.115 3.81933C15.0542 4.06636 14.8836 4.25904 14.7283 4.40643C14.5952 4.53278 12.8739 6.22082 11.1758 7.88723C10.329 8.71819 9.49086 9.54104 8.86432 10.156L8.45288 10.5601L13.6485 14.6112C13.7676 14.6546 13.8381 14.6524 13.8706 14.6478C13.9095 14.6424 13.9412 14.6272 13.9737 14.6008C14.01 14.5713 14.0418 14.5314 14.0655 14.4933L14.0664 14.4918L16.624 1.37774C16.5861 1.38702 16.5477 1.39807 16.5107 1.41004C16.4688 1.4236 16.4342 1.43652 16.4114 1.44555C16.4 1.45002 16.3918 1.45341 16.3874 1.45529L16.3859 1.45589ZM8.89918 12.609L7.86262 11.8007L7.61151 13.4257L8.89918 12.609ZM6.91175 10.197L7.94252 9.18487C8.56906 8.5698 9.40734 7.74694 10.2543 6.9158L11.1148 6.07153L5.34568 9.50622L5.37664 9.58046C5.53387 9.9576 5.74592 10.4681 5.96499 11.0012C6.12879 11.3998 6.30009 11.8195 6.4561 12.208L6.70654 10.5879C6.73068 10.4317 6.80571 10.2965 6.91175 10.197Z" fill="#133D8D"/>
</svg>
