<svg width="15" height="18" viewBox="0 0 15 18" fill="none" xmlns="http://www.w3.org/2000/svg">
<path d="M0.759811 7.18877C0.759811 11.6945 4.70148 15.4205 6.44616 16.849C6.69585 17.0535 6.82219 17.1569 7.00848 17.2093C7.15353 17.2502 7.36702 17.2502 7.51208 17.2093C7.69871 17.1568 7.82417 17.0544 8.0748 16.8491C9.81949 15.4206 13.7609 11.6949 13.7609 7.18918C13.7609 5.48406 13.0761 3.84857 11.857 2.64287C10.6379 1.43717 8.98456 0.759811 7.26049 0.759811C5.53642 0.759811 3.88289 1.43727 2.66379 2.64297C1.44469 3.84868 0.759811 5.48365 0.759811 7.18877Z" stroke="#133D8D" stroke-width="1.5" stroke-linecap="round" stroke-linejoin="round"/>
<path d="M5.4031 6.33176C5.4031 7.35752 6.23465 8.18907 7.26042 8.18907C8.28618 8.18907 9.11773 7.35752 9.11773 6.33176C9.11773 5.30599 8.28618 4.47444 7.26042 4.47444C6.23465 4.47444 5.4031 5.30599 5.4031 6.33176Z" stroke="#133D8D" stroke-width="1.5" stroke-linecap="round" stroke-linejoin="round"/>
</svg>
