<svg width="18" height="15" viewBox="0 0 18 15" fill="none" xmlns="http://www.w3.org/2000/svg">
<path d="M1.66667 1.66667L7.26533 5.89458L7.2672 5.89613C7.88886 6.35201 8.19988 6.58009 8.54053 6.6682C8.84163 6.74607 9.15813 6.74607 9.45923 6.6682C9.80018 6.58001 10.1121 6.35127 10.7349 5.89458C10.7349 5.89458 14.3259 3.13878 16.3333 1.66667M0.75 10.6502V3.68351C0.75 2.65675 0.75 2.14299 0.949821 1.75081C1.12559 1.40585 1.40585 1.12559 1.75081 0.949821C2.14299 0.75 2.65675 0.75 3.68351 0.75H14.3168C15.3436 0.75 15.8563 0.75 16.2484 0.949821C16.5934 1.12559 16.8746 1.40585 17.0504 1.75081C17.25 2.1426 17.25 2.65574 17.25 3.6805V10.6533C17.25 11.678 17.25 12.1904 17.0504 12.5822C16.8746 12.9272 16.5934 13.2079 16.2484 13.3837C15.8567 13.5833 15.3443 13.5833 14.3195 13.5833H3.6805C2.65574 13.5833 2.1426 13.5833 1.75081 13.3837C1.40585 13.2079 1.12559 12.9272 0.949821 12.5822C0.75 12.1901 0.75 11.6769 0.75 10.6502Z" stroke="#133D8D" stroke-width="1.5" stroke-linecap="round" stroke-linejoin="round"/>
</svg>
