<svg width="13" height="13" viewBox="0 0 13 13" fill="none" xmlns="http://www.w3.org/2000/svg">
<path d="M7.99749 12.2234C8.01993 12.2793 8.05896 12.3271 8.10932 12.3602C8.15968 12.3933 8.21897 12.4102 8.27923 12.4087C8.33948 12.4071 8.39783 12.3872 8.44643 12.3515C8.49503 12.3159 8.53155 12.2662 8.55111 12.2092L12.3916 0.983131C12.4105 0.930778 12.4141 0.874123 12.402 0.819794C12.3899 0.765466 12.3626 0.71571 12.3232 0.676351C12.2838 0.636991 12.2341 0.609655 12.1798 0.59754C12.1254 0.585426 12.0688 0.589035 12.0164 0.607944L0.790354 4.44844C0.733335 4.46799 0.683662 4.50452 0.648002 4.55312C0.612343 4.60172 0.592403 4.66006 0.59086 4.72032C0.589316 4.78058 0.606243 4.83987 0.639368 4.89023C0.672493 4.94059 0.72023 4.97961 0.776173 5.00206L5.46158 6.88095C5.60969 6.94025 5.74427 7.02893 5.85719 7.14165C5.97011 7.25436 6.05903 7.38878 6.1186 7.53679L7.99749 12.2234Z" stroke="white" stroke-width="1.16667" stroke-linecap="round" stroke-linejoin="round"/>
</svg>
