<svg width="14" height="14" viewBox="0 0 14 14" fill="none" xmlns="http://www.w3.org/2000/svg">
<g clip-path="url(#clip0_270_14264)">
<path d="M12.8319 9.87136V11.6214C12.8325 11.7838 12.7993 11.9446 12.7342 12.0935C12.6691 12.2423 12.5736 12.376 12.4539 12.4858C12.3342 12.5956 12.1929 12.6792 12.039 12.7313C11.8851 12.7833 11.722 12.8026 11.5602 12.788C9.76519 12.593 8.04095 11.9796 6.52604 10.9972C5.1166 10.1016 3.92165 8.90663 3.02604 7.49719C2.04019 5.97539 1.42668 4.24277 1.2352 2.43969C1.22063 2.27838 1.2398 2.1158 1.2915 1.96231C1.34319 1.80881 1.42629 1.66776 1.53548 1.54814C1.64468 1.42851 1.77759 1.33294 1.92575 1.2675C2.07391 1.20205 2.23407 1.16818 2.39604 1.16803H4.14604C4.42913 1.16524 4.70358 1.26549 4.91823 1.45009C5.13288 1.63468 5.27308 1.89104 5.3127 2.17136C5.38657 2.7314 5.52355 3.28128 5.72104 3.81053C5.79952 4.01931 5.81651 4.24623 5.76998 4.46437C5.72346 4.68252 5.61537 4.88276 5.45854 5.04136L4.7177 5.78219C5.54811 7.24259 6.7573 8.45178 8.2177 9.28219L8.95854 8.54136C9.11714 8.38452 9.31738 8.27644 9.53552 8.22991C9.75367 8.18339 9.98058 8.20037 10.1894 8.27886C10.7186 8.47635 11.2685 8.61333 11.8285 8.68719C12.1119 8.72717 12.3707 8.8699 12.5557 9.08823C12.7407 9.30657 12.839 9.58528 12.8319 9.87136Z" stroke="#CF5093" stroke-width="1.16667" stroke-linecap="round" stroke-linejoin="round"/>
</g>
<defs>
<clipPath id="clip0_270_14264">
<rect width="14" height="14" fill="white"/>
</clipPath>
</defs>
</svg>
