<svg xmlns="http://www.w3.org/2000/svg" width="16" height="16" viewBox="0 0 16 16" aria-hidden="true">
  <path fill="#4285F4" d="M8.16 6.55v2.96h4.08c-.18 1.04-.72 1.92-1.53 2.51l2.47 1.92c1.44-1.33 2.27-3.28 2.27-5.62 0-.54-.05-1.06-.14-1.56H8.16z"/>
  <path fill="#34A853" d="M3.84 9.58l-.64.48-1.9 1.47C2.87 13.93 5.2 15.25 8 15.25c2 0 3.68-.66 4.9-1.8l-2.47-1.92c-.68.46-1.56.73-2.43.73-1.87 0-3.45-1.26-4.02-2.96z"/>
  <path fill="#FBBC05" d="M1.3 4.89A7.96 7.96 0 0 0 .75 8c0 1.26.3 2.45.83 3.5l2.42-1.88c-.22-.68-.34-1.4-.34-2.12 0-.76.13-1.5.36-2.18z"/>
  <path fill="#EA4335" d="M8 3.38c1.06 0 2.01.36 2.76 1.08l2.07-2.07C11.56.99 9.9.25 8 .25 5.2.25 2.87 1.57 1.3 3.89l2.42 1.87C3.3 4.11 4.66 3.38 8 3.38z"/>
</svg>
