<svg width="50" height="50" viewBox="0 0 50 50" fill="none" xmlns="http://www.w3.org/2000/svg">
<rect width="50" height="50" rx="25" fill="#CF5093"/>
<path d="M18.2173 30.7781V19.2226C18.2173 18.2697 18.2173 17.7927 18.4104 17.5108C18.579 17.2648 18.8388 17.1032 19.1273 17.0646C19.4577 17.0203 19.8629 17.2447 20.6721 17.6928L31.1069 23.4706L31.1107 23.4723C32.005 23.9675 32.4524 24.2152 32.5991 24.5454C32.7271 24.8334 32.7271 25.1658 32.5991 25.4538C32.4522 25.7845 32.0037 26.0332 31.1069 26.5298L20.6721 32.3076C19.8623 32.756 19.4578 32.9795 19.1273 32.9352C18.8388 32.8966 18.579 32.7351 18.4104 32.489C18.2173 32.2071 18.2173 31.731 18.2173 30.7781Z" stroke="white" stroke-width="2.21739" stroke-linecap="round" stroke-linejoin="round"/>
</svg>
