<svg width="16" height="18" viewBox="0 0 16 18" fill="none" xmlns="http://www.w3.org/2000/svg">
<path d="M0.751043 14.4892V2.91753C0.751043 1.96335 0.751043 1.48572 0.944451 1.2034C1.11325 0.956999 1.37344 0.795219 1.66229 0.75654C1.99313 0.71224 2.3989 0.936914 3.20928 1.38562L13.6586 7.17143L13.6624 7.17318C14.5579 7.66906 15.0059 7.91711 15.1529 8.24773C15.2811 8.53614 15.2811 8.86907 15.1529 9.15748C15.0057 9.48856 14.5567 9.73763 13.6586 10.2349L3.20928 16.0207C2.39832 16.4697 1.99325 16.6936 1.66229 16.6492C1.37344 16.6106 1.11325 16.4488 0.944451 16.2024C0.751043 15.9201 0.751043 15.4433 0.751043 14.4892Z" stroke="#171717" stroke-width="1.5" stroke-linecap="round" stroke-linejoin="round"/>
</svg>
