<svg width="27" height="27" viewBox="0 0 27 27" fill="none" xmlns="http://www.w3.org/2000/svg">
<g clip-path="url(#clip0_0_11)">
<path d="M3.6937 11.9621C3.26896 12.0595 3.15354 12.6099 3.50336 12.8698L8.46035 16.5521C8.60292 16.658 8.67979 16.8306 8.66406 17.0075L8.11733 23.1575C8.07874 23.5915 8.56727 23.8712 8.92249 23.6188L13.9565 20.0427C14.1012 19.9398 14.2884 19.9192 14.4518 19.9888L20.1322 22.4103C20.5331 22.5811 20.9498 22.203 20.8195 21.7872L18.9739 15.8949C18.9208 15.7254 18.9593 15.5408 19.076 15.4069L23.133 10.7523C23.4193 10.4238 23.1896 9.91049 22.7539 9.90589L16.5792 9.84067C16.4016 9.8388 16.2384 9.74471 16.1472 9.59235L12.9744 4.29517C12.7505 3.92133 12.1912 3.98174 12.0522 4.39474L10.0822 10.2467C10.0256 10.4151 9.88513 10.5416 9.71202 10.5813L3.6937 11.9621Z" fill="#FACC15" stroke="#FACC15" stroke-width="2" stroke-linecap="round" stroke-linejoin="round"/>
</g>
<defs>
<clipPath id="clip0_0_11">
<rect width="24" height="24" fill="white" transform="translate(0 2.62903) scale(1.02134) rotate(-6.15719)"/>
</clipPath>
</defs>
</svg>
