<svg width="74" height="21" viewBox="0 0 74 21" fill="none" xmlns="http://www.w3.org/2000/svg">
<g clip-path="url(#clip0_216_13327)">
<path fill-rule="evenodd" clip-rule="evenodd" d="M9.40805 2.43855H7.9978C5.41235 2.43855 4.06086 3.73128 4.06086 5.65078C4.06086 7.82491 5.00103 8.83363 6.93032 10.1362L8.51685 11.1939L3.92376 18.01H0.515659L4.63867 11.9186C2.26867 10.2341 0.936775 8.59859 0.936775 5.82706C0.936775 2.35041 3.36553 0 7.97821 0H12.5615V18.01H9.40805V2.43855Z" fill="#E63F0C"/>
<path fill-rule="evenodd" clip-rule="evenodd" d="M35.0465 15.5812H30.6689C31.5307 13.6127 31.7657 10.0577 31.7657 7.8052V7.41346H35.0564V15.5812H35.0465ZM38.1511 4.9847H29.102V6.10116C29.102 9.28401 28.8963 13.407 27.7994 15.5812H26.8299V20.9969H29.6993V18.0197H36.6624V20.9969H39.532V15.5812H38.1511V4.9847Z" fill="#000003"/>
<path fill-rule="evenodd" clip-rule="evenodd" d="M22.4278 10.136H18.2852V4.9847H15.1807V18.0197H18.2852V12.5746H22.4278V18.0197H25.5323V4.9847H22.4278V10.136Z" fill="#000003"/>
<path fill-rule="evenodd" clip-rule="evenodd" d="M70.4715 7.15957C71.6761 7.15957 72.8415 7.57089 73.4683 7.96262V5.3478C72.8121 4.98544 71.6663 4.72101 70.1288 4.72101C66.1625 4.72101 64.1058 7.54151 64.1058 11.5078C64.1058 15.8659 66.1135 18.275 70.2658 18.275C71.7055 18.275 72.7142 18.0204 73.4781 17.4719V14.9551C72.6946 15.5035 71.7545 15.8365 70.4519 15.8365C68.2387 15.8365 67.318 14.1226 67.318 11.4295C67.318 8.60898 68.4443 7.15957 70.4715 7.15957Z" fill="#000003"/>
<path fill-rule="evenodd" clip-rule="evenodd" d="M63.6898 4.9847H60.556L56.1784 10.9978V4.9847H53.0738V18.0197H56.1784V11.6149L60.7714 18.0197H64.2872L59.3025 10.9978L63.6898 4.9847Z" fill="#000003"/>
<path fill-rule="evenodd" clip-rule="evenodd" d="M47.8307 10.3229H43.502C43.5804 8.24663 44.3345 7.15957 45.823 7.15957C47.3606 7.15957 47.8307 8.4327 47.8307 10.0584V10.3229ZM45.8818 4.72101C42.1015 4.72101 40.2995 7.60027 40.2995 11.5372C40.2995 16.0715 42.5423 18.275 46.5086 18.275C48.4869 18.275 49.9559 17.756 50.8666 17.139V14.6221C49.8971 15.2685 48.2812 15.8365 46.773 15.8365C44.5009 15.8365 43.6391 14.7788 43.5118 12.5949H50.9939V10.9594C50.9939 6.43486 48.9863 4.72101 45.8818 4.72101Z" fill="#000003"/>
</g>
<defs>
<clipPath id="clip0_216_13327">
<rect width="73.9951" height="20.9956" fill="white"/>
</clipPath>
</defs>
</svg>
