<svg width="280" height="82" viewBox="0 0 280 82" fill="none" xmlns="http://www.w3.org/2000/svg">
<path d="M13.3788 44.3223C13.3788 44.9795 12.8643 45.5637 12.1292 45.5637C11.4676 45.5637 10.8795 45.0525 10.8795 44.3223C10.8795 43.6652 11.4676 43.081 12.1292 43.081C12.8643 43.154 13.3788 43.6652 13.3788 44.3223ZM13.9669 44.3223C13.9669 44.9795 14.4815 45.5637 15.2166 45.5637C15.8782 45.5637 16.4663 45.0525 16.4663 44.3954C16.4663 43.7382 15.9517 43.154 15.2166 43.154C14.555 43.154 13.9669 43.6652 13.9669 44.3223ZM39.6955 43.154C39.0339 43.154 38.4458 43.6652 38.4458 44.3954C38.4458 45.0525 38.9604 45.6367 39.6219 45.6367C40.2835 45.6367 40.8716 45.0525 40.8716 44.3954C40.9451 43.6652 40.4306 43.154 39.6955 43.154ZM42.7829 43.154C42.1213 43.154 41.5332 43.7382 41.5332 44.3954C41.5332 45.0525 42.1213 45.6367 42.7829 45.6367C43.4445 45.6367 44.0326 45.0525 44.0326 44.3954C43.959 43.6652 43.4445 43.154 42.7829 43.154ZM18.2305 43.154C17.5689 43.154 16.9808 43.7382 16.9808 44.3954C16.9808 45.0525 17.5689 45.6367 18.2305 45.6367C18.8921 45.6367 19.4802 45.0525 19.4067 44.3954C19.4802 43.6652 18.9656 43.154 18.2305 43.154ZM9.11525 45.5637C9.77684 45.5637 10.3649 45.0525 10.3649 44.3954C10.3649 43.7382 9.85035 43.154 9.11525 43.154C8.45366 43.154 7.86558 43.6652 7.86558 44.3223C7.86558 44.9795 8.38015 45.5637 9.11525 45.5637ZM36.6815 45.5637C37.3431 45.5637 37.9312 45.0525 37.9312 44.3954C37.9312 43.7382 37.4166 43.154 36.6815 43.154C36.02 43.154 35.4319 43.6652 35.4319 44.3223C35.4319 44.9795 35.9464 45.5637 36.6815 45.5637ZM19.4802 56.3704C19.4802 55.7133 18.9656 55.1291 18.2305 55.1291C17.5689 55.1291 16.9808 55.7133 16.9808 56.3704C16.9808 57.0276 17.4954 57.5387 18.2305 57.5387C18.9656 57.6118 19.4802 57.0276 19.4802 56.3704ZM33.5941 22.0516C32.9325 22.0516 32.3444 22.6358 32.3444 23.293C32.3444 23.9501 32.9325 24.5343 33.5941 24.5343C34.2557 24.5343 34.8438 24.0231 34.8438 23.293C34.8438 22.6358 34.2557 22.0516 33.5941 22.0516ZM37.8577 23.293C37.8577 22.6358 37.3431 22.0516 36.6815 22.0516C36.02 22.0516 35.4319 22.5628 35.4319 23.2199C35.4319 23.8771 35.9464 24.4613 36.6815 24.4613C37.3431 24.5343 37.8577 23.9501 37.8577 23.293ZM40.9451 56.3704C40.9451 55.7133 40.4306 55.1291 39.6955 55.1291C39.0339 55.1291 38.4458 55.6402 38.4458 56.2974C38.4458 56.9546 38.9604 57.5387 39.6955 57.5387C40.357 57.6118 40.9451 57.1006 40.9451 56.3704ZM42.7829 55.1291C42.1213 55.1291 41.5332 55.7133 41.5332 56.3704C41.5332 57.0276 42.0478 57.6118 42.7829 57.6118C43.4445 57.6118 44.0326 57.1006 44.0326 56.3704C44.0326 55.7133 43.4445 55.1291 42.7829 55.1291ZM50.1339 71.3393C50.1339 70.6821 49.6193 70.171 48.8842 70.171C48.2226 70.171 47.6345 70.7551 47.6345 71.4123C47.6345 72.0695 48.2226 72.6536 48.8842 72.5806C49.6193 72.5806 50.1339 72.0695 50.1339 71.3393ZM45.8703 70.171C45.2087 70.171 44.6206 70.6821 44.6206 71.4123C44.6206 72.0695 45.1352 72.6536 45.8703 72.6536C46.5319 72.6536 47.12 72.0695 47.12 71.4123C47.12 70.7551 46.5319 70.171 45.8703 70.171ZM12.1292 55.1291C11.4676 55.1291 10.8795 55.7133 10.8795 56.3704C10.8795 57.0276 11.3941 57.6118 12.1292 57.6118C12.7908 57.6118 13.3788 57.1006 13.3788 56.3704C13.3788 55.7133 12.8643 55.1291 12.1292 55.1291ZM15.2166 55.1291C14.555 55.1291 13.9669 55.7133 13.9669 56.3704C13.9669 57.0276 14.4815 57.6118 15.2166 57.6118C15.8782 57.6118 16.4663 57.1006 16.4663 56.3704C16.4663 55.7133 15.8782 55.1291 15.2166 55.1291ZM12.1292 22.0516C11.4676 22.0516 10.8795 22.6358 10.8795 23.293C10.8795 23.9501 11.3941 24.5343 12.0557 24.5343C12.7172 24.5343 13.3053 24.0231 13.3053 23.293C13.3788 22.6358 12.8643 22.0516 12.1292 22.0516ZM56.8968 23.293C56.8968 23.9501 57.4849 24.4613 58.1465 24.4613C58.8081 24.4613 59.3962 23.8771 59.3962 23.2199C59.3962 22.5628 58.8081 22.0516 58.1465 22.0516C57.4114 22.0516 56.8968 22.6358 56.8968 23.293ZM10.3649 23.293C10.3649 22.6358 9.85035 22.0516 9.18876 22.0516C8.52717 22.0516 7.93909 22.5628 7.93909 23.293C7.93909 23.9501 8.45366 24.5343 9.18876 24.5343C9.77684 24.5343 10.2914 23.9501 10.3649 23.293ZM51.9716 30.5218C52.6332 30.5218 53.1478 30.0107 53.1478 29.2805C53.1478 28.6233 52.6332 28.0392 51.8981 28.0392C51.2365 28.0392 50.722 28.5503 50.722 29.2805C50.7955 30.0107 51.3101 30.5218 51.9716 30.5218ZM50.1339 29.3535C50.1339 28.6963 49.6193 28.1122 48.8842 28.1122C48.2226 28.1122 47.6345 28.6963 47.6345 29.3535C47.6345 30.0107 48.1491 30.5948 48.8842 30.5948C49.6193 30.5218 50.1339 30.0107 50.1339 29.3535ZM24.4054 30.5218C25.0669 30.5218 25.5815 30.0107 25.5815 29.2805C25.5815 28.6233 25.0669 28.0392 24.3318 28.0392C23.6703 28.0392 23.1557 28.5503 23.1557 29.2805C23.2292 30.0107 23.7438 30.5218 24.4054 30.5218ZM22.5676 29.3535C22.5676 28.6963 22.053 28.1122 21.3179 28.1122C20.6563 28.1122 20.0683 28.6233 20.0683 29.2805C20.0683 29.9377 20.5828 30.5218 21.3179 30.5218C22.053 30.5218 22.5676 30.0107 22.5676 29.3535ZM12.1292 3.43188C12.7908 3.43188 13.3788 2.84773 13.3788 2.19056C13.3788 1.53339 12.8643 1.02226 12.1292 0.949243C11.4676 0.949243 10.8795 1.46037 10.8795 2.19056C10.953 2.92075 11.4676 3.43188 12.1292 3.43188ZM15.2166 3.43188C15.8782 3.43188 16.4663 2.84773 16.4663 2.19056C16.4663 1.53339 15.8782 0.949243 15.2166 0.949243C14.555 0.949243 14.0404 1.53339 14.0404 2.19056C13.9669 2.92075 14.555 3.43188 15.2166 3.43188ZM19.4802 2.26358C19.4802 1.60641 18.9656 1.02226 18.304 1.02226C17.6424 1.02226 17.0543 1.53339 17.0543 2.19056C17.0543 2.84773 17.5689 3.43188 18.2305 3.43188C18.8921 3.43188 19.4802 2.92075 19.4802 2.26358ZM40.9451 32.2743C40.9451 31.6171 40.357 31.0329 39.6955 31.0329C39.0339 31.0329 38.4458 31.6171 38.4458 32.2743C38.4458 32.9314 38.9604 33.4426 39.6955 33.4426C40.4306 33.5156 40.9451 33.0045 40.9451 32.2743ZM39.6955 3.43188C40.357 3.43188 40.9451 2.84773 40.9451 2.19056C40.9451 1.53339 40.357 1.02226 39.6955 1.02226C39.0339 1.02226 38.4458 1.60641 38.4458 2.26358C38.5193 2.92075 39.0339 3.43188 39.6955 3.43188ZM42.7829 3.43188C43.4445 3.43188 44.0326 2.84773 44.0326 2.19056C44.0326 1.53339 43.4445 0.949243 42.7829 0.949243C42.1213 0.949243 41.5332 1.53339 41.5332 2.19056C41.5332 2.92075 42.1213 3.43188 42.7829 3.43188ZM9.11525 57.6118C9.77684 57.6118 10.3649 57.0276 10.2914 56.3704C10.2914 55.7133 9.77684 55.1291 9.04174 55.1291C8.38015 55.1291 7.79207 55.7133 7.79207 56.3704C7.86558 57.0276 8.45366 57.6118 9.11525 57.6118ZM44.0326 32.3473C44.0326 31.6901 43.4445 31.106 42.7829 31.106C42.1213 31.106 41.5332 31.6901 41.5332 32.3473C41.5332 33.0044 42.0478 33.5886 42.7829 33.5886C43.4445 33.5156 44.0326 33.0044 44.0326 32.3473ZM19.4802 32.3473C19.4802 31.6901 18.9656 31.106 18.304 31.106C17.6424 31.106 17.0543 31.6171 17.0543 32.3473C17.0543 33.0044 17.5689 33.5886 18.2305 33.5886C18.9656 33.5156 19.4802 33.0044 19.4802 32.3473ZM16.4663 32.3473C16.4663 31.6901 15.9517 31.106 15.2166 31.106C14.555 31.106 13.9669 31.6901 13.9669 32.3473C13.9669 33.0044 14.4815 33.5886 15.2166 33.5886C15.8782 33.5156 16.4663 33.0044 16.4663 32.3473ZM13.3788 32.3473C13.3788 31.6901 12.7908 31.106 12.1292 31.106C11.4676 31.106 10.8795 31.6901 10.8795 32.3473C10.8795 33.0044 11.3941 33.5886 12.0557 33.5886C12.8643 33.5156 13.3788 33.0044 13.3788 32.3473ZM47.12 29.3535C47.12 28.6963 46.6054 28.1122 45.8703 28.1122C45.2087 28.1122 44.6206 28.6963 44.6206 29.3535C44.6206 30.0107 45.1352 30.5948 45.8703 30.5948C46.5319 30.5218 47.0465 30.0107 47.12 29.3535ZM41.5332 59.3642C41.5332 60.0214 42.0478 60.6055 42.7829 60.6055C43.4445 60.6055 44.0326 60.0944 44.0326 59.4372C44.0326 58.78 43.518 58.1959 42.8564 58.1959C42.1213 58.1229 41.5332 58.634 41.5332 59.3642ZM51.9716 37.0935C51.3101 37.0935 50.722 37.6046 50.722 38.2618C50.722 38.919 51.2365 39.5031 51.9716 39.5031C52.6332 39.5031 53.2213 38.919 53.2213 38.2618C53.2213 37.6776 52.6332 37.0935 51.9716 37.0935ZM9.11525 3.43188C9.77684 3.43188 10.2914 2.92075 10.2914 2.26358C10.2914 1.60641 9.77684 1.02226 9.04174 1.02226C8.38015 1.02226 7.86558 1.53339 7.79207 2.26358C7.86558 2.92075 8.45366 3.43188 9.11525 3.43188ZM39.6955 22.0516C39.0339 22.0516 38.4458 22.5628 38.4458 23.293C38.4458 23.9501 38.9604 24.5343 39.6955 24.5343C40.357 24.5343 40.9451 24.0231 40.9451 23.293C40.9451 22.6358 40.4306 22.0516 39.6955 22.0516ZM42.7829 22.0516C42.1213 22.0516 41.5332 22.5628 41.5332 23.293C41.5332 23.9501 42.0478 24.5343 42.7829 24.5343C43.4445 24.5343 44.0326 24.0231 44.0326 23.293C44.0326 22.6358 43.4445 22.0516 42.7829 22.0516ZM39.6955 39.5031C40.357 39.5031 40.9451 38.919 40.9451 38.2618C40.9451 37.6046 40.4306 37.0205 39.6955 37.0205C39.0339 37.0205 38.5193 37.5316 38.5193 38.2618C38.5193 38.992 39.0339 39.5031 39.6955 39.5031ZM51.9716 49.1416C51.3101 49.1416 50.7955 49.7257 50.7955 50.3829C50.7955 51.0401 51.3101 51.6242 52.0452 51.6242C52.7067 51.6242 53.2948 51.0401 53.2213 50.3829C53.2213 49.6527 52.6332 49.0686 51.9716 49.1416ZM27.4193 37.0935C26.7577 37.0935 26.2431 37.6776 26.2431 38.3348C26.2431 38.992 26.7577 39.5761 27.4928 39.5761C28.1544 39.5761 28.7424 38.992 28.7424 38.3348C28.6689 37.6046 28.1544 37.0935 27.4193 37.0935ZM37.8577 20.2992C37.8577 19.642 37.2696 19.0579 36.608 19.0579C35.9464 19.0579 35.4319 19.642 35.4319 20.2992C35.4319 20.9564 35.9464 21.5405 36.6815 21.5405C37.3431 21.5405 37.8577 20.9564 37.8577 20.2992ZM10.953 38.2618C10.953 38.919 11.4676 39.5031 12.2027 39.5031C12.8643 39.5031 13.4523 38.919 13.4523 38.2618C13.4523 37.6046 12.9378 37.0205 12.2027 37.0205C11.4676 37.0935 10.953 37.6046 10.953 38.2618ZM41.5332 14.2386C41.5332 14.8958 42.0478 15.48 42.7094 15.48C43.371 15.48 43.959 14.8958 43.959 14.2386C43.959 13.5815 43.4445 12.9973 42.7829 12.9973C42.1213 13.0703 41.5332 13.5815 41.5332 14.2386ZM44.0326 74.4061C44.0326 73.7489 43.4445 73.1647 42.7829 73.1647C42.1213 73.1647 41.5332 73.7489 41.5332 74.4061C41.5332 75.0632 42.0478 75.5743 42.7829 75.5743C43.4445 75.5743 44.0326 75.0632 44.0326 74.4061ZM41.5332 47.3161C41.5332 47.9733 42.1213 48.5574 42.7829 48.5574C43.4445 48.5574 44.0326 47.9733 44.0326 47.3161C44.0326 46.6589 43.518 46.0748 42.7829 46.0748C42.1213 46.1478 41.5332 46.6589 41.5332 47.3161ZM37.8577 11.2449C37.8577 10.5877 37.3431 10.0036 36.608 10.0036C35.9464 10.0036 35.3584 10.5147 35.3584 11.2449C35.3584 11.902 35.8729 12.4862 36.608 12.4862C37.3431 12.4862 37.8577 11.9751 37.8577 11.2449ZM59.3227 11.2449C59.3227 10.5877 58.8081 10.0036 58.073 10.0036C57.4114 10.0036 56.8233 10.5147 56.8233 11.2449C56.8233 11.902 57.3379 12.4862 58.073 12.4862C58.8081 12.4862 59.3227 11.9751 59.3227 11.2449ZM16.4663 74.4061C16.4663 73.7489 15.9517 73.1647 15.2166 73.1647C14.555 73.1647 13.9669 73.6759 13.9669 74.4061C13.9669 75.0632 14.4815 75.6474 15.1431 75.6474C15.8782 75.5743 16.4663 75.0632 16.4663 74.4061ZM27.4928 30.5218C28.1544 30.5218 28.7424 30.0107 28.7424 29.2805C28.7424 28.6233 28.2279 28.0392 27.5663 28.0392C26.9047 28.0392 26.3166 28.5503 26.3166 29.2805C26.2431 30.0107 26.7577 30.5218 27.4928 30.5218ZM41.5332 68.4185C41.5332 69.0757 42.0478 69.6598 42.7094 69.6598C43.371 69.6598 43.959 69.0757 43.959 68.4185C43.959 67.7613 43.4445 67.1772 42.7829 67.1772C42.1213 67.1772 41.5332 67.6883 41.5332 68.4185ZM18.2305 67.1772C17.5689 67.1772 16.9808 67.6883 17.0543 68.4185C17.0543 69.0757 17.6424 69.6598 18.304 69.6598C18.9656 69.6598 19.5537 69.0757 19.4802 68.4185C19.4802 67.6883 18.9656 67.1772 18.2305 67.1772ZM38.5193 47.3161C38.5193 47.9733 39.1074 48.5574 39.769 48.5574C40.4306 48.5574 41.0186 47.9733 41.0186 47.3161C41.0186 46.6589 40.5041 46.0748 39.769 46.0748C39.0339 46.1478 38.5193 46.6589 38.5193 47.3161ZM18.304 46.1478C17.6424 46.1478 17.0543 46.6589 17.0543 47.3161C17.0543 47.9733 17.6424 48.5574 18.304 48.5574C18.9656 48.5574 19.5537 47.9733 19.5537 47.3161C19.4802 46.6589 18.9656 46.1478 18.304 46.1478ZM3.01391 18.5467C3.67551 18.5467 4.19008 18.0356 4.26359 17.3054C4.19008 16.6483 3.67551 16.0641 2.9404 16.0641C2.27881 16.0641 1.76424 16.5752 1.69073 17.2324C1.76424 17.9626 2.27881 18.5467 3.01391 18.5467ZM55.0591 30.5218C55.7207 30.5218 56.3087 30.0107 56.3087 29.2805C56.3087 28.6233 55.7942 28.0392 55.0591 28.0392C54.3975 28.0392 53.8829 28.5503 53.8829 29.2805C53.8094 30.0107 54.324 30.5218 55.0591 30.5218ZM15.2166 46.1478C14.555 46.1478 13.9669 46.732 13.9669 47.3891C13.9669 48.0463 14.4815 48.6304 15.1431 48.6304C15.8047 48.6304 16.3928 48.0463 16.3928 47.3891C16.4663 46.6589 15.8782 46.1478 15.2166 46.1478ZM44.0326 62.358C44.0326 61.7008 43.518 61.1166 42.7829 61.1166C42.1213 61.1166 41.5332 61.6278 41.5332 62.358C41.5332 63.0151 42.0478 63.5993 42.7094 63.5993C43.4445 63.5993 44.0326 63.0151 44.0326 62.358ZM19.4802 62.358C19.4802 61.7008 18.9656 61.1166 18.2305 61.1166C17.5689 61.1166 16.9808 61.6278 16.9808 62.358C16.9808 63.0151 17.4954 63.5993 18.157 63.5993C18.9656 63.5993 19.4802 63.0151 19.4802 62.358ZM16.4663 62.358C16.4663 61.7008 15.9517 61.1166 15.2166 61.1166C14.555 61.1166 13.9669 61.6278 13.9669 62.358C13.9669 63.0151 14.4815 63.5993 15.1431 63.5993C15.8782 63.5993 16.4663 63.0151 16.4663 62.358ZM44.0326 11.2449C44.0326 10.5877 43.518 10.0036 42.7829 10.0036C42.1213 10.0036 41.5332 10.5147 41.5332 11.1719C41.5332 11.829 42.0478 12.4132 42.7829 12.4132C43.4445 12.4862 44.0326 11.9751 44.0326 11.2449ZM18.304 22.0516C17.6424 22.0516 17.0543 22.6358 17.0543 23.293C17.0543 23.9501 17.6424 24.5343 18.304 24.5343C18.9656 24.5343 19.5537 24.0231 19.5537 23.293C19.4802 22.6358 18.9656 22.0516 18.304 22.0516ZM10.953 47.3161C10.953 47.9733 11.5411 48.5574 12.2027 48.5574C12.8643 48.5574 13.4523 48.0463 13.4523 47.3891C13.4523 46.732 12.9378 46.1478 12.2027 46.1478C11.4676 46.1478 10.953 46.6589 10.953 47.3161ZM42.7829 52.1353C42.1213 52.1353 41.6067 52.7195 41.5332 53.3767C41.5332 54.0338 42.0478 54.618 42.7829 54.618C43.4445 54.618 43.959 54.1068 43.959 53.3767C44.0326 52.7195 43.4445 52.1353 42.7829 52.1353ZM13.9669 26.2867C13.9669 26.9439 14.4815 27.528 15.2166 27.528C15.8782 27.528 16.4663 26.9439 16.4663 26.2867C16.4663 25.6296 15.8782 25.0454 15.2166 25.0454C14.555 25.0454 13.9669 25.6296 13.9669 26.2867ZM18.304 27.528C18.9656 27.528 19.5537 26.9439 19.5537 26.2867C19.5537 25.6296 19.0391 25.0454 18.304 25.0454C17.6424 25.0454 17.0543 25.5565 17.0543 26.2867C17.0543 26.9439 17.5689 27.528 18.304 27.528ZM53.8094 17.3054C53.8094 17.9626 54.324 18.4737 55.0591 18.4737C55.7207 18.4737 56.3087 17.8896 56.2352 17.2324C56.2352 16.5752 55.7207 16.0641 54.9856 16.0641C54.324 16.0641 53.8094 16.6483 53.8094 17.3054ZM34.8438 11.2449C34.8438 10.5877 34.3292 10.0036 33.6676 10.0036C33.006 10.0036 32.418 10.5147 32.418 11.2449C32.418 11.902 32.9325 12.4132 33.5941 12.4862C34.3292 12.4862 34.8438 11.9751 34.8438 11.2449ZM7.86558 59.3642C7.86558 60.0214 8.38015 60.6055 9.04174 60.6055C9.70333 60.6055 10.2914 60.0944 10.2914 59.3642C10.2914 58.707 9.77684 58.1229 9.11525 58.1229C8.45366 58.1229 7.86558 58.707 7.86558 59.3642ZM10.3649 20.2992C10.3649 19.642 9.85035 19.0579 9.18876 19.0579C8.52717 19.0579 7.93909 19.569 7.93909 20.2262C7.93909 20.8833 8.45366 21.4675 9.11525 21.4675C9.77684 21.5405 10.3649 20.9564 10.3649 20.2992ZM19.4802 20.2992C19.4802 19.642 18.9656 19.0579 18.2305 19.0579C17.5689 19.0579 16.9808 19.569 16.9808 20.2262C16.9808 20.8833 17.4954 21.4675 18.2305 21.4675C18.9656 21.5405 19.4802 20.9564 19.4802 20.2992ZM39.6955 52.1353C39.0339 52.1353 38.5193 52.7195 38.5193 53.3767C38.5193 54.0338 39.0339 54.618 39.769 54.618C40.4306 54.618 40.9451 54.1068 40.9451 53.3767C40.9451 52.7195 40.357 52.1353 39.6955 52.1353ZM34.8438 20.2992C34.8438 19.642 34.2557 19.0579 33.5941 19.0579C32.9325 19.0579 32.3444 19.642 32.3444 20.2992C32.3444 20.9564 32.859 21.5405 33.5941 21.5405C34.2557 21.5405 34.8438 20.9564 34.8438 20.2992ZM44.0326 20.2992C44.0326 19.642 43.518 19.0579 42.7829 19.0579C42.1213 19.0579 41.5332 19.642 41.5332 20.2992C41.5332 20.9564 42.0478 21.4675 42.7829 21.5405C43.4445 21.5405 43.959 20.9564 44.0326 20.2992ZM13.9669 59.3642C13.9669 60.0214 14.4815 60.6055 15.2166 60.6055C15.8782 60.6055 16.4663 60.0944 16.4663 59.3642C16.4663 58.707 15.9517 58.1959 15.2901 58.1229C14.555 58.1229 13.9669 58.707 13.9669 59.3642ZM30.5067 30.5218C31.1683 30.5218 31.7564 30.0107 31.7564 29.2805C31.7564 28.6233 31.2418 28.0392 30.5802 28.0392C29.9186 28.0392 29.3305 28.5503 29.3305 29.2805C29.3305 30.0107 29.8451 30.5218 30.5067 30.5218ZM40.9451 11.2449C40.9451 10.5877 40.4306 10.0766 39.6955 10.0766C39.0339 10.0766 38.4458 10.5877 38.4458 11.2449C38.4458 11.902 38.9604 12.4862 39.6955 12.4862C40.4306 12.4862 40.9451 11.902 40.9451 11.2449ZM16.4663 11.2449C16.4663 10.5877 15.9517 10.0766 15.2166 10.0036C14.555 10.0036 13.9669 10.5147 13.9669 11.2449C13.9669 11.902 14.4815 12.4132 15.2166 12.4132C15.8782 12.4862 16.4663 11.9751 16.4663 11.2449ZM59.3227 8.25111C59.3227 7.59394 58.8081 7.00979 58.073 7.00979C57.4114 7.00979 56.8233 7.52093 56.8233 8.25111C56.8233 8.90828 57.3379 9.49243 57.9995 9.49243C58.8081 9.49243 59.3227 8.90828 59.3227 8.25111ZM13.3788 11.2449C13.3788 10.5877 12.8643 10.0036 12.1292 10.0036C11.4676 10.0036 10.8795 10.5877 10.8795 11.2449C10.8795 11.902 11.3941 12.4132 12.1292 12.4132C12.8643 12.4862 13.3788 11.9751 13.3788 11.2449ZM42.7829 27.528C43.4445 27.528 44.0326 26.9439 44.0326 26.2867C44.0326 25.6296 43.518 25.0454 42.7829 25.0454C42.1213 25.0454 41.5332 25.5565 41.5332 26.2867C41.5332 26.9439 42.1213 27.528 42.7829 27.528ZM19.4802 53.3767C19.4802 52.7195 18.9656 52.1353 18.304 52.1353C17.6424 52.1353 17.0543 52.7195 17.0543 53.3767C17.0543 54.0338 17.5689 54.545 18.304 54.618C18.9656 54.618 19.4802 54.1068 19.4802 53.3767ZM10.3649 11.2449C10.3649 10.5877 9.85035 10.0036 9.11525 10.0036C8.45366 10.0036 7.86558 10.5877 7.86558 11.2449C7.86558 11.902 8.38015 12.4132 9.11525 12.4132C9.77684 12.4862 10.3649 11.9751 10.3649 11.2449ZM15.2166 22.0516C14.555 22.0516 13.9669 22.6358 13.9669 23.293C13.9669 23.9501 14.4815 24.5343 15.2166 24.5343C15.8782 24.5343 16.4663 24.0231 16.4663 23.293C16.4663 22.6358 15.8782 22.0516 15.2166 22.0516ZM13.9669 14.2386C13.9669 14.8958 14.555 15.48 15.2166 15.48C15.8782 15.48 16.4663 14.8958 16.4663 14.2386C16.4663 13.5815 15.9517 12.9973 15.2166 12.9973C14.555 13.0703 13.9669 13.5815 13.9669 14.2386ZM17.0543 14.2386C17.0543 14.8958 17.5689 15.48 18.2305 15.48C18.8921 15.48 19.4802 14.8958 19.4802 14.2386C19.4802 13.5815 18.9656 13.0703 18.2305 12.9973C17.5689 13.0703 17.0543 13.5815 17.0543 14.2386ZM15.2166 52.1353C14.555 52.1353 14.0404 52.7195 14.0404 53.3767C14.0404 54.0338 14.555 54.618 15.2901 54.618C15.9517 54.618 16.4663 54.1068 16.4663 53.3767C16.4663 52.7195 15.8782 52.1353 15.2166 52.1353ZM13.3788 53.3767C13.3788 52.7195 12.7908 52.1353 12.1292 52.1353C11.4676 52.1353 10.953 52.7195 10.953 53.3767C10.953 54.0338 11.4676 54.618 12.2027 54.618C12.8643 54.618 13.3788 54.0338 13.3788 53.3767ZM9.11525 52.1353C8.45366 52.1353 7.86558 52.7195 7.86558 53.3767C7.86558 54.0338 8.45366 54.618 9.11525 54.618C9.77684 54.618 10.2914 54.1068 10.2914 53.3767C10.3649 52.7195 9.77684 52.1353 9.11525 52.1353ZM33.5941 37.0935C32.9325 37.0935 32.418 37.6046 32.418 38.3348C32.418 38.992 33.006 39.5761 33.6676 39.5761C34.3292 39.5761 34.8438 38.992 34.8438 38.3348C34.8438 37.6046 34.2557 37.0935 33.5941 37.0935ZM24.4054 37.0935C23.7438 37.0935 23.1557 37.6046 23.1557 38.3348C23.1557 38.992 23.6703 39.5761 24.3318 39.5761C24.9934 39.5761 25.5815 39.065 25.5815 38.3348C25.655 37.6046 25.1405 37.0935 24.4054 37.0935ZM9.11525 37.0935C8.45366 37.0935 7.86558 37.6046 7.86558 38.3348C7.86558 38.992 8.38015 39.5761 9.04174 39.5761C9.70333 39.5761 10.2914 39.065 10.2914 38.3348C10.3649 37.6046 9.77684 37.0935 9.11525 37.0935ZM19.4802 74.4061C19.4802 73.7489 18.9656 73.1647 18.2305 73.1647C17.5689 73.1647 16.9808 73.7489 16.9808 74.4061C16.9808 75.0632 17.4954 75.6474 18.157 75.6474C18.9656 75.5743 19.4802 75.0632 19.4802 74.4061ZM9.11525 4.08905C8.45366 4.08905 7.93909 4.6732 7.93909 5.33036C7.93909 5.98753 8.52717 6.57168 9.18876 6.57168C9.85035 6.57168 10.4384 5.98753 10.4384 5.33036C10.3649 4.60018 9.77684 4.01603 9.11525 4.08905ZM33.5941 4.08905C32.9325 4.08905 32.3444 4.60018 32.3444 5.25735C32.3444 5.91451 32.859 6.49866 33.5941 6.49866C34.2557 6.49866 34.8438 5.98753 34.8438 5.33036C34.8438 4.60018 34.3292 4.08905 33.5941 4.08905ZM35.4319 5.25735C35.4319 5.91451 36.02 6.49866 36.6815 6.49866C37.3431 6.49866 37.9312 5.91451 37.9312 5.25735C37.9312 4.60018 37.4166 4.01603 36.6815 4.01603C36.02 4.08905 35.4319 4.60018 35.4319 5.25735ZM12.2027 27.528C12.8643 27.528 13.4523 26.9439 13.4523 26.2867C13.4523 25.6296 12.9378 25.0454 12.2027 25.0454C11.5411 25.0454 10.953 25.5565 10.953 26.2867C10.953 26.9439 11.4676 27.528 12.2027 27.528ZM13.9669 68.4185C13.9669 69.0757 14.4815 69.6598 15.1431 69.6598C15.8047 69.6598 16.3928 69.0757 16.3928 68.4185C16.3928 67.7613 15.8782 67.1772 15.2166 67.1772C14.555 67.1772 13.9669 67.6883 13.9669 68.4185ZM12.1292 69.6598C12.7908 69.6598 13.3788 69.0757 13.3788 68.4185C13.3788 67.7613 12.8643 67.1772 12.2027 67.1772C11.4676 67.1772 10.953 67.6883 10.953 68.3455C10.953 69.0757 11.4676 69.6598 12.1292 69.6598ZM13.3788 62.358C13.3788 61.7008 12.8643 61.1166 12.1292 61.1166C11.4676 61.1166 10.8795 61.6278 10.8795 62.2849C10.8795 63.0151 11.3941 63.5263 12.1292 63.5263C12.8643 63.5993 13.3788 63.0151 13.3788 62.358ZM42.7829 34.0997C42.1213 34.0997 41.5332 34.6109 41.5332 35.341C41.5332 35.9982 42.0478 36.5824 42.7829 36.5824C43.4445 36.5824 43.959 36.0712 43.959 35.341C44.0326 34.6109 43.4445 34.0997 42.7829 34.0997ZM4.19008 8.25111C4.19008 7.59394 3.67551 7.08281 2.9404 7.08281C2.27881 7.08281 1.69073 7.59394 1.69073 8.32413C1.76424 8.90828 2.27881 9.49243 2.9404 9.49243C3.67551 9.49243 4.19008 8.9813 4.19008 8.25111ZM7.2775 8.25111C7.2775 7.59394 6.76293 7.00979 6.02783 7.00979C5.36624 7.00979 4.77816 7.52093 4.77816 8.25111C4.77816 8.90828 5.29273 9.49243 6.02783 9.49243C6.68942 9.49243 7.2775 8.9813 7.2775 8.25111ZM16.4663 8.25111C16.4663 7.59394 15.9517 7.00979 15.2166 7.00979C14.555 7.00979 13.9669 7.59394 13.9669 8.25111C13.9669 8.90828 14.4815 9.49243 15.2166 9.49243C15.8782 9.49243 16.4663 8.90828 16.4663 8.25111ZM38.5193 35.341C38.5193 35.9982 39.0339 36.5093 39.769 36.5824C40.4306 36.5824 41.0186 36.0712 41.0186 35.341C41.0186 34.6839 40.5041 34.1727 39.769 34.1727C39.0339 34.0997 38.5193 34.6109 38.5193 35.341ZM22.5676 8.25111C22.5676 7.59394 22.053 7.00979 21.3179 7.00979C20.6563 7.00979 20.0683 7.52093 20.0683 8.25111C20.0683 8.90828 20.5828 9.41941 21.3179 9.49243C22.053 9.49243 22.5676 8.90828 22.5676 8.25111ZM35.4319 38.2618C35.4319 38.919 35.9464 39.5031 36.6815 39.5031C37.3431 39.5031 37.9312 38.919 37.9312 38.2618C37.9312 37.6046 37.4166 37.0205 36.6815 37.0205C35.9464 37.0935 35.4319 37.6046 35.4319 38.2618ZM28.6689 8.25111C28.6689 7.59394 28.1544 7.00979 27.4193 7.00979C26.7577 7.00979 26.1696 7.52093 26.1696 8.25111C26.1696 8.90828 26.6842 9.49243 27.3458 9.49243C28.1544 9.49243 28.6689 8.9813 28.6689 8.25111ZM31.7564 8.25111C31.7564 7.59394 31.2418 7.00979 30.5067 7.00979C29.8451 7.00979 29.257 7.59394 29.257 8.25111C29.257 8.90828 29.7716 9.41941 30.5067 9.41941C31.1683 9.49243 31.7564 8.9813 31.7564 8.25111ZM34.8438 8.25111C34.8438 7.59394 34.2557 7.00979 33.5941 7.00979C32.9325 7.00979 32.3444 7.52093 32.3444 8.25111C32.3444 8.90828 32.859 9.41941 33.5941 9.41941C34.2557 9.49243 34.8438 8.90828 34.8438 8.25111ZM35.4319 35.341C35.4319 35.9982 35.9464 36.5093 36.6815 36.5824C37.3431 36.5824 37.9312 36.0712 37.9312 35.341C37.9312 34.6839 37.4166 34.1727 36.6815 34.1727C35.9464 34.0997 35.4319 34.6109 35.4319 35.341ZM34.8438 35.341C34.8438 34.6839 34.3292 34.0997 33.6676 34.0997C32.9325 34.0997 32.418 34.6109 32.418 35.268C32.418 35.9252 32.9325 36.5093 33.6676 36.5093C34.2557 36.5093 34.8438 35.9982 34.8438 35.341ZM39.6955 27.528C40.357 27.528 40.9451 26.9439 40.9451 26.2867C40.9451 25.6296 40.4306 25.0454 39.6955 25.0454C39.0339 25.0454 38.4458 25.5565 38.4458 26.2867C38.5193 26.9439 39.0339 27.528 39.6955 27.528ZM38.5193 59.3642C38.5193 60.0214 39.0339 60.6055 39.769 60.6055C40.4306 60.6055 41.0186 60.0944 41.0186 59.3642C41.0186 58.707 40.5041 58.1229 39.8425 58.1229C39.0339 58.1229 38.5193 58.707 38.5193 59.3642ZM10.953 35.341C10.953 35.9982 11.4676 36.5093 12.2027 36.5824C12.8643 36.5824 13.4523 36.0712 13.4523 35.341C13.4523 34.6839 12.9378 34.1727 12.2027 34.1727C11.4676 34.0997 10.953 34.6109 10.953 35.341ZM7.86558 35.341C7.86558 35.9982 8.38015 36.5824 9.11525 36.5824C9.77684 36.5824 10.2914 36.0712 10.2914 35.341C10.2914 34.6839 9.77684 34.0997 9.04174 34.0997C8.45366 34.0997 7.86558 34.6109 7.86558 35.341ZM48.8842 18.5467C49.5458 18.5467 50.1339 18.0356 50.1339 17.3054C50.1339 16.6483 49.6193 16.0641 48.9577 16.0641C48.2961 16.0641 47.7081 16.5752 47.7081 17.3054C47.7081 17.9626 48.2226 18.5467 48.8842 18.5467ZM18.304 28.1122C17.6424 28.1122 17.0543 28.6233 17.0543 29.3535C17.0543 30.0107 17.5689 30.5948 18.304 30.5948C18.9656 30.5948 19.5537 30.0837 19.5537 29.4265C19.4802 28.6233 18.9656 28.1122 18.304 28.1122ZM13.9669 35.341C13.9669 35.9982 14.4815 36.5093 15.2166 36.5093C15.8782 36.5093 16.4663 35.9982 16.4663 35.268C16.4663 34.6109 15.9517 34.0997 15.2166 34.0997C14.555 34.0997 13.9669 34.6109 13.9669 35.341ZM50.1339 8.25111C50.1339 7.59394 49.6193 7.00979 48.8842 7.00979C48.2226 7.00979 47.6345 7.52093 47.6345 8.25111C47.6345 8.90828 48.1491 9.49243 48.8842 9.49243C49.6193 9.49243 50.1339 8.9813 50.1339 8.25111ZM48.8842 49.1416C48.2226 49.1416 47.6345 49.7257 47.6345 50.3829C47.6345 51.0401 48.1491 51.6242 48.8842 51.6242C49.5458 51.6242 50.1339 51.1131 50.1339 50.3829C50.1339 49.6527 49.6193 49.1416 48.8842 49.1416ZM10.953 59.3642C10.953 60.0214 11.4676 60.6055 12.1292 60.6055C12.7908 60.6055 13.3788 60.0944 13.3788 59.3642C13.3788 58.707 12.8643 58.1229 12.2027 58.1229C11.4676 58.1229 10.953 58.707 10.953 59.3642ZM4.19008 20.2992C4.19008 19.642 3.60199 19.0579 2.9404 19.0579C2.27881 19.0579 1.69073 19.642 1.69073 20.2992C1.69073 20.9564 2.2053 21.4675 2.9404 21.4675C3.67551 21.5405 4.19008 20.9564 4.19008 20.2992ZM7.2775 20.2992C7.2775 19.642 6.76293 19.0579 6.02783 19.0579C5.36624 19.0579 4.77816 19.642 4.77816 20.2992C4.77816 20.9564 5.29273 21.5405 6.02783 21.5405C6.68942 21.5405 7.20399 20.9564 7.2775 20.2992ZM17.0543 17.3054C17.0543 17.9626 17.5689 18.5467 18.304 18.5467C18.9656 18.5467 19.5537 18.0356 19.5537 17.3784C19.5537 16.6483 19.0391 16.1371 18.3775 16.1371C17.6424 16.0641 17.0543 16.6483 17.0543 17.3054ZM13.3788 20.2992C13.3788 19.642 12.8643 19.0579 12.1292 19.0579C11.4676 19.0579 10.8795 19.642 10.8795 20.2992C10.8795 20.9564 11.3941 21.5405 12.1292 21.5405C12.8643 21.5405 13.3788 20.9564 13.3788 20.2992ZM16.4663 20.2992C16.4663 19.642 15.9517 19.0579 15.2166 19.0579C14.555 19.0579 13.9669 19.642 13.9669 20.2992C13.9669 20.9564 14.4815 21.4675 15.2166 21.4675C15.8782 21.5405 16.4663 20.9564 16.4663 20.2992ZM20.1418 17.3054C20.1418 17.9626 20.6563 18.5467 21.3914 18.5467C22.053 18.5467 22.5676 18.0356 22.6411 17.3054C22.6411 16.6483 22.1265 16.0641 21.3914 16.0641C20.6563 16.0641 20.1418 16.6483 20.1418 17.3054ZM27.4928 18.5467C28.1544 18.5467 28.6689 18.0356 28.7424 17.3054C28.7424 16.6483 28.2279 16.0641 27.4928 16.0641C26.8312 16.0641 26.3166 16.5752 26.3166 17.3054C26.2431 17.9626 26.7577 18.5467 27.4928 18.5467ZM25.655 20.2992C25.655 19.642 25.0669 19.0579 24.4054 19.0579C23.7438 19.0579 23.2292 19.642 23.2292 20.2992C23.2292 20.9564 23.7438 21.5405 24.4789 21.5405C25.0669 21.5405 25.655 20.9564 25.655 20.2992ZM28.6689 20.2992C28.6689 19.642 28.1544 19.0579 27.4193 19.0579C26.7577 19.0579 26.1696 19.642 26.1696 20.2992C26.1696 20.9564 26.6842 21.4675 27.4193 21.5405C28.1544 21.5405 28.6689 20.9564 28.6689 20.2992ZM23.2292 17.3054C23.2292 18.0356 23.7438 18.5467 24.4789 18.5467C25.1405 18.5467 25.655 17.9626 25.655 17.3054C25.655 16.6483 25.1405 16.0641 24.4054 16.0641C23.7438 16.0641 23.2292 16.6483 23.2292 17.3054ZM45.8703 49.1416C45.2087 49.1416 44.6206 49.6527 44.6206 50.3099C44.6206 50.967 45.1352 51.5512 45.8703 51.5512C46.5319 51.5512 47.12 51.0401 47.12 50.3829C47.0465 49.6527 46.5319 49.1416 45.8703 49.1416ZM18.304 40.1603C17.6424 40.1603 17.0543 40.6714 17.0543 41.3286C17.0543 41.9857 17.5689 42.5699 18.304 42.5699C18.9656 42.5699 19.5537 42.0588 19.5537 41.4016C19.4802 40.6714 18.9656 40.1603 18.304 40.1603ZM39.6955 21.5405C40.357 21.5405 40.9451 21.0294 40.9451 20.3722C40.9451 19.715 40.357 19.1309 39.6955 19.1309C39.0339 19.1309 38.4458 19.715 38.4458 20.3722C38.5193 20.9564 39.0339 21.5405 39.6955 21.5405ZM30.5067 18.5467C31.1683 18.5467 31.7564 18.0356 31.7564 17.3054C31.7564 16.6483 31.2418 16.0641 30.5067 16.0641C29.8451 16.0641 29.3305 16.5752 29.3305 17.3054C29.3305 17.9626 29.8451 18.5467 30.5067 18.5467ZM21.3914 49.1416C20.7298 49.1416 20.1418 49.6527 20.1418 50.3829C20.1418 51.0401 20.6563 51.6242 21.3914 51.6242C22.053 51.6242 22.5676 51.1131 22.5676 50.3829C22.5676 49.6527 22.053 49.1416 21.3914 49.1416ZM50.1339 20.2992C50.1339 19.642 49.6193 19.0579 48.8842 19.0579C48.2226 19.0579 47.6345 19.642 47.6345 20.2992C47.6345 20.9564 48.1491 21.4675 48.8842 21.5405C49.5458 21.5405 50.1339 20.9564 50.1339 20.2992ZM53.2213 20.2992C53.2213 19.642 52.7067 19.0579 52.0452 19.0579C51.3836 19.0579 50.7955 19.569 50.7955 20.2262C50.7955 20.8833 51.3101 21.4675 51.9716 21.4675C52.6332 21.5405 53.1478 21.0294 53.2213 20.2992ZM56.2352 20.2992C56.2352 19.642 55.7207 19.0579 54.9856 19.0579C54.324 19.0579 53.7359 19.642 53.7359 20.2992C53.7359 20.9564 54.2505 21.4675 54.9856 21.4675C55.7207 21.5405 56.2352 20.9564 56.2352 20.2992ZM59.3227 20.2992C59.3227 19.642 58.7346 19.0579 58.073 19.0579C57.4114 19.0579 56.8233 19.642 56.8233 20.2992C56.8233 20.9564 57.3379 21.4675 58.073 21.4675C58.8081 21.5405 59.3227 20.9564 59.3227 20.2992ZM19.4802 11.2449C19.4802 10.5147 18.9656 10.0036 18.2305 10.0036C17.5689 10.0036 16.9808 10.5877 16.9808 11.2449C16.9808 11.902 17.4954 12.4132 18.2305 12.4132C18.9656 12.4862 19.4802 11.9751 19.4802 11.2449ZM7.86558 47.3161C7.86558 47.9733 8.38015 48.5574 9.11525 48.5574C9.77684 48.5574 10.3649 47.9733 10.3649 47.3161C10.3649 46.6589 9.85035 46.1478 9.11525 46.0748C8.45366 46.1478 7.86558 46.6589 7.86558 47.3161ZM31.7564 32.3473C31.7564 31.6901 31.2418 31.106 30.5067 31.106C29.8451 31.106 29.257 31.6901 29.257 32.3473C29.257 33.0044 29.7716 33.5156 30.5067 33.5156C31.1683 33.5156 31.7564 33.0044 31.7564 32.3473ZM42.7829 16.0641C42.1213 16.0641 41.5332 16.5752 41.5332 17.3054C41.5332 17.9626 42.1213 18.5467 42.7829 18.5467C43.4445 18.5467 43.959 17.9626 43.959 17.3054C44.0326 16.6483 43.4445 16.0641 42.7829 16.0641ZM17.0543 59.3642C17.0543 60.0214 17.5689 60.6055 18.2305 60.6055C18.8921 60.6055 19.4802 60.0944 19.4802 59.3642C19.4802 58.707 18.9656 58.1229 18.304 58.1229C17.6424 58.1229 17.0543 58.707 17.0543 59.3642ZM44.6206 17.3054C44.6206 17.9626 45.2087 18.5467 45.8703 18.5467C46.5319 18.5467 47.12 17.9626 47.12 17.3054C47.12 16.6483 46.6054 16.0641 45.8703 16.0641C45.2087 16.0641 44.6206 16.6483 44.6206 17.3054ZM22.5676 20.2992C22.5676 19.642 21.9795 19.0579 21.3179 19.0579C20.6563 19.0579 20.0683 19.569 20.0683 20.2992C20.0683 20.9564 20.5828 21.5405 21.3179 21.5405C22.053 21.5405 22.5676 20.9564 22.5676 20.2992ZM25.655 8.25111C25.655 7.59394 25.1405 7.00979 24.4054 7.00979C23.7438 7.00979 23.1557 7.52093 23.1557 8.25111C23.1557 8.90828 23.6703 9.49243 24.4054 9.49243C25.0669 9.49243 25.655 8.90828 25.655 8.25111ZM10.3649 32.3473C10.3649 31.6901 9.77684 31.106 9.11525 31.106C8.45366 31.106 7.86558 31.6901 7.86558 32.3473C7.86558 33.0044 8.38015 33.5886 9.11525 33.5886C9.77684 33.5156 10.3649 33.0044 10.3649 32.3473ZM37.8577 32.3473C37.8577 31.6901 37.2696 31.106 36.608 31.106C35.9464 31.106 35.3584 31.6901 35.3584 32.3473C35.3584 33.0044 35.8729 33.5886 36.608 33.5886C37.3431 33.5156 37.8577 33.0044 37.8577 32.3473ZM17.0543 35.341C17.0543 35.9982 17.5689 36.5093 18.304 36.5093C18.9656 36.5093 19.5537 35.9982 19.5537 35.268C19.5537 34.6109 19.0391 34.0997 18.304 34.0997C17.5689 34.0997 17.0543 34.6839 17.0543 35.341ZM47.12 35.341C47.12 34.6839 46.6054 34.1727 45.9438 34.0997C45.2087 34.0997 44.6941 34.6109 44.6941 35.341C44.6941 35.9982 45.2087 36.5093 45.8703 36.5824C46.5319 36.5093 47.12 35.9982 47.12 35.341ZM15.2166 39.5031C15.8782 39.5031 16.4663 38.919 16.4663 38.2618C16.4663 37.6046 15.8782 37.0205 15.2166 37.0935C14.555 37.0935 14.0404 37.6776 14.0404 38.3348C13.9669 38.992 14.555 39.5031 15.2166 39.5031ZM21.3914 37.0935C20.7298 37.0935 20.1418 37.6046 20.1418 38.3348C20.1418 38.992 20.6563 39.5761 21.3914 39.5761C22.053 39.5761 22.6411 39.065 22.6411 38.3348C22.5676 37.6046 22.053 37.0935 21.3914 37.0935ZM48.8842 37.0935C48.2226 37.0935 47.7081 37.6046 47.7081 38.3348C47.7081 38.992 48.2226 39.5761 48.8842 39.5761C49.5458 39.5761 50.1339 39.065 50.1339 38.3348C50.1339 37.6046 49.6193 37.0935 48.8842 37.0935ZM9.11525 40.1603C8.45366 40.1603 7.86558 40.6714 7.86558 41.3286C7.86558 41.9857 8.38015 42.5699 9.11525 42.5699C9.77684 42.5699 10.3649 42.0588 10.3649 41.4016C10.3649 40.6714 9.77684 40.1603 9.11525 40.1603ZM12.2027 40.1603C11.5411 40.1603 10.953 40.6714 10.953 41.3286C10.953 41.9857 11.4676 42.5699 12.2027 42.5699C12.8643 42.5699 13.4523 42.0588 13.4523 41.4016C13.3788 40.6714 12.8643 40.1603 12.2027 40.1603ZM37.8577 41.4016C37.8577 40.7444 37.3431 40.1603 36.608 40.1603C35.9464 40.1603 35.3584 40.7444 35.3584 41.4016C35.3584 42.0588 35.8729 42.6429 36.608 42.6429C37.3431 42.5699 37.8577 42.0588 37.8577 41.4016ZM39.6955 40.1603C39.0339 40.1603 38.4458 40.6714 38.4458 41.3286C38.4458 41.9857 38.9604 42.5699 39.6955 42.5699C40.357 42.5699 40.9451 42.0588 40.9451 41.4016C40.9451 40.6714 40.4306 40.1603 39.6955 40.1603ZM42.7829 40.1603C42.1213 40.1603 41.5332 40.6714 41.5332 41.4016C41.5332 42.0588 42.0478 42.6429 42.7829 42.6429C43.4445 42.6429 43.959 42.1318 43.959 41.4016C44.0326 40.6714 43.4445 40.1603 42.7829 40.1603ZM9.11525 51.5512C9.77684 51.5512 10.2914 50.967 10.2914 50.3099C10.2914 49.6527 9.77684 49.0686 9.11525 49.0686C8.45366 49.0686 7.86558 49.5797 7.86558 50.3099C7.86558 51.0401 8.45366 51.5512 9.11525 51.5512ZM21.3179 58.1229C20.6563 58.1229 20.1418 58.707 20.1418 59.3642C20.1418 60.0214 20.6563 60.6055 21.3914 60.6055C22.053 60.6055 22.6411 60.0214 22.6411 59.3642C22.5676 58.707 22.053 58.1229 21.3179 58.1229ZM48.9577 58.1229C48.2226 58.1229 47.7081 58.634 47.7081 59.2912C47.7081 59.9483 48.2226 60.5325 48.8842 60.5325C49.5458 60.5325 50.1339 60.0214 50.1339 59.2912C50.1339 58.707 49.6193 58.1959 48.9577 58.1229ZM10.953 5.25735C10.953 5.91451 11.4676 6.49866 12.2027 6.49866C12.8643 6.49866 13.4523 5.98753 13.4523 5.33036C13.4523 4.60018 12.9378 4.08905 12.2027 4.08905C11.5411 4.08905 10.953 4.60018 10.953 5.25735ZM18.304 4.08905C17.6424 4.08905 17.0543 4.60018 17.0543 5.25735C17.0543 5.91451 17.5689 6.49866 18.304 6.49866C18.9656 6.49866 19.5537 5.98753 19.5537 5.33036C19.4802 4.60018 18.9656 4.08905 18.304 4.08905ZM38.5193 5.25735C38.5193 5.91451 39.0339 6.49866 39.769 6.49866C40.4306 6.49866 41.0186 5.98753 41.0186 5.33036C41.0186 4.6732 40.5041 4.08905 39.769 4.08905C39.0339 4.08905 38.5193 4.60018 38.5193 5.25735ZM10.3649 8.25111C10.3649 7.59394 9.85035 7.00979 9.11525 7.00979C8.45366 7.00979 7.86558 7.52093 7.86558 8.17809C7.86558 8.83526 8.38015 9.41941 9.11525 9.41941C9.77684 9.49243 10.2914 8.9813 10.3649 8.25111ZM13.3788 8.25111C13.3788 7.59394 12.8643 7.00979 12.1292 7.00979C11.4676 7.00979 10.8795 7.52093 10.8795 8.17809C10.8795 8.83526 11.3941 9.41941 12.1292 9.41941C12.8643 9.49243 13.3788 8.9813 13.3788 8.25111ZM19.4802 8.25111C19.4802 7.59394 18.9656 7.00979 18.2305 7.00979C17.5689 7.00979 16.9808 7.59394 16.9808 8.25111C16.9808 8.90828 17.4954 9.49243 18.2305 9.49243C18.9656 9.49243 19.4802 8.90828 19.4802 8.25111ZM37.8577 8.25111C37.8577 7.59394 37.3431 7.00979 36.608 7.00979C35.9464 7.00979 35.3584 7.52093 35.3584 8.25111C35.3584 8.90828 35.8729 9.41941 36.608 9.49243C37.3431 9.49243 37.8577 8.90828 37.8577 8.25111ZM40.9451 8.25111C40.9451 7.59394 40.357 7.00979 39.6955 7.00979C39.0339 7.00979 38.4458 7.59394 38.4458 8.25111C38.4458 8.90828 38.9604 9.49243 39.6955 9.49243C40.4306 9.49243 40.9451 8.90828 40.9451 8.25111ZM44.0326 8.25111C44.0326 7.59394 43.518 7.00979 42.7829 7.00979C42.1213 7.00979 41.5332 7.52093 41.5332 8.25111C41.5332 8.90828 42.0478 9.49243 42.7829 9.49243C43.4445 9.49243 44.0326 8.9813 44.0326 8.25111ZM47.12 8.25111C47.12 7.59394 46.5319 7.00979 45.8703 7.00979C45.2087 7.00979 44.6941 7.52093 44.6941 8.25111C44.6941 8.90828 45.2087 9.49243 45.9438 9.49243C46.5319 9.49243 47.12 8.90828 47.12 8.25111ZM53.2213 8.25111C53.2213 7.59394 52.7067 7.00979 51.9716 7.00979C51.3101 7.00979 50.722 7.52093 50.722 8.25111C50.722 8.90828 51.2365 9.41941 51.9716 9.49243C52.6332 9.49243 53.2213 8.90828 53.2213 8.25111ZM56.2352 8.25111C56.2352 7.59394 55.7207 7.08281 54.9856 7.08281C54.324 7.08281 53.7359 7.59394 53.7359 8.25111C53.7359 8.90828 54.2505 9.49243 54.9856 9.49243C55.7207 9.49243 56.2352 8.90828 56.2352 8.25111ZM1.76424 14.2386C1.76424 14.8958 2.35232 15.48 3.01391 15.48C3.67551 15.48 4.26359 14.8958 4.26359 14.2386C4.26359 13.5815 3.74902 12.9973 3.01391 12.9973C2.27881 13.0703 1.76424 13.5815 1.76424 14.2386ZM7.86558 14.2386C7.86558 14.9688 8.38015 15.48 9.11525 15.48C9.77684 15.48 10.2914 14.8958 10.3649 14.2386C10.3649 13.5815 9.85035 12.9973 9.18876 12.9973C8.45366 13.0703 7.86558 13.5815 7.86558 14.2386ZM10.953 14.2386C10.953 14.8958 11.4676 15.48 12.2027 15.48C12.8643 15.48 13.4523 14.8958 13.4523 14.2386C13.4523 13.5815 12.8643 13.0703 12.2027 13.0703C11.4676 13.0703 10.953 13.5815 10.953 14.2386ZM32.3444 14.2386C32.3444 14.8958 32.859 15.48 33.5941 15.48C34.2557 15.48 34.8438 14.9688 34.8438 14.2386C34.8438 13.5815 34.3292 12.9973 33.5941 12.9973C32.9325 13.0703 32.418 13.5815 32.3444 14.2386ZM36.6815 13.0703C35.9464 13.0703 35.4319 13.5815 35.4319 14.3117C35.4319 14.9688 35.9464 15.553 36.608 15.553C37.2696 15.553 37.8577 14.9688 37.8577 14.3117C37.8577 13.5815 37.3431 13.0703 36.6815 13.0703ZM39.6955 15.48C40.357 15.48 40.9451 14.8958 40.9451 14.2386C40.9451 13.5815 40.4306 12.9973 39.6955 12.9973C39.0339 12.9973 38.5193 13.5085 38.5193 14.2386C38.5193 14.8958 39.0339 15.48 39.6955 15.48ZM56.8968 14.2386C56.8968 14.8958 57.4114 15.48 58.1465 15.48C58.8081 15.48 59.3962 14.8958 59.3962 14.2386C59.3962 13.5815 58.8816 13.0703 58.1465 13.0703C57.4114 13.0703 56.8968 13.5815 56.8968 14.2386ZM6.02783 18.5467C6.68942 18.5467 7.2775 18.0356 7.2775 17.3054C7.2775 16.5752 6.76293 16.0641 6.02783 16.0641C5.36624 16.0641 4.85167 16.5752 4.85167 17.3054C4.77816 17.9626 5.36624 18.5467 6.02783 18.5467ZM10.953 17.3054C10.953 17.9626 11.4676 18.5467 12.2027 18.5467C12.8643 18.5467 13.4523 18.0356 13.4523 17.3784C13.4523 16.6483 12.9378 16.1371 12.2762 16.1371C11.4676 16.0641 10.953 16.6483 10.953 17.3054ZM13.9669 17.3054C13.9669 17.9626 14.4815 18.5467 15.1431 18.5467C15.8047 18.5467 16.3928 18.0356 16.3928 17.3784C16.3928 16.6483 15.8782 16.1371 15.2166 16.1371C14.555 16.0641 14.0404 16.5752 13.9669 17.3054ZM38.5193 17.3054C38.5193 17.9626 39.1074 18.5467 39.769 18.5467C40.4306 18.5467 41.0186 18.0356 41.0186 17.3054C41.0186 16.5752 40.5041 16.0641 39.769 16.0641C39.0339 16.0641 38.5193 16.6483 38.5193 17.3054ZM51.9716 18.5467C52.6332 18.5467 53.2213 18.0356 53.2213 17.3054C53.2213 16.6483 52.7067 16.0641 51.9716 16.0641C51.3101 16.0641 50.7955 16.5752 50.722 17.2324C50.722 17.9626 51.3101 18.5467 51.9716 18.5467ZM31.7564 20.2992C31.7564 19.642 31.1683 19.0579 30.5067 19.0579C29.8451 19.0579 29.257 19.642 29.257 20.2992C29.257 20.9564 29.7716 21.5405 30.5067 21.5405C31.1683 21.5405 31.7564 20.9564 31.7564 20.2992ZM1.76424 26.2867C1.76424 26.9439 2.35232 27.528 3.01391 27.528C3.67551 27.528 4.19008 26.9439 4.19008 26.2867C4.19008 25.6296 3.60199 25.0454 2.9404 25.0454C2.27881 25.0454 1.76424 25.6296 1.76424 26.2867ZM9.11525 27.528C9.77684 27.528 10.3649 26.9439 10.3649 26.2867C10.3649 25.6296 9.85035 25.0454 9.11525 25.0454C8.45366 25.0454 7.93909 25.5565 7.93909 26.2867C7.86558 26.9439 8.45366 27.528 9.11525 27.528ZM29.3305 26.2867C29.3305 26.9439 29.8451 27.528 30.5802 27.528C31.2418 27.528 31.8299 26.9439 31.8299 26.2867C31.8299 25.6296 31.3153 25.1184 30.5802 25.0454C29.8451 25.0454 29.3305 25.5565 29.3305 26.2867ZM36.608 27.528C37.2696 27.528 37.8577 26.9439 37.8577 26.2867C37.8577 25.6296 37.3431 25.0454 36.608 25.0454C35.9464 25.0454 35.4319 25.5565 35.4319 26.2867C35.4319 26.9439 35.9464 27.528 36.608 27.528ZM6.02783 30.5218C6.68942 30.5218 7.20399 30.0107 7.20399 29.2805C7.20399 28.6233 6.68942 28.0392 5.95432 28.0392C5.29273 28.0392 4.77816 28.6233 4.77816 29.2805C4.85167 30.0107 5.36624 30.5218 6.02783 30.5218ZM12.2027 30.5218C12.8643 30.5218 13.3788 30.0107 13.3788 29.2805C13.3788 28.6233 12.7908 28.0392 12.1292 28.0392C11.4676 28.0392 10.953 28.6233 10.953 29.2805C10.953 30.0107 11.4676 30.5218 12.2027 30.5218ZM15.2166 28.1122C14.555 28.1122 13.9669 28.6963 13.9669 29.3535C13.9669 30.0107 14.4815 30.5948 15.2166 30.5948C15.8782 30.5948 16.3928 30.0837 16.3928 29.3535C16.4663 28.6233 15.8782 28.1122 15.2166 28.1122ZM39.769 28.1122C39.1074 28.1122 38.5193 28.6963 38.5193 29.3535C38.5193 30.0107 39.0339 30.5948 39.769 30.5948C40.4306 30.5948 41.0186 30.0837 41.0186 29.3535C40.9451 28.6233 40.4306 28.1122 39.769 28.1122ZM42.7829 28.1122C42.1213 28.1122 41.5332 28.6963 41.5332 29.3535C41.5332 30.0107 42.1213 30.5948 42.7829 30.5948C43.4445 30.5948 43.959 30.0107 43.959 29.3535C44.0326 28.6233 43.4445 28.1122 42.7829 28.1122ZM32.3444 26.2867C32.3444 26.9439 32.9325 27.455 33.5941 27.455C34.2557 27.455 34.8438 26.8709 34.7703 26.2137C34.7703 25.5565 34.1822 25.0454 33.5206 25.0454C32.9325 25.0454 32.3444 25.6296 32.3444 26.2867ZM53.8094 14.3117C53.8094 14.9688 54.3975 15.553 55.0591 15.48C55.7207 15.48 56.3087 14.8958 56.3087 14.2386C56.3087 13.5815 55.7942 12.9973 55.0591 12.9973C54.324 13.0703 53.8094 13.5815 53.8094 14.3117ZM44.6206 68.4185C44.6206 69.0757 45.1352 69.6598 45.8703 69.6598C46.5319 69.6598 47.12 69.0757 47.12 68.4185C47.12 67.7613 46.6054 67.1772 45.8703 67.1772C45.1352 67.1772 44.6206 67.6883 44.6206 68.4185ZM41.5332 5.25735C41.5332 5.91451 42.0478 6.49866 42.7829 6.49866C43.4445 6.49866 44.0326 5.98753 44.0326 5.33036C44.0326 4.60018 43.518 4.08905 42.8564 4.08905C42.1213 4.08905 41.5332 4.60018 41.5332 5.25735ZM44.6206 5.25735C44.6206 5.91451 45.2087 6.49866 45.8703 6.49866C46.5319 6.49866 47.12 5.98753 47.12 5.25735C47.12 4.60018 46.6054 4.01603 45.8703 4.01603C45.2087 4.08905 44.6206 4.60018 44.6206 5.25735ZM22.5676 11.2449C22.5676 10.5877 22.053 10.0036 21.3179 10.0036C20.6563 10.0036 20.0683 10.5147 20.0683 11.2449C20.0683 11.902 20.5828 12.4862 21.3179 12.4862C22.053 12.4862 22.5676 11.902 22.5676 11.2449ZM30.5067 13.0703C29.8451 13.0703 29.3305 13.6545 29.3305 14.3117C29.3305 14.9688 29.9186 15.553 30.5802 15.553C31.2418 15.553 31.8299 14.9688 31.8299 14.3117C31.7564 13.5815 31.1683 12.9973 30.5067 13.0703ZM36.6815 16.0641C36.02 16.0641 35.4319 16.6483 35.4319 17.3054C35.4319 17.9626 36.02 18.5467 36.6815 18.5467C37.3431 18.5467 37.9312 17.9626 37.9312 17.3054C37.8577 16.6483 37.3431 16.0641 36.6815 16.0641ZM33.5941 16.0641C32.9325 16.0641 32.3444 16.6483 32.3444 17.3054C32.3444 17.9626 32.859 18.5467 33.5206 18.5467C34.1822 18.5467 34.7703 18.0356 34.7703 17.3054C34.8438 16.6483 34.3292 16.0641 33.5941 16.0641ZM7.86558 17.3054C7.86558 17.9626 8.45366 18.5467 9.11525 18.5467C9.77684 18.5467 10.3649 17.9626 10.2914 17.3054C10.2914 16.6483 9.70333 16.1371 9.04174 16.1371C8.45366 16.0641 7.86558 16.6483 7.86558 17.3054ZM44.0326 65.4248C44.0326 64.6946 43.518 64.1834 42.7829 64.1834C42.1213 64.1834 41.5332 64.6946 41.5332 65.4248C41.5332 66.0819 42.0478 66.593 42.7829 66.593C43.4445 66.593 43.959 66.0819 44.0326 65.4248ZM35.4319 2.26358C35.4319 2.92075 36.02 3.43188 36.6815 3.43188C37.3431 3.43188 37.9312 2.84773 37.8577 2.19056C37.8577 1.53339 37.2696 1.02226 36.608 1.02226C35.9464 1.02226 35.4319 1.53339 35.4319 2.26358ZM19.4802 65.4248C19.4802 64.6946 18.9656 64.1834 18.304 64.1834C17.6424 64.1834 17.0543 64.6946 17.0543 65.4248C17.0543 66.0819 17.5689 66.593 18.304 66.593C18.9656 66.593 19.4802 66.0819 19.4802 65.4248ZM16.4663 65.4248C16.4663 64.7676 15.9517 64.1834 15.2166 64.1834C14.555 64.1834 14.0404 64.6946 14.0404 65.4248C14.0404 66.0819 14.555 66.6661 15.2901 66.6661C15.9517 66.593 16.4663 66.0819 16.4663 65.4248ZM13.3788 65.4248C13.3788 64.6946 12.8643 64.1834 12.1292 64.1834C11.4676 64.1834 10.8795 64.6946 10.8795 65.3517C10.8795 66.0089 11.3941 66.593 12.1292 66.593C12.8643 66.593 13.3788 66.0819 13.3788 65.4248ZM12.1292 51.5512C12.7908 51.5512 13.3788 50.967 13.3788 50.3099C13.3788 49.6527 12.7908 49.0686 12.1292 49.0686C11.4676 49.0686 10.8795 49.5797 10.8795 50.3099C10.953 51.0401 11.4676 51.5512 12.1292 51.5512ZM15.2166 4.08905C14.555 4.08905 13.9669 4.60018 13.9669 5.33036C13.9669 5.98753 14.4815 6.57168 15.2166 6.57168C15.8782 6.57168 16.4663 5.98753 16.4663 5.33036C16.4663 4.60018 15.9517 4.08905 15.2166 4.08905ZM45.8703 76.2315C45.2087 76.2315 44.6206 76.8157 44.6206 77.4728C44.6206 78.13 45.1352 78.7142 45.7968 78.7142C46.4584 78.7142 47.0465 78.203 47.0465 77.4728C47.12 76.7426 46.5319 76.2315 45.8703 76.2315ZM42.7829 39.5031C43.4445 39.5031 44.0326 38.919 44.0326 38.2618C44.0326 37.6046 43.4445 37.0205 42.7829 37.0935C42.1213 37.0935 41.6067 37.6776 41.6067 38.3348C41.5332 38.992 42.1213 39.5031 42.7829 39.5031ZM53.2213 32.3473C53.2213 31.6901 52.6332 31.106 51.9716 31.106C51.3101 31.106 50.722 31.6901 50.722 32.3473C50.722 33.0044 51.2365 33.5156 51.9716 33.5156C52.6332 33.5156 53.2213 33.0044 53.2213 32.3473ZM56.2352 32.3473C56.2352 31.6901 55.7207 31.106 54.9856 31.106C54.324 31.106 53.7359 31.6901 53.7359 32.3473C53.7359 33.0044 54.2505 33.5156 54.9856 33.5886C55.7207 33.5156 56.2352 33.0044 56.2352 32.3473ZM45.8703 37.0935C45.2087 37.0935 44.6206 37.6046 44.6206 38.2618C44.6206 38.919 45.1352 39.5031 45.8703 39.5031C46.5319 39.5031 47.0465 38.992 47.12 38.2618C47.0465 37.6046 46.5319 37.0935 45.8703 37.0935ZM30.5802 22.0516C29.9186 22.0516 29.3305 22.5628 29.3305 23.293C29.3305 23.9501 29.8451 24.5343 30.5067 24.5343C31.1683 24.5343 31.7564 24.0231 31.7564 23.293C31.7564 22.6358 31.2418 22.0516 30.5802 22.0516ZM47.12 11.2449C47.12 10.5877 46.6054 10.0766 45.8703 10.0036C45.2087 10.0036 44.6206 10.5147 44.6206 11.2449C44.6206 11.902 45.1352 12.4132 45.8703 12.4132C46.5319 12.4862 47.12 11.902 47.12 11.2449ZM50.1339 11.2449C50.1339 10.5877 49.6193 10.0766 48.9577 10.0036C48.2961 10.0036 47.7081 10.5147 47.7081 11.2449C47.7081 11.902 48.2226 12.4132 48.8842 12.4862C49.6193 12.4862 50.1339 11.9751 50.1339 11.2449ZM25.655 32.2743C25.655 31.6171 25.0669 31.106 24.4054 31.0329C23.7438 31.0329 23.1557 31.6171 23.1557 32.2743C23.1557 32.9314 23.6703 33.4426 24.4054 33.4426C25.0669 33.5156 25.655 33.0045 25.655 32.2743ZM28.6689 32.2743C28.6689 31.6171 28.0809 31.0329 27.4193 31.0329C26.7577 31.0329 26.1696 31.6171 26.1696 32.2743C26.1696 32.9314 26.6842 33.4426 27.4193 33.4426C28.1544 33.5156 28.6689 33.0045 28.6689 32.2743ZM20.1418 35.341C20.1418 35.9982 20.6563 36.5093 21.3914 36.5824C22.053 36.5824 22.6411 36.0712 22.6411 35.341C22.6411 34.6839 22.1265 34.1727 21.3914 34.1727C20.6563 34.0997 20.1418 34.6109 20.1418 35.341ZM23.1557 35.341C23.1557 35.9982 23.6703 36.5093 24.4054 36.5093C25.0669 36.5093 25.655 35.9982 25.655 35.268C25.655 34.6109 25.1405 34.0997 24.4054 34.0997C23.7438 34.0997 23.1557 34.6109 23.1557 35.341ZM58.073 27.528C58.7346 27.528 59.3227 26.9439 59.3227 26.2867C59.3227 25.6296 58.8081 25.0454 58.073 25.0454C57.4114 25.0454 56.8233 25.5565 56.8233 26.2867C56.8968 26.9439 57.4114 27.528 58.073 27.528ZM6.02783 22.0516C5.36624 22.0516 4.77816 22.5628 4.77816 23.293C4.77816 23.9501 5.36624 24.5343 6.02783 24.5343C6.68942 24.5343 7.20399 24.0231 7.2775 23.293C7.2775 22.6358 6.76293 22.0516 6.02783 22.0516ZM4.19008 23.293C4.19008 22.6358 3.67551 22.0516 2.9404 22.0516C2.27881 22.0516 1.69073 22.6358 1.69073 23.293C1.69073 23.9501 2.27881 24.5343 2.9404 24.5343C3.67551 24.5343 4.19008 23.9501 4.19008 23.293ZM47.12 53.3767C47.12 52.7195 46.5319 52.1353 45.8703 52.1353C45.2087 52.1353 44.6206 52.7195 44.6206 53.3767C44.6206 54.0338 45.1352 54.618 45.8703 54.618C46.5319 54.618 47.12 54.0338 47.12 53.3767ZM47.12 20.2992C47.12 19.642 46.6054 19.0579 45.8703 19.0579C45.2087 19.0579 44.6206 19.569 44.6206 20.2262C44.6206 20.8833 45.1352 21.4675 45.8703 21.4675C46.5319 21.5405 47.12 20.9564 47.12 20.2992ZM4.77816 26.2867C4.77816 26.9439 5.29273 27.528 6.02783 27.528C6.68942 27.528 7.2775 26.9439 7.2775 26.2867C7.2775 25.6296 6.76293 25.0454 6.02783 25.0454C5.36624 25.0454 4.77816 25.6296 4.77816 26.2867ZM7.2775 32.3473C7.2775 31.6901 6.76293 31.106 6.10134 31.106C5.43975 31.106 4.85167 31.6171 4.85167 32.3473C4.85167 33.0044 5.36624 33.5886 6.02783 33.5886C6.68942 33.5156 7.2775 33.0044 7.2775 32.3473ZM47.7081 35.341C47.7081 35.9982 48.2226 36.5093 48.9577 36.5093C49.6193 36.5093 50.2074 35.9982 50.2074 35.268C50.2074 34.6109 49.6928 34.0997 48.9577 34.0997C48.2226 34.0997 47.7081 34.6839 47.7081 35.341ZM15.2166 40.1603C14.555 40.1603 13.9669 40.6714 13.9669 41.3286C13.9669 41.9857 14.4815 42.5699 15.2166 42.5699C15.8782 42.5699 16.4663 42.0588 16.4663 41.4016C16.4663 40.6714 15.9517 40.1603 15.2166 40.1603ZM34.8438 32.3473C34.8438 31.6901 34.2557 31.106 33.5941 31.106C32.9325 31.106 32.3444 31.6901 32.3444 32.3473C32.3444 33.0044 32.859 33.5156 33.5941 33.5156C34.2557 33.5156 34.8438 33.0044 34.8438 32.3473ZM53.8094 26.2867C53.8094 26.9439 54.324 27.528 55.0591 27.528C55.7207 27.528 56.2352 26.9439 56.3087 26.2867C56.3087 25.6296 55.7942 25.0454 55.0591 25.0454C54.324 25.0454 53.8094 25.6296 53.8094 26.2867ZM45.8703 58.1229C45.2087 58.1229 44.6206 58.634 44.6206 59.2912C44.6206 59.9483 45.1352 60.5325 45.7968 60.5325C46.4584 60.5325 47.0465 60.0214 47.0465 59.2912C47.12 58.707 46.5319 58.1959 45.8703 58.1229ZM47.7081 68.4185C47.7081 69.0757 48.2226 69.6598 48.9577 69.6598C49.6193 69.6598 50.2074 69.0757 50.2074 68.4185C50.2074 67.7613 49.6928 67.2502 48.9577 67.2502C48.2226 67.1772 47.7081 67.7613 47.7081 68.4185ZM50.1339 65.4248C50.1339 64.7676 49.6193 64.1834 48.8842 64.1834C48.2226 64.1834 47.6345 64.6946 47.6345 65.4248C47.6345 66.0819 48.1491 66.6661 48.8842 66.6661C49.6193 66.593 50.1339 66.0819 50.1339 65.4248ZM21.3179 1.02226C20.6563 1.02226 20.0683 1.53339 20.0683 2.26358C20.0683 2.92075 20.5828 3.5049 21.3179 3.5049C21.9795 3.5049 22.4941 2.99377 22.4941 2.26358C22.5676 1.53339 22.053 1.02226 21.3179 1.02226ZM45.8703 1.02226C45.2087 1.02226 44.6206 1.53339 44.6206 2.26358C44.6206 2.92075 45.1352 3.5049 45.8703 3.5049C46.5319 3.43188 47.0465 2.92075 47.0465 2.19056C47.0465 1.53339 46.5319 1.02226 45.8703 1.02226ZM48.8842 1.02226C48.2226 1.02226 47.6345 1.53339 47.6345 2.26358C47.6345 2.92075 48.1491 3.5049 48.8842 3.5049C49.5458 3.5049 50.0604 2.99377 50.0604 2.26358C50.1339 1.53339 49.6193 1.02226 48.8842 1.02226ZM10.3649 29.3535C10.3649 28.6963 9.85035 28.1122 9.11525 28.1122C8.45366 28.1122 7.86558 28.6963 7.86558 29.3535C7.86558 30.0107 8.45366 30.5218 9.11525 30.5218C9.77684 30.5218 10.3649 30.0107 10.3649 29.3535ZM50.1339 53.3767C50.1339 52.7195 49.6193 52.1353 48.8842 52.1353C48.2226 52.1353 47.6345 52.7195 47.6345 53.3767C47.6345 54.0338 48.1491 54.618 48.8842 54.618C49.6193 54.618 50.1339 54.0338 50.1339 53.3767ZM51.9716 46.1478C51.3101 46.1478 50.722 46.6589 50.722 47.3161C50.722 47.9733 51.3101 48.5574 51.9716 48.5574C52.6332 48.5574 53.2213 47.9733 53.2213 47.3161C53.2213 46.6589 52.7067 46.1478 51.9716 46.1478ZM22.5676 53.3767C22.5676 52.7195 22.053 52.1353 21.3179 52.1353C20.6563 52.1353 20.0683 52.6465 20.0683 53.3767C20.0683 54.0338 20.5828 54.618 21.3179 54.618C22.053 54.618 22.5676 54.1068 22.5676 53.3767ZM50.1339 32.3473C50.1339 31.6901 49.5458 31.106 48.8842 31.106C48.2226 31.106 47.6345 31.6901 47.6345 32.3473C47.6345 33.0044 48.1491 33.5886 48.8842 33.5886C49.6193 33.5156 50.1339 33.0044 50.1339 32.3473ZM44.6206 47.3161C44.6206 47.9733 45.2087 48.5574 45.8703 48.5574C46.5319 48.5574 47.12 47.9733 47.12 47.3161C47.12 46.6589 46.6054 46.0748 45.8703 46.0748C45.2087 46.1478 44.6206 46.6589 44.6206 47.3161ZM4.77816 35.341C4.77816 35.9982 5.29273 36.5093 6.02783 36.5824C6.68942 36.5824 7.2775 36.0712 7.2775 35.341C7.2775 34.6839 6.76293 34.1727 6.10134 34.1727C5.36624 34.0997 4.77816 34.6109 4.77816 35.341ZM50.722 35.341C50.722 35.9982 51.2365 36.5824 51.9716 36.5824C52.6332 36.5824 53.1478 36.0712 53.1478 35.341C53.1478 34.6839 52.6332 34.0997 51.8981 34.0997C51.3101 34.0997 50.722 34.6839 50.722 35.341ZM26.2431 14.2386C26.2431 14.8958 26.7577 15.48 27.4193 15.48C28.0809 15.48 28.6689 14.8958 28.6689 14.2386C28.6689 13.5815 28.1544 12.9973 27.4928 12.9973C26.7577 13.0703 26.2431 13.5815 26.2431 14.2386ZM53.2213 11.2449C53.2213 10.5877 52.7067 10.0036 51.9716 10.0036C51.3101 10.0036 50.7955 10.5147 50.722 11.2449C50.722 11.902 51.2365 12.4862 51.9716 12.4862C52.6332 12.4862 53.2213 11.902 53.2213 11.2449ZM28.6689 11.2449C28.6689 10.5877 28.1544 10.0766 27.4193 10.0766C26.7577 10.0766 26.1696 10.6607 26.1696 11.3179C26.1696 11.9751 26.6842 12.4862 27.4193 12.4862C28.1544 12.4862 28.6689 11.902 28.6689 11.2449ZM26.2431 35.268C26.2431 35.9252 26.7577 36.5093 27.4928 36.5093C28.1544 36.5093 28.7424 35.9982 28.7424 35.341C28.7424 34.6839 28.2279 34.0997 27.4928 34.0997C26.7577 34.0997 26.2431 34.6109 26.2431 35.268ZM29.3305 35.268C29.3305 35.9252 29.8451 36.5093 30.5802 36.5093C31.2418 36.5093 31.8299 35.9982 31.8299 35.341C31.8299 34.6839 31.3153 34.0997 30.5802 34.0997C29.8451 34.0997 29.3305 34.6109 29.3305 35.268ZM26.2431 26.2867C26.2431 26.9439 26.7577 27.528 27.4928 27.528C28.1544 27.528 28.7424 27.0169 28.7424 26.3597C28.7424 25.7026 28.2279 25.1184 27.4928 25.1184C26.7577 25.0454 26.2431 25.5565 26.2431 26.2867ZM50.722 14.2386C50.722 14.8958 51.2365 15.48 51.8981 15.48C52.5597 15.48 53.1478 14.8958 53.1478 14.2386C53.1478 13.5815 52.6332 13.0703 51.8981 12.9973C51.3101 13.0703 50.722 13.5815 50.722 14.2386ZM15.2166 76.2315C14.555 76.2315 13.9669 76.7426 13.9669 77.4728C13.9669 78.13 14.555 78.7142 15.2166 78.7142C15.8782 78.7142 16.3928 78.203 16.3928 77.4728C16.4663 76.7426 15.9517 76.2315 15.2166 76.2315ZM53.8094 35.341C53.8094 35.9982 54.324 36.5824 55.0591 36.5824C55.7207 36.5824 56.3087 36.0712 56.3087 35.4141C56.3087 34.7569 55.7942 34.1727 55.0591 34.1727C54.324 34.0997 53.8094 34.6109 53.8094 35.341ZM47.12 41.4016C47.12 40.7444 46.6054 40.1603 45.8703 40.1603C45.2087 40.1603 44.6206 40.7444 44.6206 41.4016C44.6206 42.0588 45.1352 42.6429 45.8703 42.6429C46.5319 42.5699 47.0465 42.0588 47.12 41.4016ZM36.6815 28.1122C36.02 28.1122 35.4319 28.6963 35.4319 29.3535C35.4319 30.0107 36.02 30.5948 36.6815 30.5948C37.3431 30.5948 37.8577 30.0837 37.8577 29.3535C37.8577 28.6233 37.3431 28.1122 36.6815 28.1122ZM18.304 39.5031C18.9656 39.5031 19.5537 38.919 19.5537 38.2618C19.5537 37.6046 19.0391 37.0205 18.304 37.0205C17.6424 37.0205 17.0543 37.5316 17.0543 38.1888C17.0543 38.992 17.5689 39.5031 18.304 39.5031ZM33.5941 28.1122C32.9325 28.1122 32.3444 28.6963 32.3444 29.3535C32.3444 30.0107 32.9325 30.5948 33.5941 30.5948C34.2557 30.5948 34.7703 30.0107 34.7703 29.3535C34.8438 28.6233 34.3292 28.1122 33.5941 28.1122ZM54.9856 22.0516C54.324 22.0516 53.7359 22.6358 53.8094 23.293C53.8094 23.9501 54.3975 24.5343 55.0591 24.5343C55.7207 24.5343 56.2352 23.9501 56.2352 23.293C56.2352 22.5628 55.7207 22.0516 54.9856 22.0516ZM25.655 11.2449C25.655 10.5877 25.1405 10.0036 24.4054 10.0036C23.7438 10.0036 23.2292 10.5147 23.1557 11.2449C23.1557 11.902 23.6703 12.4862 24.4054 12.4862C25.1405 12.4862 25.655 11.902 25.655 11.2449ZM6.02783 15.48C6.68942 15.48 7.2775 14.8958 7.2775 14.2386C7.2775 13.5815 6.68942 12.9973 6.02783 13.0703C5.36624 13.0703 4.85167 13.6545 4.85167 14.3117C4.77816 14.9688 5.36624 15.48 6.02783 15.48ZM56.2352 11.2449C56.2352 10.5877 55.7207 10.0766 55.0591 10.0036C54.3975 10.0036 53.8094 10.5147 53.8094 11.2449C53.8094 11.902 54.324 12.4132 55.0591 12.4132C55.7207 12.4862 56.2352 11.9751 56.2352 11.2449ZM50.1339 41.4016C50.1339 40.7444 49.6193 40.1603 48.8842 40.1603C48.2226 40.1603 47.6345 40.6714 47.6345 41.3286C47.6345 41.9857 48.1491 42.5699 48.8842 42.5699C49.6193 42.5699 50.1339 42.0588 50.1339 41.4016ZM22.5676 32.3473C22.5676 31.6901 22.053 31.106 21.3179 31.106C20.6563 31.106 20.0683 31.6901 20.0683 32.3473C20.0683 33.0044 20.5828 33.5156 21.3179 33.5886C22.053 33.5156 22.5676 33.0044 22.5676 32.3473ZM20.1418 47.3161C20.1418 47.9733 20.7298 48.5574 21.3914 48.5574C22.053 48.5574 22.6411 47.9733 22.6411 47.3161C22.6411 46.6589 22.1265 46.1478 21.3914 46.0748C20.6563 46.1478 20.1418 46.6589 20.1418 47.3161ZM48.8842 61.1166C48.2226 61.1166 47.6345 61.6278 47.6345 62.358C47.6345 63.0151 48.1491 63.5993 48.8842 63.5263C49.5458 63.5263 50.0604 63.0151 50.0604 62.2849C50.1339 61.7008 49.6193 61.1166 48.8842 61.1166ZM47.12 32.2743C47.12 31.6171 46.5319 31.0329 45.8703 31.0329C45.2087 31.0329 44.6206 31.6171 44.6206 32.2743C44.6206 32.9314 45.1352 33.4426 45.8703 33.4426C46.5319 33.5156 47.12 33.0045 47.12 32.2743ZM45.8703 61.1166C45.2087 61.1166 44.6206 61.6278 44.6206 62.358C44.6206 63.0151 45.1352 63.5263 45.7968 63.5263C46.5319 63.5263 47.0465 63.0151 47.0465 62.2849C47.0465 61.7008 46.5319 61.1166 45.8703 61.1166ZM48.8842 25.0454C48.2226 25.0454 47.6345 25.5565 47.6345 26.2867C47.6345 26.9439 48.1491 27.528 48.8107 27.528C49.4723 27.528 50.0604 27.0169 50.0604 26.2867C50.1339 25.5565 49.6193 25.0454 48.8842 25.0454ZM45.8703 25.0454C45.2087 25.0454 44.6941 25.5565 44.6206 26.2867C44.6206 26.9439 45.1352 27.528 45.8703 27.528C46.5319 27.528 47.0465 27.0169 47.0465 26.2867C47.0465 25.5565 46.5319 25.0454 45.8703 25.0454ZM51.8981 25.0454C51.2365 25.0454 50.722 25.6296 50.722 26.2867C50.722 26.9439 51.3101 27.528 51.9716 27.528C52.6332 27.528 53.1478 26.9439 53.1478 26.2867C53.1478 25.5565 52.6332 25.0454 51.8981 25.0454ZM48.8842 6.49866C49.5458 6.49866 50.1339 5.98753 50.1339 5.25735C50.1339 4.60018 49.6193 4.01603 48.8842 4.01603C48.2226 4.01603 47.7081 4.60018 47.7081 5.25735C47.7081 5.91451 48.2226 6.49866 48.8842 6.49866ZM23.1557 26.2867C23.1557 26.9439 23.6703 27.528 24.4054 27.528C25.0669 27.528 25.655 27.0169 25.655 26.2867C25.655 25.6296 25.1405 25.0454 24.4054 25.0454C23.7438 25.0454 23.1557 25.6296 23.1557 26.2867ZM21.3179 25.0454C20.6563 25.0454 20.1418 25.5565 20.1418 26.2867C20.1418 26.9439 20.6563 27.528 21.3914 27.528C22.053 27.528 22.5676 27.0169 22.5676 26.2867C22.5676 25.5565 22.053 25.0454 21.3179 25.0454ZM27.4193 22.0516C26.7577 22.0516 26.1696 22.6358 26.2431 23.293C26.2431 23.9501 26.7577 24.5343 27.4928 24.5343C28.1544 24.5343 28.7424 24.0231 28.7424 23.293C28.6689 22.6358 28.1544 22.0516 27.4193 22.0516ZM51.9716 42.5699C52.6332 42.5699 53.2213 42.0588 53.2213 41.3286C53.2213 40.6714 52.7067 40.0873 52.0452 40.0873C51.3836 40.0873 50.7955 40.5984 50.7955 41.3286C50.7955 42.0588 51.3101 42.5699 51.9716 42.5699ZM53.2213 44.3223C53.2213 43.6652 52.6332 43.154 51.9716 43.154C51.3101 43.154 50.722 43.6652 50.722 44.3954C50.722 45.0525 51.2365 45.6367 51.9716 45.6367C52.6332 45.5637 53.2213 44.9795 53.2213 44.3223ZM48.9577 22.0516C48.2961 22.0516 47.7081 22.6358 47.7081 23.293C47.7081 23.9501 48.2226 24.5343 48.9577 24.5343C49.6193 24.5343 50.2074 24.0231 50.2074 23.293C50.1339 22.6358 49.6193 22.0516 48.9577 22.0516ZM48.9577 46.1478C48.2961 46.1478 47.7081 46.6589 47.7081 47.3891C47.7081 48.0463 48.2226 48.6304 48.8842 48.6304C49.5458 48.6304 50.1339 48.1193 50.1339 47.3891C50.1339 46.6589 49.6193 46.1478 48.9577 46.1478ZM25.655 41.4016C25.655 40.7444 25.1405 40.1603 24.4054 40.1603C23.7438 40.1603 23.1557 40.6714 23.1557 41.3286C23.1557 42.0588 23.6703 42.5699 24.3318 42.5699C25.0669 42.5699 25.655 42.0588 25.655 41.4016ZM45.8703 13.0703C45.1352 13.0703 44.6206 13.5815 44.6206 14.3117C44.6206 14.9688 45.1352 15.553 45.8703 15.553C46.5319 15.553 47.0465 14.9688 47.0465 14.3117C47.0465 13.5815 46.5319 13.0703 45.8703 13.0703ZM51.9716 54.618C52.6332 54.618 53.2213 54.1068 53.2213 53.3767C53.2213 52.7195 52.6332 52.1353 51.9716 52.1353C51.3101 52.1353 50.7955 52.7195 50.7955 53.3767C50.7955 54.1068 51.3101 54.618 51.9716 54.618ZM7.2775 11.2449C7.2775 10.5877 6.76293 10.0036 6.02783 10.0036C5.36624 10.0036 4.77816 10.5147 4.77816 11.1719C4.77816 11.829 5.29273 12.4132 6.02783 12.4132C6.68942 12.4862 7.2775 11.9751 7.2775 11.2449ZM47.12 56.3704C47.12 55.7133 46.5319 55.1291 45.8703 55.1291C45.2087 55.1291 44.6941 55.6402 44.6206 56.3704C44.6206 57.0276 45.1352 57.6118 45.8703 57.6118C46.5319 57.6118 47.0465 57.0276 47.12 56.3704ZM45.8703 22.0516C45.2087 22.0516 44.6206 22.5628 44.6206 23.293C44.6206 23.9501 45.1352 24.5343 45.8703 24.5343C46.5319 24.5343 47.12 24.0231 47.12 23.293C47.12 22.6358 46.5319 22.0516 45.8703 22.0516ZM20.1418 5.25735C20.1418 5.91451 20.6563 6.49866 21.3914 6.49866C22.053 6.49866 22.6411 5.98753 22.6411 5.25735C22.6411 4.60018 22.1265 4.01603 21.3914 4.01603C20.6563 4.08905 20.1418 4.60018 20.1418 5.25735ZM50.722 56.3704C50.722 57.0276 51.3101 57.5387 51.9716 57.5387C52.6332 57.5387 53.2213 57.0276 53.2213 56.2974C53.2213 55.6402 52.6332 55.0561 51.9716 55.0561C51.3101 55.1291 50.722 55.7133 50.722 56.3704ZM45.8703 73.1647C45.2087 73.1647 44.6206 73.7489 44.6206 74.4061C44.6206 75.0632 45.1352 75.5743 45.8703 75.5743C46.5319 75.5743 47.12 75.0632 47.12 74.4061C47.0465 73.6759 46.5319 73.1647 45.8703 73.1647ZM58.073 16.0641C57.4114 16.0641 56.8233 16.6483 56.8233 17.3054C56.8233 17.9626 57.3379 18.5467 58.073 18.5467C58.7346 18.5467 59.3227 17.9626 59.3227 17.3054C59.3227 16.6483 58.8081 16.0641 58.073 16.0641ZM22.5676 41.3286C22.5676 40.6714 22.053 40.0873 21.3179 40.0873C20.6563 40.0873 20.1418 40.5984 20.0683 41.3286C20.0683 41.9857 20.5828 42.5699 21.3179 42.5699C22.053 42.5699 22.5676 42.0588 22.5676 41.3286ZM50.1339 44.3223C50.1339 43.6652 49.5458 43.154 48.8842 43.154C48.2226 43.154 47.6345 43.7382 47.6345 44.3954C47.6345 45.0525 48.2226 45.5637 48.8842 45.5637C49.6193 45.5637 50.1339 44.9795 50.1339 44.3223ZM35.4319 47.2431C35.4319 47.9733 35.9464 48.5574 36.6815 48.5574C37.3431 48.5574 37.9312 47.9733 37.9312 47.3161C37.9312 46.6589 37.4166 46.0748 36.6815 46.0748C36.02 46.1478 35.4319 46.6589 35.4319 47.2431ZM21.3914 22.0516C20.7298 22.0516 20.1418 22.6358 20.1418 23.293C20.1418 23.9501 20.6563 24.5343 21.3914 24.5343C22.053 24.5343 22.6411 23.9501 22.6411 23.293C22.5676 22.6358 22.053 22.0516 21.3914 22.0516ZM38.5193 50.3829C38.5193 51.0401 39.1074 51.5512 39.769 51.5512C40.4306 51.5512 41.0186 50.967 41.0186 50.3099C41.0186 49.6527 40.4306 49.0686 39.769 49.0686C39.0339 49.1416 38.4458 49.6527 38.5193 50.3829ZM21.3179 13.0703C20.6563 13.0703 20.1418 13.5815 20.1418 14.3117C20.1418 14.9688 20.7298 15.553 21.3914 15.553C22.053 15.553 22.5676 14.9688 22.5676 14.3117C22.5676 13.5815 22.053 13.0703 21.3179 13.0703ZM22.5676 56.3704C22.5676 55.7133 22.053 55.1291 21.3179 55.1291C20.6563 55.1291 20.0683 55.6402 20.0683 56.2974C20.0683 56.9546 20.5828 57.5387 21.3179 57.5387C22.053 57.6118 22.5676 57.1006 22.5676 56.3704ZM31.7564 11.2449C31.7564 10.5877 31.2418 10.0766 30.5067 10.0766C29.8451 10.0766 29.257 10.6607 29.257 11.3179C29.257 11.9751 29.7716 12.4862 30.5067 12.4862C31.2418 12.4862 31.7564 11.902 31.7564 11.2449ZM47.7081 56.3704C47.7081 57.0276 48.2226 57.6118 48.9577 57.6118C49.6193 57.6118 50.2074 57.1006 50.2074 56.4435C50.2074 55.7863 49.6928 55.2021 48.9577 55.2021C48.2226 55.1291 47.7081 55.7133 47.7081 56.3704ZM4.19008 11.2449C4.19008 10.5877 3.67551 10.0036 2.9404 10.0036C2.27881 10.0036 1.69073 10.5147 1.69073 11.2449C1.69073 11.902 2.2053 12.4862 2.9404 12.4862C3.67551 12.4862 4.19008 11.9751 4.19008 11.2449ZM54.9856 6.49866C55.6472 6.49866 56.2352 5.98753 56.2352 5.25735C56.2352 4.60018 55.7207 4.01603 54.9856 4.01603C54.324 4.01603 53.8094 4.52716 53.8094 5.25735C53.8094 5.98753 54.324 6.49866 54.9856 6.49866ZM51.9716 6.49866C52.6332 6.49866 53.2213 5.98753 53.2213 5.25735C53.2213 4.60018 52.7067 4.01603 51.9716 4.01603C51.3101 4.01603 50.7955 4.52716 50.7955 5.25735C50.7955 5.98753 51.3101 6.49866 51.9716 6.49866ZM47.12 65.4248C47.12 64.7676 46.6054 64.1834 45.9438 64.1834C45.2822 64.1834 44.6941 64.6946 44.6941 65.4248C44.6941 66.0819 45.2087 66.593 45.9438 66.593C46.5319 66.593 47.0465 66.0819 47.12 65.4248ZM26.2431 5.25735C26.2431 5.91451 26.7577 6.49866 27.4928 6.49866C28.1544 6.49866 28.6689 5.98753 28.7424 5.25735C28.7424 4.60018 28.2279 4.01603 27.4928 4.01603C26.7577 4.08905 26.2431 4.60018 26.2431 5.25735ZM24.4054 6.49866C25.0669 6.49866 25.655 5.98753 25.655 5.25735C25.655 4.60018 25.1405 4.08905 24.4054 4.01603C23.7438 4.01603 23.1557 4.52716 23.1557 5.25735C23.2292 5.98753 23.7438 6.49866 24.4054 6.49866ZM51.9716 1.02226C51.3101 1.02226 50.722 1.60641 50.722 2.26358C50.722 2.92075 51.2365 3.43188 51.9716 3.5049C52.6332 3.5049 53.2213 2.99377 53.2213 2.26358C53.1478 1.53339 52.6332 1.02226 51.9716 1.02226ZM51.9716 22.0516C51.3101 22.0516 50.722 22.6358 50.722 23.293C50.722 23.9501 51.2365 24.5343 51.9716 24.5343C52.6332 24.5343 53.2213 24.0231 53.2213 23.293C53.2213 22.6358 52.6332 22.0516 51.9716 22.0516ZM6.02783 6.49866C6.68942 6.49866 7.20399 5.98753 7.20399 5.25735C7.20399 4.60018 6.68942 4.01603 5.95432 4.01603C5.29273 4.01603 4.77816 4.52716 4.77816 5.25735C4.85167 5.98753 5.36624 6.49866 6.02783 6.49866ZM21.3179 45.5637C21.9795 45.5637 22.5676 45.0525 22.5676 44.3223C22.5676 43.6652 22.053 43.081 21.3914 43.081C20.7298 43.081 20.1418 43.5922 20.1418 44.3223C20.1418 44.9795 20.6563 45.5637 21.3179 45.5637ZM24.4054 43.154C23.7438 43.154 23.2292 43.6652 23.1557 44.3954C23.1557 45.0525 23.7438 45.6367 24.4054 45.6367C25.0669 45.6367 25.655 45.0525 25.655 44.3954C25.655 43.6652 25.0669 43.154 24.4054 43.154ZM44.6206 44.3223C44.6206 44.9795 45.2087 45.5637 45.8703 45.5637C46.5319 45.5637 47.12 44.9795 47.12 44.3223C47.12 43.6652 46.6054 43.081 45.8703 43.081C45.2087 43.154 44.6206 43.6652 44.6206 44.3223ZM23.1557 14.2386C23.1557 14.8958 23.6703 15.48 24.3318 15.48C24.9934 15.48 25.5815 14.8958 25.5815 14.2386C25.5815 13.5815 25.0669 12.9973 24.4054 12.9973C23.7438 13.0703 23.1557 13.5815 23.1557 14.2386ZM30.5067 6.49866C31.1683 6.49866 31.7564 5.98753 31.7564 5.25735C31.7564 4.60018 31.2418 4.01603 30.5802 4.01603C29.9186 4.01603 29.3305 4.52716 29.3305 5.25735C29.3305 5.98753 29.8451 6.49866 30.5067 6.49866ZM48.8842 13.0703C48.2226 13.0703 47.7081 13.5815 47.7081 14.3117C47.7081 14.9688 48.2961 15.553 48.9577 15.553C49.6193 15.553 50.1339 14.9688 50.1339 14.3117C50.1339 13.5815 49.6193 13.0703 48.8842 13.0703ZM24.4054 22.0516C23.7438 22.0516 23.1557 22.5628 23.1557 23.293C23.1557 23.9501 23.6703 24.5343 24.3318 24.5343C24.9934 24.5343 25.5815 24.0231 25.5815 23.293C25.655 22.6358 25.0669 22.0516 24.4054 22.0516ZM18.304 70.171C17.6424 70.171 17.0543 70.7551 17.0543 71.4123C17.0543 72.0695 17.6424 72.6536 18.304 72.6536C18.9656 72.6536 19.5537 72.1425 19.5537 71.4123C19.4802 70.6821 18.9656 70.171 18.304 70.171ZM15.2166 51.5512C15.8782 51.5512 16.4663 50.967 16.4663 50.3099C16.4663 49.6527 15.8782 49.0686 15.2166 49.0686C14.555 49.0686 13.9669 49.5797 13.9669 50.3099C13.9669 51.0401 14.555 51.5512 15.2166 51.5512ZM42.7829 51.5512C43.4445 51.5512 44.0326 50.967 44.0326 50.3099C44.0326 49.6527 43.4445 49.0686 42.7829 49.0686C42.1213 49.0686 41.5332 49.6527 41.5332 50.3099C41.5332 51.0401 42.1213 51.5512 42.7829 51.5512ZM15.2166 70.171C14.555 70.171 13.9669 70.6821 13.9669 71.4123C13.9669 72.0695 14.4815 72.6536 15.1431 72.6536C15.8047 72.6536 16.3928 72.1425 16.3928 71.4123C16.4663 70.6821 15.8782 70.171 15.2166 70.171ZM42.7829 70.171C42.1213 70.171 41.5332 70.7551 41.6067 71.4123C41.6067 72.0695 42.1948 72.6536 42.8564 72.6536C43.518 72.6536 44.1061 72.1425 44.1061 71.4123C44.0326 70.6821 43.4445 70.171 42.7829 70.171ZM23.1557 2.19056C23.1557 2.84773 23.6703 3.43188 24.3318 3.43188C24.9934 3.43188 25.5815 2.92075 25.5815 2.19056C25.5815 1.46037 25.0669 1.02226 24.3318 1.02226C23.7438 1.02226 23.1557 1.53339 23.1557 2.19056ZM18.2305 51.5512C18.8921 51.5512 19.4802 50.967 19.4802 50.3099C19.4802 49.6527 18.8921 49.0686 18.2305 49.0686C17.5689 49.0686 17.0543 49.6527 17.0543 50.3099C17.0543 51.0401 17.5689 51.5512 18.2305 51.5512ZM10.953 71.4123C10.953 72.0695 11.5411 72.6536 12.2027 72.6536C12.8643 72.6536 13.4523 72.0695 13.4523 71.4123C13.4523 70.7551 12.9378 70.171 12.2027 70.171C11.4676 70.171 10.953 70.6821 10.953 71.4123ZM4.19008 29.2075C4.11657 28.6963 3.82253 28.4043 3.38146 28.1852C2.9404 28.0392 2.49934 28.1122 2.13179 28.4043C1.76424 28.6963 1.69073 29.0614 1.91126 29.5726C1.98477 29.7186 1.98477 29.8646 2.05828 30.0107C2.13179 30.1567 2.2053 30.2297 2.27881 30.3028C2.71987 30.5948 3.16093 30.5948 3.602 30.3758C4.04306 30.1567 4.26359 29.7916 4.26359 29.3535C4.19008 29.2805 4.19008 29.2075 4.19008 29.2075ZM40.7981 61.7738C40.5041 61.2627 39.916 61.0436 39.3279 61.1897C38.8133 61.4087 38.5193 61.8468 38.6663 62.431C38.6663 62.504 38.6663 62.577 38.7398 62.65C38.8133 63.2342 39.1809 63.5263 39.769 63.5263C40.6511 63.5993 41.2392 62.577 40.7981 61.7738ZM29.3305 37.9697C29.1835 38.4809 29.3305 38.992 29.7716 39.2841C29.8451 39.3571 29.9921 39.3571 30.1391 39.3571C30.3597 39.3571 30.5802 39.3571 30.8007 39.3571C30.9478 39.3571 31.0948 39.3571 31.1683 39.2841C31.6093 38.992 31.8299 38.4078 31.6829 37.9697C31.5358 37.4586 31.0948 37.0935 30.5067 37.0935C29.9921 37.0935 29.4776 37.4586 29.3305 37.9697ZM50.722 59.3642C50.722 60.0214 51.3101 60.6055 51.9716 60.6055C52.5597 60.6055 52.8538 60.3134 52.9273 59.8023C52.9273 59.5833 53.0008 59.3642 53.0008 59.1451C53.0008 58.9991 53.0008 58.78 52.9273 58.707C52.7067 58.415 52.3392 58.1959 51.8981 58.1959C51.3101 58.1229 50.722 58.707 50.722 59.3642ZM23.1557 47.3161C23.1557 47.9733 23.7438 48.5574 24.4054 48.5574C24.9199 48.5574 25.1405 48.3384 25.2875 47.9003C25.361 47.6812 25.361 47.4622 25.4345 47.3161C25.5815 46.951 25.4345 46.6589 25.1405 46.4399C24.9199 46.2938 24.6259 46.2208 24.4054 46.0748C23.7438 46.1478 23.2292 46.6589 23.1557 47.3161ZM21.465 63.5993C21.906 63.5993 22.1265 63.3802 22.2001 62.9421C22.2736 62.65 22.2736 62.2849 22.3471 61.9929C22.4206 61.7738 22.3471 61.6278 22.2001 61.4817C21.8325 61.1166 21.1709 60.9706 20.7299 61.2627C20.2153 61.5548 19.9947 62.1389 20.1418 62.65C20.2888 63.1612 20.7298 63.5263 21.3179 63.5263C21.3914 63.5993 21.3914 63.5993 21.465 63.5993ZM58.8816 30.0107C58.9551 29.6456 59.1021 29.3535 59.1756 28.9884C59.1756 28.8424 59.1756 28.6963 59.1021 28.5503C58.8081 28.1122 58.1465 27.9662 57.6319 28.1852C57.1174 28.4043 56.8233 28.9884 56.9703 29.5726C57.1174 30.1567 57.5584 30.5218 58.1465 30.5218C58.5876 30.5218 58.7346 30.4488 58.8816 30.0107ZM34.6968 1.67943C34.6233 1.38736 34.4027 1.24132 34.0352 1.31434C33.6676 1.38736 33.2266 1.46037 32.7855 1.46037C32.565 1.46037 32.418 1.60641 32.3444 1.75245C32.1974 2.26358 32.2709 2.70169 32.6385 3.06679C33.006 3.43188 33.5206 3.5049 33.9617 3.28584C34.4027 3.06679 34.6968 2.70169 34.6968 2.11754C34.7703 2.04452 34.7703 1.82547 34.6968 1.67943ZM28.3014 1.53339C27.7868 1.46037 27.3458 1.38736 26.8312 1.38736C26.6842 1.38736 26.5371 1.46037 26.4636 1.53339C26.0961 1.9715 26.0961 2.55565 26.3901 2.99377C26.6842 3.43188 27.2722 3.65093 27.7868 3.43188C28.3014 3.21282 28.6689 2.77471 28.6689 2.19056C28.6689 1.75245 28.5219 1.53339 28.3014 1.53339ZM10.2914 62.7231C10.4384 62.2119 10.2914 61.7008 9.85035 61.4087C9.40929 61.1166 8.82121 61.1166 8.45366 61.4087C8.30664 61.4817 8.23313 61.6278 8.23313 61.8468C8.30664 62.2849 8.38015 62.7231 8.45366 63.0882C8.52717 63.5263 8.60068 63.5993 9.11525 63.5993C9.62982 63.5993 10.1444 63.2342 10.2914 62.7231ZM5.29273 37.3856C5.0722 37.5316 4.99869 37.6776 5.14571 37.8967C5.29273 38.3348 5.43975 38.7729 5.51326 39.211C5.51326 39.4301 5.66028 39.5031 5.88081 39.5031C6.61591 39.5761 7.20399 39.065 7.2775 38.3348C7.35101 37.6046 6.76293 37.0935 6.02783 37.0205C5.73379 37.1665 5.51326 37.2395 5.29273 37.3856ZM40.8716 65.8629C41.0921 65.4248 40.9451 64.9136 40.5776 64.5485C40.21 64.1834 39.6955 64.1104 39.2544 64.3295C39.1074 64.4025 38.9604 64.4755 39.0339 64.6946C39.1809 65.2057 39.2544 65.7898 39.3279 66.301C39.4014 66.593 39.4749 66.6661 39.6955 66.6661C40.2835 66.593 40.6511 66.301 40.8716 65.8629ZM55.0591 39.5031C55.1326 39.5031 55.2796 39.4301 55.3531 39.2841C55.5736 38.6999 55.7207 38.1158 55.8677 37.6046C55.9412 37.4586 55.8677 37.3856 55.7207 37.2395C55.2796 37.0205 54.912 36.9475 54.471 37.1665C54.0299 37.3856 53.8094 37.7507 53.8094 38.1158C53.8094 38.992 54.3975 39.5761 55.0591 39.5031ZM12.7172 73.3108C12.2762 73.0917 11.8351 73.0917 11.4676 73.3838C11.3206 73.4568 11.247 73.6028 11.3206 73.7489C11.5411 74.333 11.7616 74.8442 11.9821 75.4283C12.0557 75.5743 12.1292 75.6474 12.2762 75.6474C12.8643 75.5743 13.3788 75.0632 13.3788 74.4061C13.3788 73.8949 13.1583 73.5298 12.7172 73.3108ZM52.3392 63.2342C52.4127 62.65 52.5597 62.1389 52.6332 61.5548C52.7067 61.4087 52.6332 61.3357 52.4862 61.2627C52.0452 61.0436 51.5306 61.1166 51.163 61.4817C50.7955 61.8468 50.6485 62.358 50.7955 62.8691C50.9425 63.3072 51.3836 63.6723 51.9716 63.6723C52.1922 63.5993 52.2657 63.5263 52.3392 63.2342ZM31.1683 1.75245C30.6537 1.82547 30.1391 1.82547 29.6246 1.75245C29.404 1.67943 29.3305 1.75245 29.257 1.9715C29.1835 2.48264 29.257 2.84773 29.6981 3.21282C30.0656 3.5049 30.5802 3.57792 31.0213 3.35886C31.4623 3.1398 31.6829 2.77471 31.6829 2.26358C31.7564 1.75245 31.6829 1.67943 31.1683 1.75245ZM33.5941 42.3508C33.6676 42.5699 33.8146 42.5699 33.9617 42.4969C34.4762 42.3508 34.7703 41.8397 34.7703 41.3286C34.7703 40.8174 34.4027 40.3793 33.9617 40.1603C33.4471 40.0142 32.9325 40.1603 32.6385 40.5984C33.006 41.2556 33.3001 41.7667 33.5941 42.3508ZM43.1504 76.3045C42.6359 76.1585 42.1213 76.3045 41.8273 76.7426C41.7537 76.8157 41.7537 77.0347 41.8273 77.1077C42.1948 77.5459 42.4888 77.9109 42.9299 78.276C43.4445 78.7141 43.7385 78.5681 43.959 77.984C44.0326 77.8379 44.0326 77.6919 44.0326 77.5459C44.0326 76.8887 43.665 76.4506 43.1504 76.3045ZM36.167 49.2146C36.02 49.2876 35.9464 49.3606 36.02 49.5067C36.167 50.0908 36.314 50.748 36.461 51.3321C36.461 51.4782 36.5345 51.5512 36.7551 51.5512C37.4166 51.5512 37.9312 50.967 37.9312 50.3099C37.8577 49.4337 36.9756 48.8495 36.167 49.2146ZM21.3179 66.593C21.465 66.593 21.612 66.52 21.612 66.374C21.6855 65.7898 21.8325 65.1327 21.906 64.5485C21.9795 64.3295 21.8325 64.2565 21.6855 64.1834C20.8769 63.9644 20.1418 64.4755 20.1418 65.2787C20.1418 66.0089 20.6563 66.593 21.3179 66.593ZM48.5902 75.5743C48.7372 75.5743 48.8107 75.5743 48.8842 75.4283C49.1048 74.8442 49.3253 74.26 49.5458 73.6759C49.6193 73.5298 49.5458 73.4568 49.3988 73.3838C48.5902 72.9457 47.561 73.5298 47.561 74.4791C47.7081 74.9902 48.0756 75.4283 48.5902 75.5743ZM17.4954 78.3491C17.5689 78.4221 17.7159 78.4221 17.7894 78.3491C18.3775 78.057 18.8186 77.5459 19.1861 76.9617C19.2596 76.8157 19.2596 76.6696 19.1126 76.5236C18.7451 76.2315 18.2305 76.0855 17.7894 76.3045C17.3484 76.5236 17.1279 76.8887 17.0543 77.3268C17.0543 77.7649 17.2014 78.13 17.4954 78.3491ZM27.0517 40.2333C26.6107 40.3793 26.3166 40.8175 26.3166 41.2556C26.3166 41.7667 26.5371 42.2048 26.9782 42.4239C27.1252 42.4969 27.1987 42.4969 27.2722 42.3508C27.6398 41.6937 28.0073 41.1095 28.3749 40.4524C28.0073 40.1603 27.4928 40.0142 27.0517 40.2333ZM24.9199 49.2146C24.4054 48.9955 23.8908 49.0686 23.5967 49.3606C23.2292 49.7257 23.0822 50.1638 23.2292 50.675C23.3762 51.1861 23.8173 51.4782 24.4054 51.4782C24.6259 50.748 24.7729 50.0178 24.9199 49.2146ZM3.89604 6.06055C4.3371 5.4764 4.26359 4.6732 3.67551 4.3081C3.52849 4.23508 3.45497 4.16207 3.30795 4.3081C2.9404 4.89225 2.49934 5.4764 2.13179 6.13357C2.71987 6.6447 3.52849 6.57168 3.89604 6.06055ZM5.0722 2.55565C4.85167 2.70169 4.92518 2.77471 5.0722 2.99377C5.51326 3.5049 6.32187 3.57792 6.83644 3.1398C7.42452 2.70169 7.42452 1.89849 6.90995 1.31434C6.24836 1.75245 5.66028 2.19056 5.0722 2.55565ZM53.8829 2.70169C54.1034 3.1398 54.471 3.43188 54.9856 3.43188C55.5001 3.43188 55.8677 3.21282 56.0882 2.77471C55.4266 2.3366 54.765 1.89849 54.1034 1.38736C53.7359 1.82547 53.7359 2.26358 53.8829 2.70169ZM10.2914 65.7898C10.4384 65.3517 10.3649 64.9136 9.99737 64.5485C9.62982 64.1834 9.26227 64.1104 8.7477 64.2565C8.89472 65.0597 9.11525 65.7898 9.26227 66.593C9.77684 66.52 10.1444 66.228 10.2914 65.7898ZM57.5584 4.16207C56.8233 4.60018 56.6763 5.33036 57.0438 5.91451C57.4114 6.49866 58.22 6.6447 58.8081 6.13357C58.4405 5.54942 57.9995 4.89225 57.5584 4.16207ZM4.11657 31.8361C3.82253 31.179 3.08742 30.9599 2.42583 31.252C2.71987 31.9822 3.01391 32.7124 3.30795 33.5156C4.04306 33.2235 4.41061 32.4933 4.11657 31.8361ZM6.24836 42.4969C6.98346 42.4239 7.42452 41.6937 7.20399 41.0365C7.05697 40.3793 6.32187 40.0142 5.73379 40.1603C5.95432 40.9635 6.10134 41.7667 6.24836 42.4969ZM40.8716 68.1264C40.7246 67.4693 40.063 67.1042 39.4749 67.2502C39.6219 68.0534 39.769 68.7836 39.916 69.5868C40.6511 69.4408 41.0921 68.7836 40.8716 68.1264ZM0 18.4737C0.661591 18.4007 1.10265 17.9626 1.10265 17.3054C1.17616 16.6483 0.735101 16.2101 0 16.0641C0 16.8673 0 17.6705 0 18.4737ZM1.10265 14.2386C1.10265 13.5815 0.588081 13.0703 0 13.1434C0 13.9466 0 14.6768 0 15.48C0.661591 15.4069 1.17616 14.8958 1.10265 14.2386ZM56.9703 31.9092C56.7498 32.4933 57.0438 33.1505 57.6319 33.3695C57.926 32.6394 58.22 31.9092 58.514 31.179C57.7789 30.9599 57.1174 31.325 56.9703 31.9092ZM52.1187 64.2565C51.5306 64.1104 50.9425 64.5485 50.7955 65.1327C50.6485 65.7898 50.9425 66.374 51.6776 66.593C51.8246 65.7898 51.9716 64.9866 52.1187 64.2565ZM21.3914 67.4693C21.3914 67.3963 21.3914 67.3232 21.3914 67.1772C20.8034 67.1042 20.2153 67.4693 20.1418 68.0534C19.9947 68.7106 20.2888 69.2947 20.9504 69.5138C21.1709 68.8566 21.2444 68.1264 21.3914 67.4693ZM54.8385 41.3286C54.912 40.9635 54.9856 40.5984 55.0591 40.1603C54.471 40.0873 53.9564 40.5254 53.8094 41.1095C53.6624 41.6937 53.9564 42.2778 54.5445 42.4969C54.6915 42.0588 54.765 41.6937 54.8385 41.3286ZM37.8577 53.1576C37.7107 52.5735 37.2696 52.2084 36.608 52.2084C36.7551 52.9386 36.9021 53.7418 37.1226 54.545C37.7107 54.2529 38.0047 53.6687 37.8577 53.1576ZM1.10265 20.0801C1.02914 19.569 0.588081 19.1309 0.0735101 19.0579C0.0735101 19.1309 0.0735101 19.2039 0.0735101 19.2039C0.14702 19.9341 0.22053 20.5913 0.22053 21.3215C0.882121 21.2484 1.17616 20.7373 1.10265 20.0801ZM59.9107 17.1594C59.8372 17.7435 60.2783 18.3277 60.8664 18.4007C60.8664 17.6705 60.8664 16.8673 60.8664 16.1371C60.4253 16.1371 59.9842 16.6483 59.9107 17.1594ZM60.8664 13.1434C60.3518 13.2164 59.9842 13.6545 59.9842 14.1656C59.9842 14.8228 60.2783 15.2609 60.8664 15.4069C60.8664 14.6768 60.8664 13.8736 60.8664 13.1434ZM0 12.4862C0.588081 12.4132 0.955631 12.0481 1.10265 11.537C1.24967 10.9528 1.02914 10.4417 0.514571 10.2226C0.367551 10.9528 0.22053 11.683 0 12.4862ZM24.0378 53.3036C24.1113 52.9386 24.1848 52.5735 24.2583 52.2084C23.7438 52.2814 23.3027 52.6465 23.2292 53.0846C23.0822 53.5957 23.3027 54.1069 23.8173 54.3989C23.8908 54.0338 23.9643 53.6687 24.0378 53.3036ZM60.7929 20.2262C60.7929 19.8611 60.8664 19.496 60.8664 19.1309C60.2783 19.2769 59.9842 19.715 59.9842 20.2992C59.9842 20.8103 60.2783 21.2484 60.7193 21.3945C60.7193 20.9564 60.7193 20.5913 60.7929 20.2262ZM7.20399 44.1033C7.13048 43.6652 6.76293 43.3001 6.32187 43.2271C6.39538 43.9573 6.5424 44.6874 6.61591 45.4176C7.13048 45.0525 7.35101 44.6144 7.20399 44.1033ZM60.4253 10.2956C60.0578 10.6607 59.8372 11.0258 59.9107 11.4639C59.9842 11.902 60.2783 12.2671 60.7929 12.4132C60.7193 11.683 60.5723 11.0258 60.4253 10.2956ZM9.92386 69.2947C10.659 68.5646 10.3649 67.4693 9.40929 67.2502C9.55631 67.9074 9.70333 68.5646 9.92386 69.2947ZM40.5041 72.3615C40.8716 71.9964 41.0186 71.5583 40.8716 71.0472C40.7246 70.6091 40.5041 70.39 40.063 70.244C40.21 70.9742 40.357 71.6313 40.5041 72.3615ZM0.661591 24.2422C1.39669 23.6581 1.24967 22.6358 0.367551 22.1977C0.441061 22.8549 0.588081 23.512 0.661591 24.2422ZM54.1769 45.1986V45.1256C54.2505 44.5414 54.324 43.9573 54.3975 43.3001C53.7359 43.6652 53.5889 44.7605 54.1769 45.1986ZM20.5093 72.2155C20.6563 71.5583 20.8034 70.9742 20.8769 70.317C20.0683 70.6821 19.9212 71.5583 20.5093 72.2155ZM13.2318 77.8379C13.5994 77.1077 13.0848 76.3045 12.2762 76.2315C12.6437 76.8157 12.9378 77.3268 13.2318 77.8379ZM60.5723 22.2707C59.9107 22.7088 59.7637 23.585 60.2783 24.0962C60.3518 23.439 60.4253 22.8549 60.5723 22.2707ZM12.3497 0.438112C12.6437 0.365093 12.8643 0.292075 13.0848 0C12.4967 0 11.9086 0 11.247 0C11.5411 0.365093 11.9086 0.511131 12.3497 0.438112ZM6.83644 48.1923C7.42452 47.6082 7.35101 46.805 6.68942 46.2939C6.76293 47.024 6.83644 47.6082 6.83644 48.1923ZM14.3345 0C14.849 0.58415 15.7312 0.58415 16.1722 0C15.5106 0 14.9226 0 14.3345 0ZM46.7524 0C46.1643 0 45.5763 0 44.9147 0C45.5028 0.58415 46.3849 0.58415 46.7524 0ZM49.7663 0C49.1783 0 48.5902 0 47.9286 0C48.4432 0.58415 49.3988 0.58415 49.7663 0ZM51.016 69.0757C51.163 68.4915 51.3101 67.9074 51.4571 67.3232C50.722 67.6153 50.5014 68.4915 51.016 69.0757ZM34.6968 44.9065C35.0643 44.2493 34.7703 43.5191 34.0352 43.2271C34.2557 43.8112 34.4762 44.3223 34.6968 44.9065ZM37.6372 57.0276C38.0782 56.5895 37.9312 55.7133 37.2696 55.3482C37.4166 55.9323 37.4902 56.4435 37.6372 57.0276ZM6.90995 49.5067C6.90995 50.0178 6.90995 50.5289 6.90995 51.1131C7.35101 50.602 7.35101 49.8718 6.90995 49.5067ZM47.7816 77.7649C48.0756 77.2538 48.2961 76.8157 48.5902 76.3045C47.9286 76.4506 47.561 77.1077 47.7816 77.7649ZM42.1948 0.292075C42.6359 0.58415 43.1504 0.511131 43.518 0.146037C43.0769 0.146037 42.6359 0.219056 42.1948 0.292075ZM26.8312 43.3731C26.3901 43.6652 26.1696 44.1033 26.3166 44.6874C26.4636 44.1763 26.6107 43.8112 26.8312 43.3731ZM18.8186 0.292075C18.3775 0.219056 17.9365 0.219056 17.4954 0.146037C17.9365 0.511131 18.451 0.511131 18.8186 0.292075ZM23.5967 55.4942C23.1557 55.8593 23.0822 56.3704 23.3762 56.8085C23.3762 56.4435 23.5232 56.0053 23.5967 55.4942ZM54.0299 47.9003C54.0299 47.4622 54.1034 47.0971 54.1034 46.6589C53.7359 47.024 53.7359 47.6082 54.0299 47.9003ZM7.05697 53.8878C7.2775 53.4497 7.2775 53.0846 6.90995 52.7195C6.98346 53.0846 7.05697 53.5227 7.05697 53.8878ZM3.74902 34.3918C3.89604 34.6839 4.04306 34.976 4.19008 35.268C4.19008 34.8299 4.04306 34.6109 3.74902 34.3918ZM53.9564 50.821C53.9564 50.5289 53.9564 50.2369 53.9564 49.8718H53.8829C53.8829 50.1638 53.8829 50.4559 53.8829 50.821C53.8829 50.821 53.8829 50.821 53.9564 50.821Z" fill="white"/>
<path d="M75.7888 44.0305V33.7348H78.8027C82.1107 27.8933 82.8458 20.2264 82.8458 13.1436H100.194V33.7348H103.429V44.0305H98.577V38.5541H80.567V44.0305H75.7888ZM84.61 33.7348H94.7544V18.0358H87.9915C87.6239 23.6582 86.8153 29.5728 84.61 33.7348Z" fill="white"/>
<path d="M104.678 38.481L115.117 13.1436H120.997L131.436 38.5541H125.776L123.938 33.8078H112.25L110.339 38.5541H104.678V38.481ZM113.941 29.2807H122.174L118.572 20.1534C118.425 19.6422 118.204 19.1311 118.057 18.1818C117.91 19.1311 117.69 19.6422 117.469 20.1534L113.941 29.2807Z" fill="white"/>
<path d="M151.21 38.4809V25.4106C151.21 24.2423 151.21 23.001 151.284 21.9057L139.375 38.4809H134.229V13.1434H139.743V26.2138C139.743 27.3821 139.743 28.6234 139.669 29.7187L151.578 13.1434H156.723V38.5539H151.21V38.4809ZM151.21 9.71156V5.76855C149.299 6.93685 147.461 7.30195 145.476 7.30195C143.492 7.30195 141.727 6.93685 139.816 5.76855V9.71156C141.433 10.8068 143.124 11.318 145.476 11.318C147.829 11.318 149.593 10.8068 151.21 9.71156Z" fill="white"/>
<path d="M189.803 13.1436V38.5541H184.29V22.855L177.527 33.0777H174.366L167.603 22.855V38.5541H162.09V13.1436H167.162L175.91 26.3599L184.731 13.1436H189.803Z" fill="white"/>
<path d="M207.445 12.6318C216.487 12.6318 221.045 18.9114 221.045 25.8482C221.045 32.785 216.487 39.0646 207.445 39.0646C198.404 39.0646 193.846 32.785 193.846 25.8482C193.846 18.9114 198.404 12.6318 207.445 12.6318ZM207.445 17.6701C202.079 17.6701 199.433 21.3941 199.433 25.8482C199.433 30.3024 202.079 34.0263 207.445 34.0263C212.738 34.0263 215.384 30.3024 215.384 25.8482C215.384 21.3941 212.738 17.6701 207.445 17.6701Z" fill="white"/>
<path d="M247.509 13.1436V38.5541H241.995V28.3314H230.528V38.5541H225.014V13.1436H230.528V23.3662H241.995V13.1436H247.509Z" fill="white"/>
<path d="M251.037 44.0305V33.7348H254.051C257.359 27.8933 258.094 20.2264 258.094 13.1436H275.442V33.7348H278.677V44.0305H273.825V38.5541H255.815V44.0305H251.037ZM259.858 33.7348H270.002V18.0358H263.166C262.798 23.6582 261.99 29.5728 259.858 33.7348Z" fill="white"/>
<path d="M80.1994 52.5742C81.0815 52.5742 81.9637 52.7933 82.6253 53.1584V54.7648C82.0372 54.3267 81.2286 54.1076 80.42 54.1076C79.0233 54.1076 77.6266 54.8378 77.6266 56.6633C77.6266 58.4157 79.0233 59.2189 80.42 59.2189C81.2286 59.2189 82.1107 58.9999 82.6988 58.6348V60.2412C81.9637 60.6063 81.0815 60.7523 80.0524 60.7523C77.9206 60.7523 75.7888 59.511 75.7888 56.6633C75.7888 53.8155 78.0676 52.5742 80.1994 52.5742Z" fill="white"/>
<path d="M86.3742 60.6057V54.2531H83.6543V52.7197H90.8583V54.2531H88.1384V60.6057H86.3742Z" fill="white"/>
<path d="M95.7836 52.5742C97.9889 52.5742 100.047 54.0346 100.047 56.7363C100.047 59.438 97.9889 60.8984 95.7836 60.8984C93.5783 60.8984 91.52 59.438 91.52 56.7363C91.52 53.9616 93.5783 52.5742 95.7836 52.5742ZM95.7836 54.1806C94.3134 54.1806 93.2843 55.2029 93.2843 56.7363C93.2843 58.2697 94.3134 59.2919 95.7836 59.2919C97.2538 59.2919 98.2829 58.2697 98.2829 56.7363C98.2829 55.1299 97.2538 54.1806 95.7836 54.1806Z" fill="white"/>
<path d="M101.812 60.606V52.793H103.576L106.296 56.955L109.016 52.793H110.78V60.606H109.089V55.2756L106.81 58.7075H105.781L103.576 55.2756V60.606H101.812Z" fill="white"/>
<path d="M120.336 59.3647C120.483 59.3647 120.703 59.2917 120.85 59.2917V60.533C120.556 60.6791 120.115 60.7521 119.748 60.7521C119.013 60.7521 118.425 60.46 118.131 59.8028C117.322 60.46 116.366 60.8251 115.117 60.8251C113.646 60.8251 112.323 60.0219 112.323 58.4155C112.323 56.371 114.235 55.7868 115.852 55.7868C116.513 55.7868 117.322 55.8598 117.91 56.0059V55.7138C117.91 54.7646 117.175 54.0344 115.852 54.0344C114.676 54.0344 113.72 54.3264 112.985 54.6185V53.0121C113.646 52.793 114.749 52.501 115.999 52.501C118.278 52.501 119.674 53.5963 119.674 55.9329V58.7806C119.748 59.2187 119.968 59.3647 120.336 59.3647ZM114.161 58.3425C114.161 59.1457 114.823 59.5108 115.631 59.5108C116.44 59.5108 117.322 59.2187 117.91 58.5615V57.2472C117.395 57.1742 116.734 57.0281 116.219 57.0281C115.264 57.0281 114.161 57.3202 114.161 58.3425Z" fill="white"/>
<path d="M123.717 60.6057V54.2531H120.998V52.7197H128.202V54.2531H125.482V60.6057H123.717Z" fill="white"/>
<path d="M133.2 52.5742C135.405 52.5742 137.464 54.0346 137.464 56.7363C137.464 59.438 135.405 60.8984 133.2 60.8984C130.995 60.8984 128.937 59.438 128.937 56.7363C128.937 53.9616 130.995 52.5742 133.2 52.5742ZM133.2 54.1806C131.73 54.1806 130.701 55.2029 130.701 56.7363C130.701 58.2697 131.73 59.2919 133.2 59.2919C134.67 59.2919 135.699 58.2697 135.699 56.7363C135.699 55.1299 134.67 54.1806 133.2 54.1806Z" fill="white"/>
<path d="M139.228 60.7518C138.934 60.7518 138.567 60.6788 138.125 60.5327V59.1454C138.273 59.2184 138.493 59.2184 138.64 59.2184C139.963 59.2184 140.331 56.5897 140.478 52.7197H146.579V60.6057H144.815V54.2531H142.169C141.948 58.0501 141.36 60.7518 139.228 60.7518Z" fill="white"/>
<path d="M152.607 52.5742C154.812 52.5742 156.87 54.0346 156.87 56.7363C156.87 59.438 154.812 60.8984 152.607 60.8984C150.402 60.8984 148.343 59.438 148.343 56.7363C148.343 53.9616 150.402 52.5742 152.607 52.5742ZM152.607 54.1806C151.137 54.1806 150.107 55.2029 150.107 56.7363C150.107 58.2697 151.137 59.2919 152.607 59.2919C154.077 59.2919 155.106 58.2697 155.106 56.7363C155.106 55.1299 154.077 54.1806 152.607 54.1806Z" fill="white"/>
<path d="M158.635 60.606V52.793H164.516V54.3264H160.399V60.606H158.635Z" fill="white"/>
<path d="M165.912 60.606V52.793H167.676V57.9043L171.94 52.793H173.484V60.606H171.719V55.4947L167.456 60.606H165.912Z" fill="white"/>
<path d="M180.394 60.6057V57.9771C179.732 58.1961 179.071 58.3422 178.188 58.3422C176.424 58.3422 175.101 57.4659 175.101 55.4944V52.7197H176.865V55.3484C176.865 56.5167 177.6 56.8088 178.703 56.8088C179.365 56.8088 179.879 56.7358 180.394 56.5167V52.7197H182.158V60.6057H180.394Z" fill="white"/>
<path d="M187.892 52.5742C191.053 52.5742 192.155 55.1299 191.641 57.3935H185.686C185.907 58.7808 187.304 59.365 188.7 59.365C189.656 59.365 190.538 59.1459 191.2 58.7808V60.3142C190.465 60.6793 189.435 60.8253 188.333 60.8253C185.907 60.8253 183.849 59.438 183.849 56.6633C183.922 53.8155 186.054 52.5742 187.892 52.5742ZM187.965 54.0346C186.789 54.0346 185.686 54.7648 185.613 56.0791H190.023C190.17 55.3489 189.729 54.0346 187.965 54.0346Z" fill="white"/>
<path d="M197.301 52.5742C198.183 52.5742 199.065 52.7933 199.727 53.1584V54.7648C199.139 54.3267 198.33 54.1076 197.522 54.1076C196.125 54.1076 194.728 54.8378 194.728 56.6633C194.728 58.4157 196.125 59.2189 197.522 59.2189C198.33 59.2189 199.212 58.9999 199.8 58.6348V60.2412C199.065 60.6063 198.183 60.7523 197.154 60.7523C195.022 60.7523 192.89 59.511 192.89 56.6633C192.89 53.8155 195.169 52.5742 197.301 52.5742Z" fill="white"/>
<path d="M201.565 60.606V52.793H203.329V55.9328H204.652L206.931 52.793H208.916L206.049 56.663L209.21 60.606H207.151L204.579 57.3201H203.329V60.606H201.565Z" fill="white"/>
<path d="M210.386 60.606V52.793H212.15V57.9043L216.414 52.793H217.957V60.606H216.12V55.4947L211.856 60.606H210.386Z" fill="white"/>
<path d="M220.089 60.6059V52.7929H221.853V57.9042L226.117 52.7929H227.661V60.6059H225.896V55.4946L221.633 60.6059H220.089ZM223.912 51.6976C223.03 51.6976 222.221 51.5516 221.486 51.0405V49.5801C222.294 50.0912 223.103 50.2372 223.912 50.2372C224.72 50.2372 225.455 50.0912 226.337 49.5801V51.0405C225.529 51.4786 224.794 51.6976 223.912 51.6976Z" fill="white"/>
<path d="M240.598 62.7235V60.606H233.762V52.793H235.526V59.1456H239.275V52.793H241.039V59.1456H242.216V62.7965H240.598V62.7235Z" fill="white"/>
<path d="M247.214 52.5742C250.375 52.5742 251.478 55.1299 250.963 57.3935H245.009C245.23 58.7808 246.626 59.365 248.023 59.365C248.979 59.365 249.861 59.1459 250.522 58.7808V60.3142C249.787 60.6793 248.758 60.8253 247.656 60.8253C245.23 60.8253 243.171 59.438 243.171 56.6633C243.171 53.8155 245.377 52.5742 247.214 52.5742ZM247.288 54.0346C246.112 54.0346 245.009 54.7648 244.936 56.0791H249.346C249.42 55.3489 248.979 54.0346 247.288 54.0346Z" fill="white"/>
<path d="M252.654 60.606V52.793H254.418V55.9328H258.388V52.793H260.152V60.606H258.388V57.4662H254.418V60.606H252.654Z" fill="white"/>
<path d="M264.269 60.6057V54.2531H261.549V52.7197H268.753V54.2531H266.033V60.6057H264.269Z" fill="white"/>
<path d="M274.781 52.5742C277.133 52.5742 278.677 54.4727 278.677 56.7363C278.677 58.9999 277.133 60.8984 274.781 60.8984C273.384 60.8984 272.502 60.3142 271.914 59.657V64.2572H270.15V52.7933H271.693V54.0346C272.355 53.2314 273.311 52.5742 274.781 52.5742ZM274.487 54.1076C273.237 54.1076 272.355 54.9108 271.987 55.714V57.6125C272.355 58.4887 273.311 59.2919 274.487 59.2919C275.957 59.2919 276.913 58.1967 276.913 56.6633C276.913 55.1299 275.883 54.1076 274.487 54.1076Z" fill="white"/>
</svg>
