<svg width="168" height="50" viewBox="0 0 168 50" fill="none" xmlns="http://www.w3.org/2000/svg">
<g clip-path="url(#clip0_2885_2617)">
<path d="M8.0273 27.0043C8.0273 27.405 7.71856 27.7612 7.2775 27.7612C6.88055 27.7612 6.5277 27.4495 6.5277 27.0043C6.5277 26.6036 6.88055 26.2474 7.2775 26.2474C7.71856 26.2919 8.0273 26.6036 8.0273 27.0043ZM8.38015 27.0043C8.38015 27.405 8.6889 27.7612 9.12996 27.7612C9.52691 27.7612 9.87976 27.4495 9.87976 27.0488C9.87976 26.6481 9.57102 26.2919 9.12996 26.2919C8.733 26.2919 8.38015 26.6036 8.38015 27.0043ZM23.8173 26.2919C23.4203 26.2919 23.0675 26.6036 23.0675 27.0488C23.0675 27.4495 23.3762 27.8057 23.7732 27.8057C24.1701 27.8057 24.523 27.4495 24.523 27.0488C24.5671 26.6036 24.2583 26.2919 23.8173 26.2919ZM25.6697 26.2919C25.2728 26.2919 24.9199 26.6481 24.9199 27.0488C24.9199 27.4495 25.2728 27.8057 25.6697 27.8057C26.0667 27.8057 26.4195 27.4495 26.4195 27.0488C26.3754 26.6036 26.0667 26.2919 25.6697 26.2919ZM10.9383 26.2919C10.5413 26.2919 10.1885 26.6481 10.1885 27.0488C10.1885 27.4495 10.5413 27.8057 10.9383 27.8057C11.3353 27.8057 11.6881 27.4495 11.644 27.0488C11.6881 26.6036 11.3794 26.2919 10.9383 26.2919ZM5.46915 27.7612C5.86611 27.7612 6.21896 27.4495 6.21896 27.0488C6.21896 26.6481 5.91021 26.2919 5.46915 26.2919C5.0722 26.2919 4.71935 26.6036 4.71935 27.0043C4.71935 27.405 5.02809 27.7612 5.46915 27.7612ZM22.0089 27.7612C22.4059 27.7612 22.7587 27.4495 22.7587 27.0488C22.7587 26.6481 22.45 26.2919 22.0089 26.2919C21.612 26.2919 21.2591 26.6036 21.2591 27.0043C21.2591 27.405 21.5679 27.7612 22.0089 27.7612ZM11.6881 34.3507C11.6881 33.95 11.3794 33.5938 10.9383 33.5938C10.5413 33.5938 10.1885 33.95 10.1885 34.3507C10.1885 34.7514 10.4972 35.0631 10.9383 35.0631C11.3794 35.1076 11.6881 34.7514 11.6881 34.3507ZM20.1565 13.4246C19.7595 13.4246 19.4067 13.7808 19.4067 14.1815C19.4067 14.5822 19.7595 14.9384 20.1565 14.9384C20.5534 14.9384 20.9063 14.6267 20.9063 14.1815C20.9063 13.7808 20.5534 13.4246 20.1565 13.4246ZM22.7146 14.1815C22.7146 13.7808 22.4059 13.4246 22.0089 13.4246C21.612 13.4246 21.2591 13.7363 21.2591 14.137C21.2591 14.5377 21.5679 14.8939 22.0089 14.8939C22.4059 14.9384 22.7146 14.5822 22.7146 14.1815ZM24.5671 34.3507C24.5671 33.95 24.2583 33.5938 23.8173 33.5938C23.4203 33.5938 23.0675 33.9055 23.0675 34.3062C23.0675 34.7069 23.3762 35.0631 23.8173 35.0631C24.2142 35.1076 24.5671 34.7959 24.5671 34.3507ZM25.6697 33.5938C25.2728 33.5938 24.9199 33.95 24.9199 34.3507C24.9199 34.7514 25.2287 35.1076 25.6697 35.1076C26.0667 35.1076 26.4195 34.7959 26.4195 34.3507C26.4195 33.95 26.0667 33.5938 25.6697 33.5938ZM30.0803 43.478C30.0803 43.0773 29.7716 42.7657 29.3305 42.7657C28.9336 42.7657 28.5807 43.1219 28.5807 43.5226C28.5807 43.9233 28.9336 44.2795 29.3305 44.2349C29.7716 44.2349 30.0803 43.9233 30.0803 43.478ZM27.5222 42.7657C27.1252 42.7657 26.7724 43.0773 26.7724 43.5226C26.7724 43.9233 27.0811 44.2795 27.5222 44.2795C27.9191 44.2795 28.272 43.9233 28.272 43.5226C28.272 43.1219 27.9191 42.7657 27.5222 42.7657ZM7.2775 33.5938C6.88055 33.5938 6.5277 33.95 6.5277 34.3507C6.5277 34.7514 6.83644 35.1076 7.2775 35.1076C7.67446 35.1076 8.0273 34.7959 8.0273 34.3507C8.0273 33.95 7.71856 33.5938 7.2775 33.5938ZM9.12996 33.5938C8.733 33.5938 8.38015 33.95 8.38015 34.3507C8.38015 34.7514 8.6889 35.1076 9.12996 35.1076C9.52691 35.1076 9.87976 34.7959 9.87976 34.3507C9.87976 33.95 9.52691 33.5938 9.12996 33.5938ZM7.2775 13.4246C6.88055 13.4246 6.5277 13.7808 6.5277 14.1815C6.5277 14.5822 6.83644 14.9384 7.23339 14.9384C7.63035 14.9384 7.9832 14.6267 7.9832 14.1815C8.0273 13.7808 7.71856 13.4246 7.2775 13.4246ZM34.1381 14.1815C34.1381 14.5822 34.4909 14.8939 34.8879 14.8939C35.2849 14.8939 35.6377 14.5377 35.6377 14.137C35.6377 13.7363 35.2849 13.4246 34.8879 13.4246C34.4468 13.4246 34.1381 13.7808 34.1381 14.1815ZM6.21896 14.1815C6.21896 13.7808 5.91021 13.4246 5.51326 13.4246C5.1163 13.4246 4.76345 13.7363 4.76345 14.1815C4.76345 14.5822 5.0722 14.9384 5.51326 14.9384C5.86611 14.9384 6.17485 14.5822 6.21896 14.1815ZM31.183 18.5893C31.5799 18.5893 31.8887 18.2777 31.8887 17.8324C31.8887 17.4317 31.5799 17.0755 31.1389 17.0755C30.7419 17.0755 30.4332 17.3872 30.4332 17.8324C30.4773 18.2777 30.786 18.5893 31.183 18.5893ZM30.0803 17.877C30.0803 17.4763 29.7716 17.1201 29.3305 17.1201C28.9336 17.1201 28.5807 17.4763 28.5807 17.877C28.5807 18.2777 28.8895 18.6339 29.3305 18.6339C29.7716 18.5893 30.0803 18.2777 30.0803 17.877ZM14.6432 18.5893C15.0402 18.5893 15.3489 18.2777 15.3489 17.8324C15.3489 17.4317 15.0402 17.0755 14.5991 17.0755C14.2022 17.0755 13.8934 17.3872 13.8934 17.8324C13.9375 18.2777 14.2463 18.5893 14.6432 18.5893ZM13.5406 17.877C13.5406 17.4763 13.2318 17.1201 12.7908 17.1201C12.3938 17.1201 12.041 17.4317 12.041 17.8324C12.041 18.2332 12.3497 18.5893 12.7908 18.5893C13.2318 18.5893 13.5406 18.2777 13.5406 17.877ZM7.2775 2.07109C7.67446 2.07109 8.0273 1.71491 8.0273 1.31419C8.0273 0.913481 7.71856 0.601815 7.2775 0.557292C6.88055 0.557292 6.5277 0.868957 6.5277 1.31419C6.5718 1.75943 6.88055 2.07109 7.2775 2.07109ZM9.12996 2.07109C9.52691 2.07109 9.87976 1.71491 9.87976 1.31419C9.87976 0.913481 9.52691 0.557292 9.12996 0.557292C8.733 0.557292 8.42426 0.913481 8.42426 1.31419C8.38015 1.75943 8.733 2.07109 9.12996 2.07109ZM11.6881 1.35872C11.6881 0.958004 11.3794 0.601815 10.9824 0.601815C10.5855 0.601815 10.2326 0.913481 10.2326 1.31419C10.2326 1.71491 10.5413 2.07109 10.9383 2.07109C11.3353 2.07109 11.6881 1.75943 11.6881 1.35872ZM24.5671 19.6579C24.5671 19.2572 24.2142 18.901 23.8173 18.901C23.4203 18.901 23.0675 19.2572 23.0675 19.6579C23.0675 20.0586 23.3762 20.3703 23.8173 20.3703C24.2583 20.4148 24.5671 20.1032 24.5671 19.6579ZM23.8173 2.07109C24.2142 2.07109 24.5671 1.71491 24.5671 1.31419C24.5671 0.913481 24.2142 0.601815 23.8173 0.601815C23.4203 0.601815 23.0675 0.958004 23.0675 1.35872C23.1116 1.75943 23.4203 2.07109 23.8173 2.07109ZM25.6697 2.07109C26.0667 2.07109 26.4195 1.71491 26.4195 1.31419C26.4195 0.913481 26.0667 0.557292 25.6697 0.557292C25.2728 0.557292 24.9199 0.913481 24.9199 1.31419C24.9199 1.75943 25.2728 2.07109 25.6697 2.07109ZM5.46915 35.1076C5.86611 35.1076 6.21896 34.7514 6.17485 34.3507C6.17485 33.95 5.86611 33.5938 5.42505 33.5938C5.02809 33.5938 4.67524 33.95 4.67524 34.3507C4.71935 34.7514 5.0722 35.1076 5.46915 35.1076ZM26.4195 19.7024C26.4195 19.3017 26.0667 18.9455 25.6697 18.9455C25.2728 18.9455 24.9199 19.3017 24.9199 19.7024C24.9199 20.1032 25.2287 20.4593 25.6697 20.4593C26.0667 20.4148 26.4195 20.1032 26.4195 19.7024ZM11.6881 19.7024C11.6881 19.3017 11.3794 18.9455 10.9824 18.9455C10.5855 18.9455 10.2326 19.2572 10.2326 19.7024C10.2326 20.1032 10.5413 20.4593 10.9383 20.4593C11.3794 20.4148 11.6881 20.1032 11.6881 19.7024ZM9.87976 19.7024C9.87976 19.3017 9.57102 18.9455 9.12996 18.9455C8.733 18.9455 8.38015 19.3017 8.38015 19.7024C8.38015 20.1032 8.6889 20.4593 9.12996 20.4593C9.52691 20.4148 9.87976 20.1032 9.87976 19.7024ZM8.0273 19.7024C8.0273 19.3017 7.67446 18.9455 7.2775 18.9455C6.88055 18.9455 6.5277 19.3017 6.5277 19.7024C6.5277 20.1032 6.83644 20.4593 7.23339 20.4593C7.71856 20.4148 8.0273 20.1032 8.0273 19.7024ZM28.272 17.877C28.272 17.4763 27.9632 17.1201 27.5222 17.1201C27.1252 17.1201 26.7724 17.4763 26.7724 17.877C26.7724 18.2777 27.0811 18.6339 27.5222 18.6339C27.9191 18.5893 28.2279 18.2777 28.272 17.877ZM24.9199 36.1762C24.9199 36.5769 25.2287 36.9331 25.6697 36.9331C26.0667 36.9331 26.4195 36.6214 26.4195 36.2207C26.4195 35.82 26.1108 35.4638 25.7138 35.4638C25.2728 35.4193 24.9199 35.7309 24.9199 36.1762ZM31.183 22.5965C30.786 22.5965 30.4332 22.9081 30.4332 23.3089C30.4332 23.7096 30.7419 24.0658 31.183 24.0658C31.5799 24.0658 31.9328 23.7096 31.9328 23.3089C31.9328 22.9527 31.5799 22.5965 31.183 22.5965ZM5.46915 2.07109C5.86611 2.07109 6.17485 1.75943 6.17485 1.35872C6.17485 0.958004 5.86611 0.601815 5.42505 0.601815C5.02809 0.601815 4.71935 0.913481 4.67524 1.35872C4.71935 1.75943 5.0722 2.07109 5.46915 2.07109ZM23.8173 13.4246C23.4203 13.4246 23.0675 13.7363 23.0675 14.1815C23.0675 14.5822 23.3762 14.9384 23.8173 14.9384C24.2142 14.9384 24.5671 14.6267 24.5671 14.1815C24.5671 13.7808 24.2583 13.4246 23.8173 13.4246ZM25.6697 13.4246C25.2728 13.4246 24.9199 13.7363 24.9199 14.1815C24.9199 14.5822 25.2287 14.9384 25.6697 14.9384C26.0667 14.9384 26.4195 14.6267 26.4195 14.1815C26.4195 13.7808 26.0667 13.4246 25.6697 13.4246ZM23.8173 24.0658C24.2142 24.0658 24.5671 23.7096 24.5671 23.3089C24.5671 22.9081 24.2583 22.5519 23.8173 22.5519C23.4203 22.5519 23.1116 22.8636 23.1116 23.3089C23.1116 23.7541 23.4203 24.0658 23.8173 24.0658ZM31.183 29.9429C30.786 29.9429 30.4773 30.2991 30.4773 30.6998C30.4773 31.1005 30.786 31.4567 31.2271 31.4567C31.624 31.4567 31.9769 31.1005 31.9328 30.6998C31.9328 30.2545 31.5799 29.8983 31.183 29.9429ZM16.4516 22.5965C16.0546 22.5965 15.7459 22.9527 15.7459 23.3534C15.7459 23.7541 16.0546 24.1103 16.4957 24.1103C16.8926 24.1103 17.2455 23.7541 17.2455 23.3534C17.2014 22.9081 16.8926 22.5965 16.4516 22.5965ZM22.7146 12.356C22.7146 11.9553 22.3618 11.5991 21.9648 11.5991C21.5679 11.5991 21.2591 11.9553 21.2591 12.356C21.2591 12.7568 21.5679 13.1129 22.0089 13.1129C22.4059 13.1129 22.7146 12.7568 22.7146 12.356ZM6.5718 23.3089C6.5718 23.7096 6.88055 24.0658 7.32161 24.0658C7.71856 24.0658 8.07141 23.7096 8.07141 23.3089C8.07141 22.9081 7.76267 22.5519 7.32161 22.5519C6.88055 22.5965 6.5718 22.9081 6.5718 23.3089ZM24.9199 8.66059C24.9199 9.0613 25.2287 9.41749 25.6256 9.41749C26.0226 9.41749 26.3754 9.0613 26.3754 8.66059C26.3754 8.25987 26.0667 7.90369 25.6697 7.90369C25.2728 7.94821 24.9199 8.25987 24.9199 8.66059ZM26.4195 45.348C26.4195 44.9473 26.0667 44.5911 25.6697 44.5911C25.2728 44.5911 24.9199 44.9473 24.9199 45.348C24.9199 45.7487 25.2287 46.0604 25.6697 46.0604C26.0667 46.0604 26.4195 45.7487 26.4195 45.348ZM24.9199 28.8298C24.9199 29.2305 25.2728 29.5867 25.6697 29.5867C26.0667 29.5867 26.4195 29.2305 26.4195 28.8298C26.4195 28.4291 26.1108 28.0729 25.6697 28.0729C25.2728 28.1174 24.9199 28.4291 24.9199 28.8298ZM22.7146 6.83512C22.7146 6.43441 22.4059 6.07822 21.9648 6.07822C21.5679 6.07822 21.215 6.38988 21.215 6.83512C21.215 7.23583 21.5238 7.59202 21.9648 7.59202C22.4059 7.59202 22.7146 7.28035 22.7146 6.83512ZM35.5936 6.83512C35.5936 6.43441 35.2849 6.07822 34.8438 6.07822C34.4468 6.07822 34.094 6.38988 34.094 6.83512C34.094 7.23583 34.4027 7.59202 34.8438 7.59202C35.2849 7.59202 35.5936 7.28035 35.5936 6.83512ZM9.87976 45.348C9.87976 44.9473 9.57102 44.5911 9.12996 44.5911C8.733 44.5911 8.38015 44.9028 8.38015 45.348C8.38015 45.7487 8.68889 46.1049 9.08585 46.1049C9.52691 46.0604 9.87976 45.7487 9.87976 45.348ZM16.4957 18.5893C16.8926 18.5893 17.2455 18.2777 17.2455 17.8324C17.2455 17.4317 16.9367 17.0755 16.5398 17.0755C16.1428 17.0755 15.79 17.3872 15.79 17.8324C15.7459 18.2777 16.0546 18.5893 16.4957 18.5893ZM24.9199 41.6971C24.9199 42.0978 25.2287 42.454 25.6256 42.454C26.0226 42.454 26.3754 42.0978 26.3754 41.6971C26.3754 41.2964 26.0667 40.9402 25.6697 40.9402C25.2728 40.9402 24.9199 41.2519 24.9199 41.6971ZM10.9383 40.9402C10.5413 40.9402 10.1885 41.2519 10.2326 41.6971C10.2326 42.0978 10.5855 42.454 10.9824 42.454C11.3794 42.454 11.7322 42.0978 11.6881 41.6971C11.6881 41.2519 11.3794 40.9402 10.9383 40.9402ZM23.1116 28.8298C23.1116 29.2305 23.4644 29.5867 23.8614 29.5867C24.2583 29.5867 24.6112 29.2305 24.6112 28.8298C24.6112 28.4291 24.3024 28.0729 23.8614 28.0729C23.4203 28.1174 23.1116 28.4291 23.1116 28.8298ZM10.9824 28.1174C10.5855 28.1174 10.2326 28.4291 10.2326 28.8298C10.2326 29.2305 10.5855 29.5867 10.9824 29.5867C11.3794 29.5867 11.7322 29.2305 11.7322 28.8298C11.6881 28.4291 11.3794 28.1174 10.9824 28.1174ZM1.80835 11.2875C2.2053 11.2875 2.51405 10.9758 2.55815 10.5306C2.51405 10.1299 2.2053 9.77368 1.76424 9.77368C1.36729 9.77368 1.05855 10.0853 1.01444 10.4861C1.05855 10.9313 1.36729 11.2875 1.80835 11.2875ZM33.0354 18.5893C33.4324 18.5893 33.7852 18.2777 33.7852 17.8324C33.7852 17.4317 33.4765 17.0755 33.0354 17.0755C32.6385 17.0755 32.3297 17.3872 32.3297 17.8324C32.2856 18.2777 32.5944 18.5893 33.0354 18.5893ZM9.12996 28.1174C8.733 28.1174 8.38015 28.4736 8.38015 28.8743C8.38015 29.275 8.68889 29.6312 9.08585 29.6312C9.4828 29.6312 9.83565 29.275 9.83565 28.8743C9.87976 28.4291 9.52691 28.1174 9.12996 28.1174ZM26.4195 38.0016C26.4195 37.6009 26.1108 37.2447 25.6697 37.2447C25.2728 37.2447 24.9199 37.5564 24.9199 38.0016C24.9199 38.4024 25.2287 38.7585 25.6256 38.7585C26.0667 38.7585 26.4195 38.4024 26.4195 38.0016ZM11.6881 38.0016C11.6881 37.6009 11.3794 37.2447 10.9383 37.2447C10.5413 37.2447 10.1885 37.5564 10.1885 38.0016C10.1885 38.4024 10.4972 38.7585 10.8942 38.7585C11.3794 38.7585 11.6881 38.4024 11.6881 38.0016ZM9.87976 38.0016C9.87976 37.6009 9.57102 37.2447 9.12996 37.2447C8.733 37.2447 8.38015 37.5564 8.38015 38.0016C8.38015 38.4024 8.68889 38.7585 9.08585 38.7585C9.52691 38.7585 9.87976 38.4024 9.87976 38.0016ZM26.4195 6.83512C26.4195 6.43441 26.1108 6.07822 25.6697 6.07822C25.2728 6.07822 24.9199 6.38988 24.9199 6.7906C24.9199 7.19131 25.2287 7.5475 25.6697 7.5475C26.0667 7.59202 26.4195 7.28035 26.4195 6.83512ZM10.9824 13.4246C10.5855 13.4246 10.2326 13.7808 10.2326 14.1815C10.2326 14.5822 10.5855 14.9384 10.9824 14.9384C11.3794 14.9384 11.7322 14.6267 11.7322 14.1815C11.6881 13.7808 11.3794 13.4246 10.9824 13.4246ZM6.5718 28.8298C6.5718 29.2305 6.92465 29.5867 7.32161 29.5867C7.71856 29.5867 8.07141 29.275 8.07141 28.8743C8.07141 28.4736 7.76267 28.1174 7.32161 28.1174C6.88055 28.1174 6.5718 28.4291 6.5718 28.8298ZM25.6697 31.7683C25.2728 31.7683 24.964 32.1245 24.9199 32.5252C24.9199 32.9259 25.2287 33.2821 25.6697 33.2821C26.0667 33.2821 26.3754 32.9705 26.3754 32.5252C26.4195 32.1245 26.0667 31.7683 25.6697 31.7683ZM8.38015 16.007C8.38015 16.4077 8.6889 16.7639 9.12996 16.7639C9.52691 16.7639 9.87976 16.4077 9.87976 16.007C9.87976 15.6063 9.52691 15.2501 9.12996 15.2501C8.733 15.2501 8.38015 15.6063 8.38015 16.007ZM10.9824 16.7639C11.3794 16.7639 11.7322 16.4077 11.7322 16.007C11.7322 15.6063 11.4235 15.2501 10.9824 15.2501C10.5855 15.2501 10.2326 15.5617 10.2326 16.007C10.2326 16.4077 10.5413 16.7639 10.9824 16.7639ZM32.2856 10.5306C32.2856 10.9313 32.5944 11.243 33.0354 11.243C33.4324 11.243 33.7852 10.8868 33.7411 10.4861C33.7411 10.0853 33.4324 9.77368 32.9913 9.77368C32.5944 9.77368 32.2856 10.1299 32.2856 10.5306ZM20.9063 6.83512C20.9063 6.43441 20.5975 6.07822 20.2006 6.07822C19.8036 6.07822 19.4508 6.38988 19.4508 6.83512C19.4508 7.23583 19.7595 7.5475 20.1565 7.59202C20.5975 7.59202 20.9063 7.28035 20.9063 6.83512ZM4.71935 36.1762C4.71935 36.5769 5.02809 36.9331 5.42505 36.9331C5.822 36.9331 6.17485 36.6214 6.17485 36.1762C6.17485 35.7755 5.86611 35.4193 5.46915 35.4193C5.0722 35.4193 4.71935 35.7755 4.71935 36.1762ZM6.21896 12.356C6.21896 11.9553 5.91021 11.5991 5.51326 11.5991C5.1163 11.5991 4.76345 11.9108 4.76345 12.3115C4.76345 12.7122 5.0722 13.0684 5.46915 13.0684C5.86611 13.1129 6.21896 12.7568 6.21896 12.356ZM11.6881 12.356C11.6881 11.9553 11.3794 11.5991 10.9383 11.5991C10.5413 11.5991 10.1885 11.9108 10.1885 12.3115C10.1885 12.7122 10.4972 13.0684 10.9383 13.0684C11.3794 13.1129 11.6881 12.7568 11.6881 12.356ZM23.8173 31.7683C23.4203 31.7683 23.1116 32.1245 23.1116 32.5252C23.1116 32.9259 23.4203 33.2821 23.8614 33.2821C24.2583 33.2821 24.5671 32.9705 24.5671 32.5252C24.5671 32.1245 24.2142 31.7683 23.8173 31.7683ZM20.9063 12.356C20.9063 11.9553 20.5534 11.5991 20.1565 11.5991C19.7595 11.5991 19.4067 11.9553 19.4067 12.356C19.4067 12.7568 19.7154 13.1129 20.1565 13.1129C20.5534 13.1129 20.9063 12.7568 20.9063 12.356ZM26.4195 12.356C26.4195 11.9553 26.1108 11.5991 25.6697 11.5991C25.2728 11.5991 24.9199 11.9553 24.9199 12.356C24.9199 12.7568 25.2287 13.0684 25.6697 13.1129C26.0667 13.1129 26.3754 12.7568 26.4195 12.356ZM8.38015 36.1762C8.38015 36.5769 8.6889 36.9331 9.12996 36.9331C9.52691 36.9331 9.87976 36.6214 9.87976 36.1762C9.87976 35.7755 9.57102 35.4638 9.17406 35.4193C8.733 35.4193 8.38015 35.7755 8.38015 36.1762ZM18.304 18.5893C18.701 18.5893 19.0538 18.2777 19.0538 17.8324C19.0538 17.4317 18.7451 17.0755 18.3481 17.0755C17.9512 17.0755 17.5983 17.3872 17.5983 17.8324C17.5983 18.2777 17.9071 18.5893 18.304 18.5893ZM24.5671 6.83512C24.5671 6.43441 24.2583 6.12274 23.8173 6.12274C23.4203 6.12274 23.0675 6.43441 23.0675 6.83512C23.0675 7.23583 23.3762 7.59202 23.8173 7.59202C24.2583 7.59202 24.5671 7.23583 24.5671 6.83512ZM9.87976 6.83512C9.87976 6.43441 9.57102 6.12274 9.12996 6.07822C8.733 6.07822 8.38015 6.38988 8.38015 6.83512C8.38015 7.23583 8.6889 7.5475 9.12996 7.5475C9.52691 7.59202 9.87976 7.28035 9.87976 6.83512ZM35.5936 5.00965C35.5936 4.60894 35.2849 4.25275 34.8438 4.25275C34.4468 4.25275 34.094 4.56442 34.094 5.00965C34.094 5.41036 34.4027 5.76655 34.7997 5.76655C35.2849 5.76655 35.5936 5.41036 35.5936 5.00965ZM8.0273 6.83512C8.0273 6.43441 7.71856 6.07822 7.2775 6.07822C6.88055 6.07822 6.5277 6.43441 6.5277 6.83512C6.5277 7.23583 6.83644 7.5475 7.2775 7.5475C7.71856 7.59202 8.0273 7.28035 8.0273 6.83512ZM25.6697 16.7639C26.0667 16.7639 26.4195 16.4077 26.4195 16.007C26.4195 15.6063 26.1108 15.2501 25.6697 15.2501C25.2728 15.2501 24.9199 15.5617 24.9199 16.007C24.9199 16.4077 25.2728 16.7639 25.6697 16.7639ZM11.6881 32.5252C11.6881 32.1245 11.3794 31.7683 10.9824 31.7683C10.5855 31.7683 10.2326 32.1245 10.2326 32.5252C10.2326 32.9259 10.5413 33.2376 10.9824 33.2821C11.3794 33.2821 11.6881 32.9705 11.6881 32.5252ZM6.21896 6.83512C6.21896 6.43441 5.91021 6.07822 5.46915 6.07822C5.0722 6.07822 4.71935 6.43441 4.71935 6.83512C4.71935 7.23583 5.02809 7.5475 5.46915 7.5475C5.86611 7.59202 6.21896 7.28035 6.21896 6.83512ZM9.12996 13.4246C8.733 13.4246 8.38015 13.7808 8.38015 14.1815C8.38015 14.5822 8.6889 14.9384 9.12996 14.9384C9.52691 14.9384 9.87976 14.6267 9.87976 14.1815C9.87976 13.7808 9.52691 13.4246 9.12996 13.4246ZM8.38015 8.66059C8.38015 9.0613 8.733 9.41749 9.12996 9.41749C9.52691 9.41749 9.87976 9.0613 9.87976 8.66059C9.87976 8.25987 9.57102 7.90369 9.12996 7.90369C8.733 7.94821 8.38015 8.25987 8.38015 8.66059ZM10.2326 8.66059C10.2326 9.0613 10.5413 9.41749 10.9383 9.41749C11.3353 9.41749 11.6881 9.0613 11.6881 8.66059C11.6881 8.25987 11.3794 7.94821 10.9383 7.90369C10.5413 7.94821 10.2326 8.25987 10.2326 8.66059ZM9.12996 31.7683C8.733 31.7683 8.42426 32.1245 8.42426 32.5252C8.42426 32.9259 8.733 33.2821 9.17406 33.2821C9.57102 33.2821 9.87976 32.9705 9.87976 32.5252C9.87976 32.1245 9.52691 31.7683 9.12996 31.7683ZM8.0273 32.5252C8.0273 32.1245 7.67446 31.7683 7.2775 31.7683C6.88055 31.7683 6.5718 32.1245 6.5718 32.5252C6.5718 32.9259 6.88055 33.2821 7.32161 33.2821C7.71856 33.2821 8.0273 32.9259 8.0273 32.5252ZM5.46915 31.7683C5.0722 31.7683 4.71935 32.1245 4.71935 32.5252C4.71935 32.9259 5.0722 33.2821 5.46915 33.2821C5.86611 33.2821 6.17485 32.9705 6.17485 32.5252C6.21896 32.1245 5.86611 31.7683 5.46915 31.7683ZM20.1565 22.5965C19.7595 22.5965 19.4508 22.9081 19.4508 23.3534C19.4508 23.7541 19.8036 24.1103 20.2006 24.1103C20.5975 24.1103 20.9063 23.7541 20.9063 23.3534C20.9063 22.9081 20.5534 22.5965 20.1565 22.5965ZM14.6432 22.5965C14.2463 22.5965 13.8934 22.9081 13.8934 23.3534C13.8934 23.7541 14.2022 24.1103 14.5991 24.1103C14.9961 24.1103 15.3489 23.7986 15.3489 23.3534C15.393 22.9081 15.0843 22.5965 14.6432 22.5965ZM5.46915 22.5965C5.0722 22.5965 4.71935 22.9081 4.71935 23.3534C4.71935 23.7541 5.02809 24.1103 5.42505 24.1103C5.822 24.1103 6.17485 23.7986 6.17485 23.3534C6.21896 22.9081 5.86611 22.5965 5.46915 22.5965ZM11.6881 45.348C11.6881 44.9473 11.3794 44.5911 10.9383 44.5911C10.5413 44.5911 10.1885 44.9473 10.1885 45.348C10.1885 45.7487 10.4972 46.1049 10.8942 46.1049C11.3794 46.0604 11.6881 45.7487 11.6881 45.348ZM5.46915 2.47181C5.0722 2.47181 4.76345 2.828 4.76345 3.22871C4.76345 3.62942 5.1163 3.98561 5.51326 3.98561C5.91021 3.98561 6.26306 3.62942 6.26306 3.22871C6.21896 2.78347 5.86611 2.42728 5.46915 2.47181ZM20.1565 2.47181C19.7595 2.47181 19.4067 2.78347 19.4067 3.18418C19.4067 3.5849 19.7154 3.94109 20.1565 3.94109C20.5534 3.94109 20.9063 3.62942 20.9063 3.22871C20.9063 2.78347 20.5975 2.47181 20.1565 2.47181ZM21.2591 3.18418C21.2591 3.5849 21.612 3.94109 22.0089 3.94109C22.4059 3.94109 22.7587 3.5849 22.7587 3.18418C22.7587 2.78347 22.45 2.42728 22.0089 2.42728C21.612 2.47181 21.2591 2.78347 21.2591 3.18418ZM7.32161 16.7639C7.71856 16.7639 8.07141 16.4077 8.07141 16.007C8.07141 15.6063 7.76267 15.2501 7.32161 15.2501C6.92465 15.2501 6.5718 15.5617 6.5718 16.007C6.5718 16.4077 6.88055 16.7639 7.32161 16.7639ZM8.38015 41.6971C8.38015 42.0978 8.68889 42.454 9.08585 42.454C9.4828 42.454 9.83565 42.0978 9.83565 41.6971C9.83565 41.2964 9.52691 40.9402 9.12996 40.9402C8.733 40.9402 8.38015 41.2519 8.38015 41.6971ZM7.2775 42.454C7.67446 42.454 8.0273 42.0978 8.0273 41.6971C8.0273 41.2964 7.71856 40.9402 7.32161 40.9402C6.88055 40.9402 6.5718 41.2519 6.5718 41.6526C6.5718 42.0978 6.88055 42.454 7.2775 42.454ZM8.0273 38.0016C8.0273 37.6009 7.71856 37.2447 7.2775 37.2447C6.88055 37.2447 6.5277 37.5564 6.5277 37.9571C6.5277 38.4024 6.83644 38.714 7.2775 38.714C7.71856 38.7585 8.0273 38.4024 8.0273 38.0016ZM25.6697 20.771C25.2728 20.771 24.9199 21.0827 24.9199 21.5279C24.9199 21.9286 25.2287 22.2848 25.6697 22.2848C26.0667 22.2848 26.3754 21.9731 26.3754 21.5279C26.4195 21.0827 26.0667 20.771 25.6697 20.771ZM2.51405 5.00965C2.51405 4.60894 2.2053 4.29727 1.76424 4.29727C1.36729 4.29727 1.01444 4.60894 1.01444 5.05417C1.05855 5.41036 1.36729 5.76655 1.76424 5.76655C2.2053 5.76655 2.51405 5.45489 2.51405 5.00965ZM4.3665 5.00965C4.3665 4.60894 4.05776 4.25275 3.6167 4.25275C3.21974 4.25275 2.86689 4.56442 2.86689 5.00965C2.86689 5.41036 3.17564 5.76655 3.6167 5.76655C4.01365 5.76655 4.3665 5.45489 4.3665 5.00965ZM9.87976 5.00965C9.87976 4.60894 9.57102 4.25275 9.12996 4.25275C8.733 4.25275 8.38015 4.60894 8.38015 5.00965C8.38015 5.41036 8.6889 5.76655 9.12996 5.76655C9.52691 5.76655 9.87976 5.41036 9.87976 5.00965ZM23.1116 21.5279C23.1116 21.9286 23.4203 22.2403 23.8614 22.2848C24.2583 22.2848 24.6112 21.9731 24.6112 21.5279C24.6112 21.1272 24.3024 20.8155 23.8614 20.8155C23.4203 20.771 23.1116 21.0827 23.1116 21.5279ZM13.5406 5.00965C13.5406 4.60894 13.2318 4.25275 12.7908 4.25275C12.3938 4.25275 12.041 4.56442 12.041 5.00965C12.041 5.41036 12.3497 5.72203 12.7908 5.76655C13.2318 5.76655 13.5406 5.41036 13.5406 5.00965ZM21.2591 23.3089C21.2591 23.7096 21.5679 24.0658 22.0089 24.0658C22.4059 24.0658 22.7587 23.7096 22.7587 23.3089C22.7587 22.9081 22.45 22.5519 22.0089 22.5519C21.5679 22.5965 21.2591 22.9081 21.2591 23.3089ZM17.2014 5.00965C17.2014 4.60894 16.8926 4.25275 16.4516 4.25275C16.0546 4.25275 15.7018 4.56442 15.7018 5.00965C15.7018 5.41036 16.0105 5.76655 16.4075 5.76655C16.8926 5.76655 17.2014 5.45489 17.2014 5.00965ZM19.0538 5.00965C19.0538 4.60894 18.7451 4.25275 18.304 4.25275C17.9071 4.25275 17.5542 4.60894 17.5542 5.00965C17.5542 5.41036 17.863 5.72203 18.304 5.72203C18.701 5.76655 19.0538 5.45489 19.0538 5.00965ZM20.9063 5.00965C20.9063 4.60894 20.5534 4.25275 20.1565 4.25275C19.7595 4.25275 19.4067 4.56442 19.4067 5.00965C19.4067 5.41036 19.7154 5.72203 20.1565 5.72203C20.5534 5.76655 20.9063 5.41036 20.9063 5.00965ZM21.2591 21.5279C21.2591 21.9286 21.5679 22.2403 22.0089 22.2848C22.4059 22.2848 22.7587 21.9731 22.7587 21.5279C22.7587 21.1272 22.45 20.8155 22.0089 20.8155C21.5679 20.771 21.2591 21.0827 21.2591 21.5279ZM20.9063 21.5279C20.9063 21.1272 20.5975 20.771 20.2006 20.771C19.7595 20.771 19.4508 21.0827 19.4508 21.4834C19.4508 21.8841 19.7595 22.2403 20.2006 22.2403C20.5534 22.2403 20.9063 21.9286 20.9063 21.5279ZM23.8173 16.7639C24.2142 16.7639 24.5671 16.4077 24.5671 16.007C24.5671 15.6063 24.2583 15.2501 23.8173 15.2501C23.4203 15.2501 23.0675 15.5617 23.0675 16.007C23.1116 16.4077 23.4203 16.7639 23.8173 16.7639ZM23.1116 36.1762C23.1116 36.5769 23.4203 36.9331 23.8614 36.9331C24.2583 36.9331 24.6112 36.6214 24.6112 36.1762C24.6112 35.7755 24.3024 35.4193 23.9055 35.4193C23.4203 35.4193 23.1116 35.7755 23.1116 36.1762ZM6.5718 21.5279C6.5718 21.9286 6.88055 22.2403 7.32161 22.2848C7.71856 22.2848 8.07141 21.9731 8.07141 21.5279C8.07141 21.1272 7.76267 20.8155 7.32161 20.8155C6.88055 20.771 6.5718 21.0827 6.5718 21.5279ZM4.71935 21.5279C4.71935 21.9286 5.02809 22.2848 5.46915 22.2848C5.86611 22.2848 6.17485 21.9731 6.17485 21.5279C6.17485 21.1272 5.86611 20.771 5.42505 20.771C5.0722 20.771 4.71935 21.0827 4.71935 21.5279ZM29.3305 11.2875C29.7275 11.2875 30.0803 10.9758 30.0803 10.5306C30.0803 10.1299 29.7716 9.77368 29.3746 9.77368C28.9777 9.77368 28.6248 10.0853 28.6248 10.5306C28.6248 10.9313 28.9336 11.2875 29.3305 11.2875ZM10.9824 17.1201C10.5855 17.1201 10.2326 17.4317 10.2326 17.877C10.2326 18.2777 10.5413 18.6339 10.9824 18.6339C11.3794 18.6339 11.7322 18.3222 11.7322 17.9215C11.6881 17.4317 11.3794 17.1201 10.9824 17.1201ZM8.38015 21.5279C8.38015 21.9286 8.6889 22.2403 9.12996 22.2403C9.52691 22.2403 9.87976 21.9286 9.87976 21.4834C9.87976 21.0827 9.57102 20.771 9.12996 20.771C8.733 20.771 8.38015 21.0827 8.38015 21.5279ZM30.0803 5.00965C30.0803 4.60894 29.7716 4.25275 29.3305 4.25275C28.9336 4.25275 28.5807 4.56442 28.5807 5.00965C28.5807 5.41036 28.8895 5.76655 29.3305 5.76655C29.7716 5.76655 30.0803 5.45489 30.0803 5.00965ZM29.3305 29.9429C28.9336 29.9429 28.5807 30.2991 28.5807 30.6998C28.5807 31.1005 28.8895 31.4567 29.3305 31.4567C29.7275 31.4567 30.0803 31.145 30.0803 30.6998C30.0803 30.2545 29.7716 29.9429 29.3305 29.9429ZM6.5718 36.1762C6.5718 36.5769 6.88055 36.9331 7.2775 36.9331C7.67446 36.9331 8.0273 36.6214 8.0273 36.1762C8.0273 35.7755 7.71856 35.4193 7.32161 35.4193C6.88055 35.4193 6.5718 35.7755 6.5718 36.1762ZM2.51405 12.356C2.51405 11.9553 2.1612 11.5991 1.76424 11.5991C1.36729 11.5991 1.01444 11.9553 1.01444 12.356C1.01444 12.7568 1.32318 13.0684 1.76424 13.0684C2.2053 13.1129 2.51405 12.7568 2.51405 12.356ZM4.3665 12.356C4.3665 11.9553 4.05776 11.5991 3.6167 11.5991C3.21974 11.5991 2.86689 11.9553 2.86689 12.356C2.86689 12.7568 3.17564 13.1129 3.6167 13.1129C4.01365 13.1129 4.32239 12.7568 4.3665 12.356ZM10.2326 10.5306C10.2326 10.9313 10.5413 11.2875 10.9824 11.2875C11.3794 11.2875 11.7322 10.9758 11.7322 10.5751C11.7322 10.1299 11.4235 9.8182 11.0265 9.8182C10.5855 9.77368 10.2326 10.1299 10.2326 10.5306ZM8.0273 12.356C8.0273 11.9553 7.71856 11.5991 7.2775 11.5991C6.88055 11.5991 6.5277 11.9553 6.5277 12.356C6.5277 12.7568 6.83644 13.1129 7.2775 13.1129C7.71856 13.1129 8.0273 12.7568 8.0273 12.356ZM9.87976 12.356C9.87976 11.9553 9.57102 11.5991 9.12996 11.5991C8.733 11.5991 8.38015 11.9553 8.38015 12.356C8.38015 12.7568 8.6889 13.0684 9.12996 13.0684C9.52691 13.1129 9.87976 12.7568 9.87976 12.356ZM12.0851 10.5306C12.0851 10.9313 12.3938 11.2875 12.8349 11.2875C13.2318 11.2875 13.5406 10.9758 13.5847 10.5306C13.5847 10.1299 13.2759 9.77368 12.8349 9.77368C12.3938 9.77368 12.0851 10.1299 12.0851 10.5306ZM16.4957 11.2875C16.8926 11.2875 17.2014 10.9758 17.2455 10.5306C17.2455 10.1299 16.9367 9.77368 16.4957 9.77368C16.0987 9.77368 15.79 10.0853 15.79 10.5306C15.7459 10.9313 16.0546 11.2875 16.4957 11.2875ZM15.393 12.356C15.393 11.9553 15.0402 11.5991 14.6432 11.5991C14.2463 11.5991 13.9375 11.9553 13.9375 12.356C13.9375 12.7568 14.2463 13.1129 14.6873 13.1129C15.0402 13.1129 15.393 12.7568 15.393 12.356ZM17.2014 12.356C17.2014 11.9553 16.8926 11.5991 16.4516 11.5991C16.0546 11.5991 15.7018 11.9553 15.7018 12.356C15.7018 12.7568 16.0105 13.0684 16.4516 13.1129C16.8926 13.1129 17.2014 12.7568 17.2014 12.356ZM13.9375 10.5306C13.9375 10.9758 14.2463 11.2875 14.6873 11.2875C15.0843 11.2875 15.393 10.9313 15.393 10.5306C15.393 10.1299 15.0843 9.77368 14.6432 9.77368C14.2463 9.77368 13.9375 10.1299 13.9375 10.5306ZM27.5222 29.9429C27.1252 29.9429 26.7724 30.2545 26.7724 30.6552C26.7724 31.056 27.0811 31.4121 27.5222 31.4121C27.9191 31.4121 28.272 31.1005 28.272 30.6998C28.2279 30.2545 27.9191 29.9429 27.5222 29.9429ZM10.9824 24.4665C10.5855 24.4665 10.2326 24.7781 10.2326 25.1788C10.2326 25.5796 10.5413 25.9357 10.9824 25.9357C11.3794 25.9357 11.7322 25.6241 11.7322 25.2234C11.6881 24.7781 11.3794 24.4665 10.9824 24.4665ZM23.8173 13.1129C24.2142 13.1129 24.5671 12.8013 24.5671 12.4006C24.5671 11.9999 24.2142 11.6437 23.8173 11.6437C23.4203 11.6437 23.0675 11.9999 23.0675 12.4006C23.1116 12.7568 23.4203 13.1129 23.8173 13.1129ZM18.304 11.2875C18.701 11.2875 19.0538 10.9758 19.0538 10.5306C19.0538 10.1299 18.7451 9.77368 18.304 9.77368C17.9071 9.77368 17.5983 10.0853 17.5983 10.5306C17.5983 10.9313 17.9071 11.2875 18.304 11.2875ZM12.8349 29.9429C12.4379 29.9429 12.0851 30.2545 12.0851 30.6998C12.0851 31.1005 12.3938 31.4567 12.8349 31.4567C13.2318 31.4567 13.5406 31.145 13.5406 30.6998C13.5406 30.2545 13.2318 29.9429 12.8349 29.9429ZM30.0803 12.356C30.0803 11.9553 29.7716 11.5991 29.3305 11.5991C28.9336 11.5991 28.5807 11.9553 28.5807 12.356C28.5807 12.7568 28.8895 13.0684 29.3305 13.1129C29.7275 13.1129 30.0803 12.7568 30.0803 12.356ZM31.9328 12.356C31.9328 11.9553 31.624 11.5991 31.2271 11.5991C30.8301 11.5991 30.4773 11.9108 30.4773 12.3115C30.4773 12.7122 30.786 13.0684 31.183 13.0684C31.5799 13.1129 31.8887 12.8013 31.9328 12.356ZM33.7411 12.356C33.7411 11.9553 33.4324 11.5991 32.9913 11.5991C32.5944 11.5991 32.2415 11.9553 32.2415 12.356C32.2415 12.7568 32.5503 13.0684 32.9913 13.0684C33.4324 13.1129 33.7411 12.7568 33.7411 12.356ZM35.5936 12.356C35.5936 11.9553 35.2407 11.5991 34.8438 11.5991C34.4468 11.5991 34.094 11.9553 34.094 12.356C34.094 12.7568 34.4027 13.0684 34.8438 13.0684C35.2849 13.1129 35.5936 12.7568 35.5936 12.356ZM11.6881 6.83512C11.6881 6.38988 11.3794 6.07822 10.9383 6.07822C10.5413 6.07822 10.1885 6.43441 10.1885 6.83512C10.1885 7.23583 10.4972 7.5475 10.9383 7.5475C11.3794 7.59202 11.6881 7.28035 11.6881 6.83512ZM4.71935 28.8298C4.71935 29.2305 5.02809 29.5867 5.46915 29.5867C5.86611 29.5867 6.21896 29.2305 6.21896 28.8298C6.21896 28.4291 5.91021 28.1174 5.46915 28.0729C5.0722 28.1174 4.71935 28.4291 4.71935 28.8298ZM19.0538 19.7024C19.0538 19.3017 18.7451 18.9455 18.304 18.9455C17.9071 18.9455 17.5542 19.3017 17.5542 19.7024C17.5542 20.1032 17.863 20.4148 18.304 20.4148C18.701 20.4148 19.0538 20.1032 19.0538 19.7024ZM25.6697 9.77368C25.2728 9.77368 24.9199 10.0853 24.9199 10.5306C24.9199 10.9313 25.2728 11.2875 25.6697 11.2875C26.0667 11.2875 26.3754 10.9313 26.3754 10.5306C26.4195 10.1299 26.0667 9.77368 25.6697 9.77368ZM10.2326 36.1762C10.2326 36.5769 10.5413 36.9331 10.9383 36.9331C11.3353 36.9331 11.6881 36.6214 11.6881 36.1762C11.6881 35.7755 11.3794 35.4193 10.9824 35.4193C10.5855 35.4193 10.2326 35.7755 10.2326 36.1762ZM26.7724 10.5306C26.7724 10.9313 27.1252 11.2875 27.5222 11.2875C27.9191 11.2875 28.272 10.9313 28.272 10.5306C28.272 10.1299 27.9632 9.77368 27.5222 9.77368C27.1252 9.77368 26.7724 10.1299 26.7724 10.5306ZM13.5406 12.356C13.5406 11.9553 13.1877 11.5991 12.7908 11.5991C12.3938 11.5991 12.041 11.9108 12.041 12.356C12.041 12.7568 12.3497 13.1129 12.7908 13.1129C13.2318 13.1129 13.5406 12.7568 13.5406 12.356ZM15.393 5.00965C15.393 4.60894 15.0843 4.25275 14.6432 4.25275C14.2463 4.25275 13.8934 4.56442 13.8934 5.00965C13.8934 5.41036 14.2022 5.76655 14.6432 5.76655C15.0402 5.76655 15.393 5.41036 15.393 5.00965ZM6.21896 19.7024C6.21896 19.3017 5.86611 18.9455 5.46915 18.9455C5.0722 18.9455 4.71935 19.3017 4.71935 19.7024C4.71935 20.1032 5.02809 20.4593 5.46915 20.4593C5.86611 20.4148 6.21896 20.1032 6.21896 19.7024ZM22.7146 19.7024C22.7146 19.3017 22.3618 18.9455 21.9648 18.9455C21.5679 18.9455 21.215 19.3017 21.215 19.7024C21.215 20.1032 21.5238 20.4593 21.9648 20.4593C22.4059 20.4148 22.7146 20.1032 22.7146 19.7024ZM10.2326 21.5279C10.2326 21.9286 10.5413 22.2403 10.9824 22.2403C11.3794 22.2403 11.7322 21.9286 11.7322 21.4834C11.7322 21.0827 11.4235 20.771 10.9824 20.771C10.5413 20.771 10.2326 21.1272 10.2326 21.5279ZM28.272 21.5279C28.272 21.1272 27.9632 20.8155 27.5663 20.771C27.1252 20.771 26.8165 21.0827 26.8165 21.5279C26.8165 21.9286 27.1252 22.2403 27.5222 22.2848C27.9191 22.2403 28.272 21.9286 28.272 21.5279ZM9.12996 24.0658C9.52691 24.0658 9.87976 23.7096 9.87976 23.3089C9.87976 22.9081 9.52691 22.5519 9.12996 22.5965C8.733 22.5965 8.42426 22.9527 8.42426 23.3534C8.38015 23.7541 8.733 24.0658 9.12996 24.0658ZM12.8349 22.5965C12.4379 22.5965 12.0851 22.9081 12.0851 23.3534C12.0851 23.7541 12.3938 24.1103 12.8349 24.1103C13.2318 24.1103 13.5847 23.7986 13.5847 23.3534C13.5406 22.9081 13.2318 22.5965 12.8349 22.5965ZM29.3305 22.5965C28.9336 22.5965 28.6248 22.9081 28.6248 23.3534C28.6248 23.7541 28.9336 24.1103 29.3305 24.1103C29.7275 24.1103 30.0803 23.7986 30.0803 23.3534C30.0803 22.9081 29.7716 22.5965 29.3305 22.5965ZM5.46915 24.4665C5.0722 24.4665 4.71935 24.7781 4.71935 25.1788C4.71935 25.5796 5.02809 25.9357 5.46915 25.9357C5.86611 25.9357 6.21896 25.6241 6.21896 25.2234C6.21896 24.7781 5.86611 24.4665 5.46915 24.4665ZM7.32161 24.4665C6.92465 24.4665 6.5718 24.7781 6.5718 25.1788C6.5718 25.5796 6.88055 25.9357 7.32161 25.9357C7.71856 25.9357 8.07141 25.6241 8.07141 25.2234C8.0273 24.7781 7.71856 24.4665 7.32161 24.4665ZM22.7146 25.2234C22.7146 24.8227 22.4059 24.4665 21.9648 24.4665C21.5679 24.4665 21.215 24.8227 21.215 25.2234C21.215 25.6241 21.5238 25.9803 21.9648 25.9803C22.4059 25.9357 22.7146 25.6241 22.7146 25.2234ZM23.8173 24.4665C23.4203 24.4665 23.0675 24.7781 23.0675 25.1788C23.0675 25.5796 23.3762 25.9357 23.8173 25.9357C24.2142 25.9357 24.5671 25.6241 24.5671 25.2234C24.5671 24.7781 24.2583 24.4665 23.8173 24.4665ZM25.6697 24.4665C25.2728 24.4665 24.9199 24.7781 24.9199 25.2234C24.9199 25.6241 25.2287 25.9803 25.6697 25.9803C26.0667 25.9803 26.3754 25.6686 26.3754 25.2234C26.4195 24.7781 26.0667 24.4665 25.6697 24.4665ZM5.46915 31.4121C5.86611 31.4121 6.17485 31.056 6.17485 30.6552C6.17485 30.2545 5.86611 29.8983 5.46915 29.8983C5.0722 29.8983 4.71935 30.21 4.71935 30.6552C4.71935 31.1005 5.0722 31.4121 5.46915 31.4121ZM12.7908 35.4193C12.3938 35.4193 12.0851 35.7755 12.0851 36.1762C12.0851 36.5769 12.3938 36.9331 12.8349 36.9331C13.2318 36.9331 13.5847 36.5769 13.5847 36.1762C13.5406 35.7755 13.2318 35.4193 12.7908 35.4193ZM29.3746 35.4193C28.9336 35.4193 28.6248 35.7309 28.6248 36.1316C28.6248 36.5324 28.9336 36.8885 29.3305 36.8885C29.7275 36.8885 30.0803 36.5769 30.0803 36.1316C30.0803 35.7755 29.7716 35.4638 29.3746 35.4193ZM6.5718 3.18418C6.5718 3.5849 6.88055 3.94109 7.32161 3.94109C7.71856 3.94109 8.07141 3.62942 8.07141 3.22871C8.07141 2.78347 7.76267 2.47181 7.32161 2.47181C6.92465 2.47181 6.5718 2.78347 6.5718 3.18418ZM10.9824 2.47181C10.5855 2.47181 10.2326 2.78347 10.2326 3.18418C10.2326 3.5849 10.5413 3.94109 10.9824 3.94109C11.3794 3.94109 11.7322 3.62942 11.7322 3.22871C11.6881 2.78347 11.3794 2.47181 10.9824 2.47181ZM23.1116 3.18418C23.1116 3.5849 23.4203 3.94109 23.8614 3.94109C24.2583 3.94109 24.6112 3.62942 24.6112 3.22871C24.6112 2.828 24.3024 2.47181 23.8614 2.47181C23.4203 2.47181 23.1116 2.78347 23.1116 3.18418ZM6.21896 5.00965C6.21896 4.60894 5.91021 4.25275 5.46915 4.25275C5.0722 4.25275 4.71935 4.56442 4.71935 4.96513C4.71935 5.36584 5.02809 5.72203 5.46915 5.72203C5.86611 5.76655 6.17485 5.45489 6.21896 5.00965ZM8.0273 5.00965C8.0273 4.60894 7.71856 4.25275 7.2775 4.25275C6.88055 4.25275 6.5277 4.56442 6.5277 4.96513C6.5277 5.36584 6.83644 5.72203 7.2775 5.72203C7.71856 5.76655 8.0273 5.45489 8.0273 5.00965ZM11.6881 5.00965C11.6881 4.60894 11.3794 4.25275 10.9383 4.25275C10.5413 4.25275 10.1885 4.60894 10.1885 5.00965C10.1885 5.41036 10.4972 5.76655 10.9383 5.76655C11.3794 5.76655 11.6881 5.41036 11.6881 5.00965ZM22.7146 5.00965C22.7146 4.60894 22.4059 4.25275 21.9648 4.25275C21.5679 4.25275 21.215 4.56442 21.215 5.00965C21.215 5.41036 21.5238 5.72203 21.9648 5.76655C22.4059 5.76655 22.7146 5.41036 22.7146 5.00965ZM24.5671 5.00965C24.5671 4.60894 24.2142 4.25275 23.8173 4.25275C23.4203 4.25275 23.0675 4.60894 23.0675 5.00965C23.0675 5.41036 23.3762 5.76655 23.8173 5.76655C24.2583 5.76655 24.5671 5.41036 24.5671 5.00965ZM26.4195 5.00965C26.4195 4.60894 26.1108 4.25275 25.6697 4.25275C25.2728 4.25275 24.9199 4.56442 24.9199 5.00965C24.9199 5.41036 25.2287 5.76655 25.6697 5.76655C26.0667 5.76655 26.4195 5.45489 26.4195 5.00965ZM28.272 5.00965C28.272 4.60894 27.9191 4.25275 27.5222 4.25275C27.1252 4.25275 26.8165 4.56442 26.8165 5.00965C26.8165 5.41036 27.1252 5.76655 27.5663 5.76655C27.9191 5.76655 28.272 5.41036 28.272 5.00965ZM31.9328 5.00965C31.9328 4.60894 31.624 4.25275 31.183 4.25275C30.786 4.25275 30.4332 4.56442 30.4332 5.00965C30.4332 5.41036 30.7419 5.72203 31.183 5.76655C31.5799 5.76655 31.9328 5.41036 31.9328 5.00965ZM33.7411 5.00965C33.7411 4.60894 33.4324 4.29727 32.9913 4.29727C32.5944 4.29727 32.2415 4.60894 32.2415 5.00965C32.2415 5.41036 32.5503 5.76655 32.9913 5.76655C33.4324 5.76655 33.7411 5.41036 33.7411 5.00965ZM1.05855 8.66059C1.05855 9.0613 1.41139 9.41749 1.80835 9.41749C2.2053 9.41749 2.55815 9.0613 2.55815 8.66059C2.55815 8.25987 2.24941 7.90369 1.80835 7.90369C1.36729 7.94821 1.05855 8.25987 1.05855 8.66059ZM4.71935 8.66059C4.71935 9.10582 5.02809 9.41749 5.46915 9.41749C5.86611 9.41749 6.17485 9.0613 6.21896 8.66059C6.21896 8.25987 5.91021 7.90369 5.51326 7.90369C5.0722 7.94821 4.71935 8.25987 4.71935 8.66059ZM6.5718 8.66059C6.5718 9.0613 6.88055 9.41749 7.32161 9.41749C7.71856 9.41749 8.07141 9.0613 8.07141 8.66059C8.07141 8.25987 7.71856 7.94821 7.32161 7.94821C6.88055 7.94821 6.5718 8.25987 6.5718 8.66059ZM19.4067 8.66059C19.4067 9.0613 19.7154 9.41749 20.1565 9.41749C20.5534 9.41749 20.9063 9.10582 20.9063 8.66059C20.9063 8.25987 20.5975 7.90369 20.1565 7.90369C19.7595 7.94821 19.4508 8.25987 19.4067 8.66059ZM22.0089 7.94821C21.5679 7.94821 21.2591 8.25987 21.2591 8.70511C21.2591 9.10582 21.5679 9.46201 21.9648 9.46201C22.3618 9.46201 22.7146 9.10582 22.7146 8.70511C22.7146 8.25987 22.4059 7.94821 22.0089 7.94821ZM23.8173 9.41749C24.2142 9.41749 24.5671 9.0613 24.5671 8.66059C24.5671 8.25987 24.2583 7.90369 23.8173 7.90369C23.4203 7.90369 23.1116 8.21535 23.1116 8.66059C23.1116 9.0613 23.4203 9.41749 23.8173 9.41749ZM34.1381 8.66059C34.1381 9.0613 34.4468 9.41749 34.8879 9.41749C35.2849 9.41749 35.6377 9.0613 35.6377 8.66059C35.6377 8.25987 35.329 7.94821 34.8879 7.94821C34.4468 7.94821 34.1381 8.25987 34.1381 8.66059ZM3.6167 11.2875C4.01365 11.2875 4.3665 10.9758 4.3665 10.5306C4.3665 10.0853 4.05776 9.77368 3.6167 9.77368C3.21974 9.77368 2.911 10.0853 2.911 10.5306C2.86689 10.9313 3.21974 11.2875 3.6167 11.2875ZM6.5718 10.5306C6.5718 10.9313 6.88055 11.2875 7.32161 11.2875C7.71856 11.2875 8.07141 10.9758 8.07141 10.5751C8.07141 10.1299 7.76267 9.8182 7.36571 9.8182C6.88055 9.77368 6.5718 10.1299 6.5718 10.5306ZM8.38015 10.5306C8.38015 10.9313 8.68889 11.2875 9.08585 11.2875C9.4828 11.2875 9.83565 10.9758 9.83565 10.5751C9.83565 10.1299 9.52691 9.8182 9.12996 9.8182C8.733 9.77368 8.42426 10.0853 8.38015 10.5306ZM23.1116 10.5306C23.1116 10.9313 23.4644 11.2875 23.8614 11.2875C24.2583 11.2875 24.6112 10.9758 24.6112 10.5306C24.6112 10.0853 24.3024 9.77368 23.8614 9.77368C23.4203 9.77368 23.1116 10.1299 23.1116 10.5306ZM31.183 11.2875C31.5799 11.2875 31.9328 10.9758 31.9328 10.5306C31.9328 10.1299 31.624 9.77368 31.183 9.77368C30.786 9.77368 30.4773 10.0853 30.4332 10.4861C30.4332 10.9313 30.786 11.2875 31.183 11.2875ZM19.0538 12.356C19.0538 11.9553 18.701 11.5991 18.304 11.5991C17.9071 11.5991 17.5542 11.9553 17.5542 12.356C17.5542 12.7568 17.863 13.1129 18.304 13.1129C18.701 13.1129 19.0538 12.7568 19.0538 12.356ZM1.05855 16.007C1.05855 16.4077 1.41139 16.7639 1.80835 16.7639C2.2053 16.7639 2.51405 16.4077 2.51405 16.007C2.51405 15.6063 2.1612 15.2501 1.76424 15.2501C1.36729 15.2501 1.05855 15.6063 1.05855 16.007ZM5.46915 16.7639C5.86611 16.7639 6.21896 16.4077 6.21896 16.007C6.21896 15.6063 5.91021 15.2501 5.46915 15.2501C5.0722 15.2501 4.76345 15.5617 4.76345 16.007C4.71935 16.4077 5.0722 16.7639 5.46915 16.7639ZM17.5983 16.007C17.5983 16.4077 17.9071 16.7639 18.3481 16.7639C18.7451 16.7639 19.0979 16.4077 19.0979 16.007C19.0979 15.6063 18.7892 15.2946 18.3481 15.2501C17.9071 15.2501 17.5983 15.5617 17.5983 16.007ZM21.9648 16.7639C22.3618 16.7639 22.7146 16.4077 22.7146 16.007C22.7146 15.6063 22.4059 15.2501 21.9648 15.2501C21.5679 15.2501 21.2591 15.5617 21.2591 16.007C21.2591 16.4077 21.5679 16.7639 21.9648 16.7639ZM3.6167 18.5893C4.01365 18.5893 4.32239 18.2777 4.32239 17.8324C4.32239 17.4317 4.01365 17.0755 3.57259 17.0755C3.17564 17.0755 2.86689 17.4317 2.86689 17.8324C2.911 18.2777 3.21974 18.5893 3.6167 18.5893ZM7.32161 18.5893C7.71856 18.5893 8.0273 18.2777 8.0273 17.8324C8.0273 17.4317 7.67446 17.0755 7.2775 17.0755C6.88055 17.0755 6.5718 17.4317 6.5718 17.8324C6.5718 18.2777 6.88055 18.5893 7.32161 18.5893ZM9.12996 17.1201C8.733 17.1201 8.38015 17.4763 8.38015 17.877C8.38015 18.2777 8.6889 18.6339 9.12996 18.6339C9.52691 18.6339 9.83565 18.3222 9.83565 17.877C9.87976 17.4317 9.52691 17.1201 9.12996 17.1201ZM23.8614 17.1201C23.4644 17.1201 23.1116 17.4763 23.1116 17.877C23.1116 18.2777 23.4203 18.6339 23.8614 18.6339C24.2583 18.6339 24.6112 18.3222 24.6112 17.877C24.5671 17.4317 24.2583 17.1201 23.8614 17.1201ZM25.6697 17.1201C25.2728 17.1201 24.9199 17.4763 24.9199 17.877C24.9199 18.2777 25.2728 18.6339 25.6697 18.6339C26.0667 18.6339 26.3754 18.2777 26.3754 17.877C26.4195 17.4317 26.0667 17.1201 25.6697 17.1201ZM19.4067 16.007C19.4067 16.4077 19.7595 16.7194 20.1565 16.7194C20.5534 16.7194 20.9063 16.3632 20.8622 15.9625C20.8622 15.5617 20.5093 15.2501 20.1124 15.2501C19.7595 15.2501 19.4067 15.6063 19.4067 16.007ZM32.2856 8.70511C32.2856 9.10582 32.6385 9.46201 33.0354 9.41749C33.4324 9.41749 33.7852 9.0613 33.7852 8.66059C33.7852 8.25987 33.4765 7.90369 33.0354 7.90369C32.5944 7.94821 32.2856 8.25987 32.2856 8.70511ZM26.7724 41.6971C26.7724 42.0978 27.0811 42.454 27.5222 42.454C27.9191 42.454 28.272 42.0978 28.272 41.6971C28.272 41.2964 27.9632 40.9402 27.5222 40.9402C27.0811 40.9402 26.7724 41.2519 26.7724 41.6971ZM24.9199 3.18418C24.9199 3.5849 25.2287 3.94109 25.6697 3.94109C26.0667 3.94109 26.4195 3.62942 26.4195 3.22871C26.4195 2.78347 26.1108 2.47181 25.7138 2.47181C25.2728 2.47181 24.9199 2.78347 24.9199 3.18418ZM26.7724 3.18418C26.7724 3.5849 27.1252 3.94109 27.5222 3.94109C27.9191 3.94109 28.272 3.62942 28.272 3.18418C28.272 2.78347 27.9632 2.42728 27.5222 2.42728C27.1252 2.47181 26.7724 2.78347 26.7724 3.18418ZM13.5406 6.83512C13.5406 6.43441 13.2318 6.07822 12.7908 6.07822C12.3938 6.07822 12.041 6.38988 12.041 6.83512C12.041 7.23583 12.3497 7.59202 12.7908 7.59202C13.2318 7.59202 13.5406 7.23583 13.5406 6.83512ZM18.304 7.94821C17.9071 7.94821 17.5983 8.3044 17.5983 8.70511C17.5983 9.10582 17.9512 9.46201 18.3481 9.46201C18.7451 9.46201 19.0979 9.10582 19.0979 8.70511C19.0538 8.25987 18.701 7.90369 18.304 7.94821ZM22.0089 9.77368C21.612 9.77368 21.2591 10.1299 21.2591 10.5306C21.2591 10.9313 21.612 11.2875 22.0089 11.2875C22.4059 11.2875 22.7587 10.9313 22.7587 10.5306C22.7146 10.1299 22.4059 9.77368 22.0089 9.77368ZM20.1565 9.77368C19.7595 9.77368 19.4067 10.1299 19.4067 10.5306C19.4067 10.9313 19.7154 11.2875 20.1124 11.2875C20.5093 11.2875 20.8622 10.9758 20.8622 10.5306C20.9063 10.1299 20.5975 9.77368 20.1565 9.77368ZM4.71935 10.5306C4.71935 10.9313 5.0722 11.2875 5.46915 11.2875C5.86611 11.2875 6.21896 10.9313 6.17485 10.5306C6.17485 10.1299 5.822 9.8182 5.42505 9.8182C5.0722 9.77368 4.71935 10.1299 4.71935 10.5306ZM26.4195 39.8716C26.4195 39.4264 26.1108 39.1147 25.6697 39.1147C25.2728 39.1147 24.9199 39.4264 24.9199 39.8716C24.9199 40.2723 25.2287 40.584 25.6697 40.584C26.0667 40.584 26.3754 40.2723 26.4195 39.8716ZM21.2591 1.35872C21.2591 1.75943 21.612 2.07109 22.0089 2.07109C22.4059 2.07109 22.7587 1.71491 22.7146 1.31419C22.7146 0.913481 22.3618 0.601815 21.9648 0.601815C21.5679 0.601815 21.2591 0.913481 21.2591 1.35872ZM11.6881 39.8716C11.6881 39.4264 11.3794 39.1147 10.9824 39.1147C10.5855 39.1147 10.2326 39.4264 10.2326 39.8716C10.2326 40.2723 10.5413 40.584 10.9824 40.584C11.3794 40.584 11.6881 40.2723 11.6881 39.8716ZM9.87976 39.8716C9.87976 39.4709 9.57102 39.1147 9.12996 39.1147C8.733 39.1147 8.42426 39.4264 8.42426 39.8716C8.42426 40.2723 8.733 40.6285 9.17406 40.6285C9.57102 40.584 9.87976 40.2723 9.87976 39.8716ZM8.0273 39.8716C8.0273 39.4264 7.71856 39.1147 7.2775 39.1147C6.88055 39.1147 6.5277 39.4264 6.5277 39.8271C6.5277 40.2278 6.83644 40.584 7.2775 40.584C7.71856 40.584 8.0273 40.2723 8.0273 39.8716ZM7.2775 31.4121C7.67446 31.4121 8.0273 31.056 8.0273 30.6552C8.0273 30.2545 7.67446 29.8983 7.2775 29.8983C6.88055 29.8983 6.5277 30.21 6.5277 30.6552C6.5718 31.1005 6.88055 31.4121 7.2775 31.4121ZM9.12996 2.47181C8.733 2.47181 8.38015 2.78347 8.38015 3.22871C8.38015 3.62942 8.6889 3.98561 9.12996 3.98561C9.52691 3.98561 9.87976 3.62942 9.87976 3.22871C9.87976 2.78347 9.57102 2.47181 9.12996 2.47181ZM27.5222 46.4611C27.1252 46.4611 26.7724 46.8173 26.7724 47.218C26.7724 47.6187 27.0811 47.9749 27.4781 47.9749C27.875 47.9749 28.2279 47.6633 28.2279 47.218C28.272 46.7728 27.9191 46.4611 27.5222 46.4611ZM25.6697 24.0658C26.0667 24.0658 26.4195 23.7096 26.4195 23.3089C26.4195 22.9081 26.0667 22.5519 25.6697 22.5965C25.2728 22.5965 24.964 22.9527 24.964 23.3534C24.9199 23.7541 25.2728 24.0658 25.6697 24.0658ZM31.9328 19.7024C31.9328 19.3017 31.5799 18.9455 31.183 18.9455C30.786 18.9455 30.4332 19.3017 30.4332 19.7024C30.4332 20.1032 30.7419 20.4148 31.183 20.4148C31.5799 20.4148 31.9328 20.1032 31.9328 19.7024ZM33.7411 19.7024C33.7411 19.3017 33.4324 18.9455 32.9913 18.9455C32.5944 18.9455 32.2415 19.3017 32.2415 19.7024C32.2415 20.1032 32.5503 20.4148 32.9913 20.4593C33.4324 20.4148 33.7411 20.1032 33.7411 19.7024ZM27.5222 22.5965C27.1252 22.5965 26.7724 22.9081 26.7724 23.3089C26.7724 23.7096 27.0811 24.0658 27.5222 24.0658C27.9191 24.0658 28.2279 23.7541 28.272 23.3089C28.2279 22.9081 27.9191 22.5965 27.5222 22.5965ZM18.3481 13.4246C17.9512 13.4246 17.5983 13.7363 17.5983 14.1815C17.5983 14.5822 17.9071 14.9384 18.304 14.9384C18.701 14.9384 19.0538 14.6267 19.0538 14.1815C19.0538 13.7808 18.7451 13.4246 18.3481 13.4246ZM28.272 6.83512C28.272 6.43441 27.9632 6.12274 27.5222 6.07822C27.1252 6.07822 26.7724 6.38988 26.7724 6.83512C26.7724 7.23583 27.0811 7.5475 27.5222 7.5475C27.9191 7.59202 28.272 7.23583 28.272 6.83512ZM30.0803 6.83512C30.0803 6.43441 29.7716 6.12274 29.3746 6.07822C28.9777 6.07822 28.6248 6.38988 28.6248 6.83512C28.6248 7.23583 28.9336 7.5475 29.3305 7.59202C29.7716 7.59202 30.0803 7.28035 30.0803 6.83512ZM15.393 19.6579C15.393 19.2572 15.0402 18.9455 14.6432 18.901C14.2463 18.901 13.8934 19.2572 13.8934 19.6579C13.8934 20.0586 14.2022 20.3703 14.6432 20.3703C15.0402 20.4148 15.393 20.1032 15.393 19.6579ZM17.2014 19.6579C17.2014 19.2572 16.8485 18.901 16.4516 18.901C16.0546 18.901 15.7018 19.2572 15.7018 19.6579C15.7018 20.0586 16.0105 20.3703 16.4516 20.3703C16.8926 20.4148 17.2014 20.1032 17.2014 19.6579ZM12.0851 21.5279C12.0851 21.9286 12.3938 22.2403 12.8349 22.2848C13.2318 22.2848 13.5847 21.9731 13.5847 21.5279C13.5847 21.1272 13.2759 20.8155 12.8349 20.8155C12.3938 20.771 12.0851 21.0827 12.0851 21.5279ZM13.8934 21.5279C13.8934 21.9286 14.2022 22.2403 14.6432 22.2403C15.0402 22.2403 15.393 21.9286 15.393 21.4834C15.393 21.0827 15.0843 20.771 14.6432 20.771C14.2463 20.771 13.8934 21.0827 13.8934 21.5279ZM34.8438 16.7639C35.2407 16.7639 35.5936 16.4077 35.5936 16.007C35.5936 15.6063 35.2849 15.2501 34.8438 15.2501C34.4468 15.2501 34.094 15.5617 34.094 16.007C34.1381 16.4077 34.4468 16.7639 34.8438 16.7639ZM3.6167 13.4246C3.21974 13.4246 2.86689 13.7363 2.86689 14.1815C2.86689 14.5822 3.21974 14.9384 3.6167 14.9384C4.01365 14.9384 4.32239 14.6267 4.3665 14.1815C4.3665 13.7808 4.05776 13.4246 3.6167 13.4246ZM2.51405 14.1815C2.51405 13.7808 2.2053 13.4246 1.76424 13.4246C1.36729 13.4246 1.01444 13.7808 1.01444 14.1815C1.01444 14.5822 1.36729 14.9384 1.76424 14.9384C2.2053 14.9384 2.51405 14.5822 2.51405 14.1815ZM28.272 32.5252C28.272 32.1245 27.9191 31.7683 27.5222 31.7683C27.1252 31.7683 26.7724 32.1245 26.7724 32.5252C26.7724 32.9259 27.0811 33.2821 27.5222 33.2821C27.9191 33.2821 28.272 32.9259 28.272 32.5252ZM28.272 12.356C28.272 11.9553 27.9632 11.5991 27.5222 11.5991C27.1252 11.5991 26.7724 11.9108 26.7724 12.3115C26.7724 12.7122 27.0811 13.0684 27.5222 13.0684C27.9191 13.1129 28.272 12.7568 28.272 12.356ZM2.86689 16.007C2.86689 16.4077 3.17564 16.7639 3.6167 16.7639C4.01365 16.7639 4.3665 16.4077 4.3665 16.007C4.3665 15.6063 4.05776 15.2501 3.6167 15.2501C3.21974 15.2501 2.86689 15.6063 2.86689 16.007ZM4.3665 19.7024C4.3665 19.3017 4.05776 18.9455 3.6608 18.9455C3.26385 18.9455 2.911 19.2572 2.911 19.7024C2.911 20.1032 3.21974 20.4593 3.6167 20.4593C4.01365 20.4148 4.3665 20.1032 4.3665 19.7024ZM28.6248 21.5279C28.6248 21.9286 28.9336 22.2403 29.3746 22.2403C29.7716 22.2403 30.1244 21.9286 30.1244 21.4834C30.1244 21.0827 29.8157 20.771 29.3746 20.771C28.9336 20.771 28.6248 21.1272 28.6248 21.5279ZM9.12996 24.4665C8.733 24.4665 8.38015 24.7781 8.38015 25.1788C8.38015 25.5796 8.6889 25.9357 9.12996 25.9357C9.52691 25.9357 9.87976 25.6241 9.87976 25.2234C9.87976 24.7781 9.57102 24.4665 9.12996 24.4665ZM20.9063 19.7024C20.9063 19.3017 20.5534 18.9455 20.1565 18.9455C19.7595 18.9455 19.4067 19.3017 19.4067 19.7024C19.4067 20.1032 19.7154 20.4148 20.1565 20.4148C20.5534 20.4148 20.9063 20.1032 20.9063 19.7024ZM32.2856 16.007C32.2856 16.4077 32.5944 16.7639 33.0354 16.7639C33.4324 16.7639 33.7411 16.4077 33.7852 16.007C33.7852 15.6063 33.4765 15.2501 33.0354 15.2501C32.5944 15.2501 32.2856 15.6063 32.2856 16.007ZM27.5222 35.4193C27.1252 35.4193 26.7724 35.7309 26.7724 36.1316C26.7724 36.5324 27.0811 36.8885 27.4781 36.8885C27.875 36.8885 28.2279 36.5769 28.2279 36.1316C28.272 35.7755 27.9191 35.4638 27.5222 35.4193ZM28.6248 41.6971C28.6248 42.0978 28.9336 42.454 29.3746 42.454C29.7716 42.454 30.1244 42.0978 30.1244 41.6971C30.1244 41.2964 29.8157 40.9847 29.3746 40.9847C28.9336 40.9402 28.6248 41.2964 28.6248 41.6971ZM30.0803 39.8716C30.0803 39.4709 29.7716 39.1147 29.3305 39.1147C28.9336 39.1147 28.5807 39.4264 28.5807 39.8716C28.5807 40.2723 28.8895 40.6285 29.3305 40.6285C29.7716 40.584 30.0803 40.2723 30.0803 39.8716ZM12.7908 0.601815C12.3938 0.601815 12.041 0.913481 12.041 1.35872C12.041 1.75943 12.3497 2.11562 12.7908 2.11562C13.1877 2.11562 13.4965 1.80395 13.4965 1.35872C13.5406 0.913481 13.2318 0.601815 12.7908 0.601815ZM27.5222 0.601815C27.1252 0.601815 26.7724 0.913481 26.7724 1.35872C26.7724 1.75943 27.0811 2.11562 27.5222 2.11562C27.9191 2.07109 28.2279 1.75943 28.2279 1.31419C28.2279 0.913481 27.9191 0.601815 27.5222 0.601815ZM29.3305 0.601815C28.9336 0.601815 28.5807 0.913481 28.5807 1.35872C28.5807 1.75943 28.8895 2.11562 29.3305 2.11562C29.7275 2.11562 30.0362 1.80395 30.0362 1.35872C30.0803 0.913481 29.7716 0.601815 29.3305 0.601815ZM6.21896 17.877C6.21896 17.4763 5.91021 17.1201 5.46915 17.1201C5.0722 17.1201 4.71935 17.4763 4.71935 17.877C4.71935 18.2777 5.0722 18.5893 5.46915 18.5893C5.86611 18.5893 6.21896 18.2777 6.21896 17.877ZM30.0803 32.5252C30.0803 32.1245 29.7716 31.7683 29.3305 31.7683C28.9336 31.7683 28.5807 32.1245 28.5807 32.5252C28.5807 32.9259 28.8895 33.2821 29.3305 33.2821C29.7716 33.2821 30.0803 32.9259 30.0803 32.5252ZM31.183 28.1174C30.786 28.1174 30.4332 28.4291 30.4332 28.8298C30.4332 29.2305 30.786 29.5867 31.183 29.5867C31.5799 29.5867 31.9328 29.2305 31.9328 28.8298C31.9328 28.4291 31.624 28.1174 31.183 28.1174ZM13.5406 32.5252C13.5406 32.1245 13.2318 31.7683 12.7908 31.7683C12.3938 31.7683 12.041 32.08 12.041 32.5252C12.041 32.9259 12.3497 33.2821 12.7908 33.2821C13.2318 33.2821 13.5406 32.9705 13.5406 32.5252ZM30.0803 19.7024C30.0803 19.3017 29.7275 18.9455 29.3305 18.9455C28.9336 18.9455 28.5807 19.3017 28.5807 19.7024C28.5807 20.1032 28.8895 20.4593 29.3305 20.4593C29.7716 20.4148 30.0803 20.1032 30.0803 19.7024ZM26.7724 28.8298C26.7724 29.2305 27.1252 29.5867 27.5222 29.5867C27.9191 29.5867 28.272 29.2305 28.272 28.8298C28.272 28.4291 27.9632 28.0729 27.5222 28.0729C27.1252 28.1174 26.7724 28.4291 26.7724 28.8298ZM2.86689 21.5279C2.86689 21.9286 3.17564 22.2403 3.6167 22.2848C4.01365 22.2848 4.3665 21.9731 4.3665 21.5279C4.3665 21.1272 4.05776 20.8155 3.6608 20.8155C3.21974 20.771 2.86689 21.0827 2.86689 21.5279ZM30.4332 21.5279C30.4332 21.9286 30.7419 22.2848 31.183 22.2848C31.5799 22.2848 31.8887 21.9731 31.8887 21.5279C31.8887 21.1272 31.5799 20.771 31.1389 20.771C30.786 20.771 30.4332 21.1272 30.4332 21.5279ZM15.7459 8.66059C15.7459 9.0613 16.0546 9.41749 16.4516 9.41749C16.8485 9.41749 17.2014 9.0613 17.2014 8.66059C17.2014 8.25987 16.8926 7.90369 16.4957 7.90369C16.0546 7.94821 15.7459 8.25987 15.7459 8.66059ZM31.9328 6.83512C31.9328 6.43441 31.624 6.07822 31.183 6.07822C30.786 6.07822 30.4773 6.38988 30.4332 6.83512C30.4332 7.23583 30.7419 7.59202 31.183 7.59202C31.5799 7.59202 31.9328 7.23583 31.9328 6.83512ZM17.2014 6.83512C17.2014 6.43441 16.8926 6.12274 16.4516 6.12274C16.0546 6.12274 15.7018 6.47893 15.7018 6.87964C15.7018 7.28035 16.0105 7.59202 16.4516 7.59202C16.8926 7.59202 17.2014 7.23583 17.2014 6.83512ZM15.7459 21.4834C15.7459 21.8841 16.0546 22.2403 16.4957 22.2403C16.8926 22.2403 17.2455 21.9286 17.2455 21.5279C17.2455 21.1272 16.9367 20.771 16.4957 20.771C16.0546 20.771 15.7459 21.0827 15.7459 21.4834ZM17.5983 21.4834C17.5983 21.8841 17.9071 22.2403 18.3481 22.2403C18.7451 22.2403 19.0979 21.9286 19.0979 21.5279C19.0979 21.1272 18.7892 20.771 18.3481 20.771C17.9071 20.771 17.5983 21.0827 17.5983 21.4834ZM15.7459 16.007C15.7459 16.4077 16.0546 16.7639 16.4957 16.7639C16.8926 16.7639 17.2455 16.4522 17.2455 16.0515C17.2455 15.6508 16.9367 15.2946 16.4957 15.2946C16.0546 15.2501 15.7459 15.5617 15.7459 16.007ZM30.4332 8.66059C30.4332 9.0613 30.7419 9.41749 31.1389 9.41749C31.5358 9.41749 31.8887 9.0613 31.8887 8.66059C31.8887 8.25987 31.5799 7.94821 31.1389 7.90369C30.786 7.94821 30.4332 8.25987 30.4332 8.66059ZM9.12996 46.4611C8.733 46.4611 8.38015 46.7728 8.38015 47.218C8.38015 47.6187 8.733 47.9749 9.12996 47.9749C9.52691 47.9749 9.83565 47.6633 9.83565 47.218C9.87976 46.7728 9.57102 46.4611 9.12996 46.4611ZM32.2856 21.5279C32.2856 21.9286 32.5944 22.2848 33.0354 22.2848C33.4324 22.2848 33.7852 21.9731 33.7852 21.5724C33.7852 21.1717 33.4765 20.8155 33.0354 20.8155C32.5944 20.771 32.2856 21.0827 32.2856 21.5279ZM28.272 25.2234C28.272 24.8227 27.9632 24.4665 27.5222 24.4665C27.1252 24.4665 26.7724 24.8227 26.7724 25.2234C26.7724 25.6241 27.0811 25.9803 27.5222 25.9803C27.9191 25.9357 28.2279 25.6241 28.272 25.2234ZM22.0089 17.1201C21.612 17.1201 21.2591 17.4763 21.2591 17.877C21.2591 18.2777 21.612 18.6339 22.0089 18.6339C22.4059 18.6339 22.7146 18.3222 22.7146 17.877C22.7146 17.4317 22.4059 17.1201 22.0089 17.1201ZM10.9824 24.0658C11.3794 24.0658 11.7322 23.7096 11.7322 23.3089C11.7322 22.9081 11.4235 22.5519 10.9824 22.5519C10.5855 22.5519 10.2326 22.8636 10.2326 23.2643C10.2326 23.7541 10.5413 24.0658 10.9824 24.0658ZM20.1565 17.1201C19.7595 17.1201 19.4067 17.4763 19.4067 17.877C19.4067 18.2777 19.7595 18.6339 20.1565 18.6339C20.5534 18.6339 20.8622 18.2777 20.8622 17.877C20.9063 17.4317 20.5975 17.1201 20.1565 17.1201ZM32.9913 13.4246C32.5944 13.4246 32.2415 13.7808 32.2856 14.1815C32.2856 14.5822 32.6385 14.9384 33.0354 14.9384C33.4324 14.9384 33.7411 14.5822 33.7411 14.1815C33.7411 13.7363 33.4324 13.4246 32.9913 13.4246ZM15.393 6.83512C15.393 6.43441 15.0843 6.07822 14.6432 6.07822C14.2463 6.07822 13.9375 6.38988 13.8934 6.83512C13.8934 7.23583 14.2022 7.59202 14.6432 7.59202C15.0843 7.59202 15.393 7.23583 15.393 6.83512ZM3.6167 9.41749C4.01365 9.41749 4.3665 9.0613 4.3665 8.66059C4.3665 8.25987 4.01365 7.90369 3.6167 7.94821C3.21974 7.94821 2.911 8.3044 2.911 8.70511C2.86689 9.10582 3.21974 9.41749 3.6167 9.41749ZM33.7411 6.83512C33.7411 6.43441 33.4324 6.12274 33.0354 6.07822C32.6385 6.07822 32.2856 6.38988 32.2856 6.83512C32.2856 7.23583 32.5944 7.5475 33.0354 7.5475C33.4324 7.59202 33.7411 7.28035 33.7411 6.83512ZM30.0803 25.2234C30.0803 24.8227 29.7716 24.4665 29.3305 24.4665C28.9336 24.4665 28.5807 24.7781 28.5807 25.1788C28.5807 25.5796 28.8895 25.9357 29.3305 25.9357C29.7716 25.9357 30.0803 25.6241 30.0803 25.2234ZM13.5406 19.7024C13.5406 19.3017 13.2318 18.9455 12.7908 18.9455C12.3938 18.9455 12.041 19.3017 12.041 19.7024C12.041 20.1032 12.3497 20.4148 12.7908 20.4593C13.2318 20.4148 13.5406 20.1032 13.5406 19.7024ZM12.0851 28.8298C12.0851 29.2305 12.4379 29.5867 12.8349 29.5867C13.2318 29.5867 13.5847 29.2305 13.5847 28.8298C13.5847 28.4291 13.2759 28.1174 12.8349 28.0729C12.3938 28.1174 12.0851 28.4291 12.0851 28.8298ZM29.3305 37.2447C28.9336 37.2447 28.5807 37.5564 28.5807 38.0016C28.5807 38.4024 28.8895 38.7585 29.3305 38.714C29.7275 38.714 30.0362 38.4024 30.0362 37.9571C30.0803 37.6009 29.7716 37.2447 29.3305 37.2447ZM28.272 19.6579C28.272 19.2572 27.9191 18.901 27.5222 18.901C27.1252 18.901 26.7724 19.2572 26.7724 19.6579C26.7724 20.0586 27.0811 20.3703 27.5222 20.3703C27.9191 20.4148 28.272 20.1032 28.272 19.6579ZM27.5222 37.2447C27.1252 37.2447 26.7724 37.5564 26.7724 38.0016C26.7724 38.4024 27.0811 38.714 27.4781 38.714C27.9191 38.714 28.2279 38.4024 28.2279 37.9571C28.2279 37.6009 27.9191 37.2447 27.5222 37.2447ZM29.3305 15.2501C28.9336 15.2501 28.5807 15.5617 28.5807 16.007C28.5807 16.4077 28.8895 16.7639 29.2864 16.7639C29.6834 16.7639 30.0362 16.4522 30.0362 16.007C30.0803 15.5617 29.7716 15.2501 29.3305 15.2501ZM27.5222 15.2501C27.1252 15.2501 26.8165 15.5617 26.7724 16.007C26.7724 16.4077 27.0811 16.7639 27.5222 16.7639C27.9191 16.7639 28.2279 16.4522 28.2279 16.007C28.2279 15.5617 27.9191 15.2501 27.5222 15.2501ZM31.1389 15.2501C30.7419 15.2501 30.4332 15.6063 30.4332 16.007C30.4332 16.4077 30.786 16.7639 31.183 16.7639C31.5799 16.7639 31.8887 16.4077 31.8887 16.007C31.8887 15.5617 31.5799 15.2501 31.1389 15.2501ZM29.3305 3.94109C29.7275 3.94109 30.0803 3.62942 30.0803 3.18418C30.0803 2.78347 29.7716 2.42728 29.3305 2.42728C28.9336 2.42728 28.6248 2.78347 28.6248 3.18418C28.6248 3.5849 28.9336 3.94109 29.3305 3.94109ZM13.8934 16.007C13.8934 16.4077 14.2022 16.7639 14.6432 16.7639C15.0402 16.7639 15.393 16.4522 15.393 16.007C15.393 15.6063 15.0843 15.2501 14.6432 15.2501C14.2463 15.2501 13.8934 15.6063 13.8934 16.007ZM12.7908 15.2501C12.3938 15.2501 12.0851 15.5617 12.0851 16.007C12.0851 16.4077 12.3938 16.7639 12.8349 16.7639C13.2318 16.7639 13.5406 16.4522 13.5406 16.007C13.5406 15.5617 13.2318 15.2501 12.7908 15.2501ZM16.4516 13.4246C16.0546 13.4246 15.7018 13.7808 15.7459 14.1815C15.7459 14.5822 16.0546 14.9384 16.4957 14.9384C16.8926 14.9384 17.2455 14.6267 17.2455 14.1815C17.2014 13.7808 16.8926 13.4246 16.4516 13.4246ZM31.183 25.9357C31.5799 25.9357 31.9328 25.6241 31.9328 25.1788C31.9328 24.7781 31.624 24.4219 31.2271 24.4219C30.8301 24.4219 30.4773 24.7336 30.4773 25.1788C30.4773 25.6241 30.786 25.9357 31.183 25.9357ZM31.9328 27.0043C31.9328 26.6036 31.5799 26.2919 31.183 26.2919C30.786 26.2919 30.4332 26.6036 30.4332 27.0488C30.4332 27.4495 30.7419 27.8057 31.183 27.8057C31.5799 27.7612 31.9328 27.405 31.9328 27.0043ZM29.3746 13.4246C28.9777 13.4246 28.6248 13.7808 28.6248 14.1815C28.6248 14.5822 28.9336 14.9384 29.3746 14.9384C29.7716 14.9384 30.1244 14.6267 30.1244 14.1815C30.0803 13.7808 29.7716 13.4246 29.3746 13.4246ZM29.3746 28.1174C28.9777 28.1174 28.6248 28.4291 28.6248 28.8743C28.6248 29.275 28.9336 29.6312 29.3305 29.6312C29.7275 29.6312 30.0803 29.3195 30.0803 28.8743C30.0803 28.4291 29.7716 28.1174 29.3746 28.1174ZM15.393 25.2234C15.393 24.8227 15.0843 24.4665 14.6432 24.4665C14.2463 24.4665 13.8934 24.7781 13.8934 25.1788C13.8934 25.6241 14.2022 25.9357 14.5991 25.9357C15.0402 25.9357 15.393 25.6241 15.393 25.2234ZM27.5222 7.94821C27.0811 7.94821 26.7724 8.25987 26.7724 8.70511C26.7724 9.10582 27.0811 9.46201 27.5222 9.46201C27.9191 9.46201 28.2279 9.10582 28.2279 8.70511C28.2279 8.25987 27.9191 7.94821 27.5222 7.94821ZM31.183 33.2821C31.5799 33.2821 31.9328 32.9705 31.9328 32.5252C31.9328 32.1245 31.5799 31.7683 31.183 31.7683C30.786 31.7683 30.4773 32.1245 30.4773 32.5252C30.4773 32.9705 30.786 33.2821 31.183 33.2821ZM4.3665 6.83512C4.3665 6.43441 4.05776 6.07822 3.6167 6.07822C3.21974 6.07822 2.86689 6.38988 2.86689 6.7906C2.86689 7.19131 3.17564 7.5475 3.6167 7.5475C4.01365 7.59202 4.3665 7.28035 4.3665 6.83512ZM28.272 34.3507C28.272 33.95 27.9191 33.5938 27.5222 33.5938C27.1252 33.5938 26.8165 33.9055 26.7724 34.3507C26.7724 34.7514 27.0811 35.1076 27.5222 35.1076C27.9191 35.1076 28.2279 34.7514 28.272 34.3507ZM27.5222 13.4246C27.1252 13.4246 26.7724 13.7363 26.7724 14.1815C26.7724 14.5822 27.0811 14.9384 27.5222 14.9384C27.9191 14.9384 28.272 14.6267 28.272 14.1815C28.272 13.7808 27.9191 13.4246 27.5222 13.4246ZM12.0851 3.18418C12.0851 3.5849 12.3938 3.94109 12.8349 3.94109C13.2318 3.94109 13.5847 3.62942 13.5847 3.18418C13.5847 2.78347 13.2759 2.42728 12.8349 2.42728C12.3938 2.47181 12.0851 2.78347 12.0851 3.18418ZM30.4332 34.3507C30.4332 34.7514 30.786 35.0631 31.183 35.0631C31.5799 35.0631 31.9328 34.7514 31.9328 34.3062C31.9328 33.9055 31.5799 33.5493 31.183 33.5493C30.786 33.5938 30.4332 33.95 30.4332 34.3507ZM27.5222 44.5911C27.1252 44.5911 26.7724 44.9473 26.7724 45.348C26.7724 45.7487 27.0811 46.0604 27.5222 46.0604C27.9191 46.0604 28.272 45.7487 28.272 45.348C28.2279 44.9028 27.9191 44.5911 27.5222 44.5911ZM34.8438 9.77368C34.4468 9.77368 34.094 10.1299 34.094 10.5306C34.094 10.9313 34.4027 11.2875 34.8438 11.2875C35.2407 11.2875 35.5936 10.9313 35.5936 10.5306C35.5936 10.1299 35.2849 9.77368 34.8438 9.77368ZM13.5406 25.1788C13.5406 24.7781 13.2318 24.4219 12.7908 24.4219C12.3938 24.4219 12.0851 24.7336 12.041 25.1788C12.041 25.5796 12.3497 25.9357 12.7908 25.9357C13.2318 25.9357 13.5406 25.6241 13.5406 25.1788ZM30.0803 27.0043C30.0803 26.6036 29.7275 26.2919 29.3305 26.2919C28.9336 26.2919 28.5807 26.6481 28.5807 27.0488C28.5807 27.4495 28.9336 27.7612 29.3305 27.7612C29.7716 27.7612 30.0803 27.405 30.0803 27.0043ZM21.2591 28.7853C21.2591 29.2305 21.5679 29.5867 22.0089 29.5867C22.4059 29.5867 22.7587 29.2305 22.7587 28.8298C22.7587 28.4291 22.45 28.0729 22.0089 28.0729C21.612 28.1174 21.2591 28.4291 21.2591 28.7853ZM12.8349 13.4246C12.4379 13.4246 12.0851 13.7808 12.0851 14.1815C12.0851 14.5822 12.3938 14.9384 12.8349 14.9384C13.2318 14.9384 13.5847 14.5822 13.5847 14.1815C13.5406 13.7808 13.2318 13.4246 12.8349 13.4246ZM23.1116 30.6998C23.1116 31.1005 23.4644 31.4121 23.8614 31.4121C24.2583 31.4121 24.6112 31.056 24.6112 30.6552C24.6112 30.2545 24.2583 29.8983 23.8614 29.8983C23.4203 29.9429 23.0675 30.2545 23.1116 30.6998ZM12.7908 7.94821C12.3938 7.94821 12.0851 8.25987 12.0851 8.70511C12.0851 9.10582 12.4379 9.46201 12.8349 9.46201C13.2318 9.46201 13.5406 9.10582 13.5406 8.70511C13.5406 8.25987 13.2318 7.94821 12.7908 7.94821ZM13.5406 34.3507C13.5406 33.95 13.2318 33.5938 12.7908 33.5938C12.3938 33.5938 12.041 33.9055 12.041 34.3062C12.041 34.7069 12.3497 35.0631 12.7908 35.0631C13.2318 35.1076 13.5406 34.7959 13.5406 34.3507ZM19.0538 6.83512C19.0538 6.43441 18.7451 6.12274 18.304 6.12274C17.9071 6.12274 17.5542 6.47893 17.5542 6.87964C17.5542 7.28035 17.863 7.59202 18.304 7.59202C18.7451 7.59202 19.0538 7.23583 19.0538 6.83512ZM28.6248 34.3507C28.6248 34.7514 28.9336 35.1076 29.3746 35.1076C29.7716 35.1076 30.1244 34.7959 30.1244 34.3952C30.1244 33.9945 29.8157 33.6383 29.3746 33.6383C28.9336 33.5938 28.6248 33.95 28.6248 34.3507ZM2.51405 6.83512C2.51405 6.43441 2.2053 6.07822 1.76424 6.07822C1.36729 6.07822 1.01444 6.38988 1.01444 6.83512C1.01444 7.23583 1.32318 7.59202 1.76424 7.59202C2.2053 7.59202 2.51405 7.28035 2.51405 6.83512ZM32.9913 3.94109C33.3883 3.94109 33.7411 3.62942 33.7411 3.18418C33.7411 2.78347 33.4324 2.42728 32.9913 2.42728C32.5944 2.42728 32.2856 2.73895 32.2856 3.18418C32.2856 3.62942 32.5944 3.94109 32.9913 3.94109ZM31.183 3.94109C31.5799 3.94109 31.9328 3.62942 31.9328 3.18418C31.9328 2.78347 31.624 2.42728 31.183 2.42728C30.786 2.42728 30.4773 2.73895 30.4773 3.18418C30.4773 3.62942 30.786 3.94109 31.183 3.94109ZM28.272 39.8716C28.272 39.4709 27.9632 39.1147 27.5663 39.1147C27.1693 39.1147 26.8165 39.4264 26.8165 39.8716C26.8165 40.2723 27.1252 40.584 27.5663 40.584C27.9191 40.584 28.2279 40.2723 28.272 39.8716ZM15.7459 3.18418C15.7459 3.5849 16.0546 3.94109 16.4957 3.94109C16.8926 3.94109 17.2014 3.62942 17.2455 3.18418C17.2455 2.78347 16.9367 2.42728 16.4957 2.42728C16.0546 2.47181 15.7459 2.78347 15.7459 3.18418ZM14.6432 3.94109C15.0402 3.94109 15.393 3.62942 15.393 3.18418C15.393 2.78347 15.0843 2.47181 14.6432 2.42728C14.2463 2.42728 13.8934 2.73895 13.8934 3.18418C13.9375 3.62942 14.2463 3.94109 14.6432 3.94109ZM31.183 0.601815C30.786 0.601815 30.4332 0.958004 30.4332 1.35872C30.4332 1.75943 30.7419 2.07109 31.183 2.11562C31.5799 2.11562 31.9328 1.80395 31.9328 1.35872C31.8887 0.913481 31.5799 0.601815 31.183 0.601815ZM31.183 13.4246C30.786 13.4246 30.4332 13.7808 30.4332 14.1815C30.4332 14.5822 30.7419 14.9384 31.183 14.9384C31.5799 14.9384 31.9328 14.6267 31.9328 14.1815C31.9328 13.7808 31.5799 13.4246 31.183 13.4246ZM3.6167 3.94109C4.01365 3.94109 4.32239 3.62942 4.32239 3.18418C4.32239 2.78347 4.01365 2.42728 3.57259 2.42728C3.17564 2.42728 2.86689 2.73895 2.86689 3.18418C2.911 3.62942 3.21974 3.94109 3.6167 3.94109ZM12.7908 27.7612C13.1877 27.7612 13.5406 27.4495 13.5406 27.0043C13.5406 26.6036 13.2318 26.2474 12.8349 26.2474C12.4379 26.2474 12.0851 26.5591 12.0851 27.0043C12.0851 27.405 12.3938 27.7612 12.7908 27.7612ZM14.6432 26.2919C14.2463 26.2919 13.9375 26.6036 13.8934 27.0488C13.8934 27.4495 14.2463 27.8057 14.6432 27.8057C15.0402 27.8057 15.393 27.4495 15.393 27.0488C15.393 26.6036 15.0402 26.2919 14.6432 26.2919ZM26.7724 27.0043C26.7724 27.405 27.1252 27.7612 27.5222 27.7612C27.9191 27.7612 28.272 27.405 28.272 27.0043C28.272 26.6036 27.9632 26.2474 27.5222 26.2474C27.1252 26.2919 26.7724 26.6036 26.7724 27.0043ZM13.8934 8.66059C13.8934 9.0613 14.2022 9.41749 14.5991 9.41749C14.9961 9.41749 15.3489 9.0613 15.3489 8.66059C15.3489 8.25987 15.0402 7.90369 14.6432 7.90369C14.2463 7.94821 13.8934 8.25987 13.8934 8.66059ZM18.304 3.94109C18.701 3.94109 19.0538 3.62942 19.0538 3.18418C19.0538 2.78347 18.7451 2.42728 18.3481 2.42728C17.9512 2.42728 17.5983 2.73895 17.5983 3.18418C17.5983 3.62942 17.9071 3.94109 18.304 3.94109ZM29.3305 7.94821C28.9336 7.94821 28.6248 8.25987 28.6248 8.70511C28.6248 9.10582 28.9777 9.46201 29.3746 9.46201C29.7716 9.46201 30.0803 9.10582 30.0803 8.70511C30.0803 8.25987 29.7716 7.94821 29.3305 7.94821ZM14.6432 13.4246C14.2463 13.4246 13.8934 13.7363 13.8934 14.1815C13.8934 14.5822 14.2022 14.9384 14.5991 14.9384C14.9961 14.9384 15.3489 14.6267 15.3489 14.1815C15.393 13.7808 15.0402 13.4246 14.6432 13.4246ZM10.9824 42.7657C10.5855 42.7657 10.2326 43.1219 10.2326 43.5226C10.2326 43.9233 10.5855 44.2795 10.9824 44.2795C11.3794 44.2795 11.7322 43.9678 11.7322 43.5226C11.6881 43.0773 11.3794 42.7657 10.9824 42.7657ZM9.12996 31.4121C9.52691 31.4121 9.87976 31.056 9.87976 30.6552C9.87976 30.2545 9.52691 29.8983 9.12996 29.8983C8.733 29.8983 8.38015 30.21 8.38015 30.6552C8.38015 31.1005 8.733 31.4121 9.12996 31.4121ZM25.6697 31.4121C26.0667 31.4121 26.4195 31.056 26.4195 30.6552C26.4195 30.2545 26.0667 29.8983 25.6697 29.8983C25.2728 29.8983 24.9199 30.2545 24.9199 30.6552C24.9199 31.1005 25.2728 31.4121 25.6697 31.4121ZM9.12996 42.7657C8.733 42.7657 8.38015 43.0773 8.38015 43.5226C8.38015 43.9233 8.68889 44.2795 9.08585 44.2795C9.4828 44.2795 9.83565 43.9678 9.83565 43.5226C9.87976 43.0773 9.52691 42.7657 9.12996 42.7657ZM25.6697 42.7657C25.2728 42.7657 24.9199 43.1219 24.964 43.5226C24.964 43.9233 25.3169 44.2795 25.7138 44.2795C26.1108 44.2795 26.4636 43.9678 26.4636 43.5226C26.4195 43.0773 26.0667 42.7657 25.6697 42.7657ZM13.8934 1.31419C13.8934 1.71491 14.2022 2.07109 14.5991 2.07109C14.9961 2.07109 15.3489 1.75943 15.3489 1.31419C15.3489 0.868957 15.0402 0.601815 14.5991 0.601815C14.2463 0.601815 13.8934 0.913481 13.8934 1.31419ZM10.9383 31.4121C11.3353 31.4121 11.6881 31.056 11.6881 30.6552C11.6881 30.2545 11.3353 29.8983 10.9383 29.8983C10.5413 29.8983 10.2326 30.2545 10.2326 30.6552C10.2326 31.1005 10.5413 31.4121 10.9383 31.4121ZM6.5718 43.5226C6.5718 43.9233 6.92465 44.2795 7.32161 44.2795C7.71856 44.2795 8.07141 43.9233 8.07141 43.5226C8.07141 43.1219 7.76267 42.7657 7.32161 42.7657C6.88055 42.7657 6.5718 43.0773 6.5718 43.5226ZM2.51405 17.7879C2.46994 17.4763 2.29352 17.2982 2.02888 17.1646C1.76424 17.0755 1.49961 17.1201 1.27908 17.2982C1.05855 17.4763 1.01444 17.6989 1.14676 18.0105C1.19086 18.0996 1.19086 18.1886 1.23497 18.2777C1.27908 18.3667 1.32318 18.4113 1.36729 18.4558C1.63192 18.6339 1.89656 18.6339 2.1612 18.5003C2.42583 18.3667 2.55815 18.1441 2.55815 17.877C2.51405 17.8324 2.51405 17.7879 2.51405 17.7879ZM24.4789 37.6454C24.3024 37.3338 23.9496 37.2002 23.5967 37.2893C23.288 37.4228 23.1116 37.69 23.1998 38.0462C23.1998 38.0907 23.1998 38.1352 23.2439 38.1797C23.288 38.5359 23.5085 38.714 23.8614 38.714C24.3907 38.7585 24.7435 38.1352 24.4789 37.6454ZM17.5983 23.1308C17.5101 23.4424 17.5983 23.7541 17.863 23.9322C17.9071 23.9767 17.9953 23.9767 18.0835 23.9767C18.2158 23.9767 18.3481 23.9767 18.4804 23.9767C18.5687 23.9767 18.6569 23.9767 18.701 23.9322C18.9656 23.7541 19.0979 23.3979 19.0097 23.1308C18.9215 22.8191 18.6569 22.5965 18.304 22.5965C17.9953 22.5965 17.6865 22.8191 17.5983 23.1308ZM30.4332 36.1762C30.4332 36.5769 30.786 36.9331 31.183 36.9331C31.5358 36.9331 31.7123 36.755 31.7564 36.4433C31.7564 36.3097 31.8005 36.1762 31.8005 36.0426C31.8005 35.9536 31.8005 35.82 31.7564 35.7755C31.624 35.5974 31.4035 35.4638 31.1389 35.4638C30.786 35.4193 30.4332 35.7755 30.4332 36.1762ZM13.8934 28.8298C13.8934 29.2305 14.2463 29.5867 14.6432 29.5867C14.952 29.5867 15.0843 29.4531 15.1725 29.186C15.2166 29.0524 15.2166 28.9188 15.2607 28.8298C15.3489 28.6072 15.2607 28.4291 15.0843 28.2955C14.952 28.2064 14.7755 28.1619 14.6432 28.0729C14.2463 28.1174 13.9375 28.4291 13.8934 28.8298ZM12.879 38.7585C13.1436 38.7585 13.2759 38.625 13.32 38.3578C13.3641 38.1797 13.3641 37.9571 13.4082 37.779C13.4523 37.6454 13.4082 37.5564 13.32 37.4674C13.0995 37.2447 12.7025 37.1557 12.4379 37.3338C12.1292 37.5119 11.9968 37.8681 12.0851 38.1797C12.1733 38.4914 12.4379 38.714 12.7908 38.714C12.8349 38.7585 12.8349 38.7585 12.879 38.7585ZM35.329 18.2777C35.3731 18.0551 35.4613 17.877 35.5054 17.6544C35.5054 17.5653 35.5054 17.4763 35.4613 17.3872C35.2849 17.1201 34.8879 17.031 34.5792 17.1646C34.2704 17.2982 34.094 17.6544 34.1822 18.0105C34.2704 18.3667 34.535 18.5893 34.8879 18.5893C35.1525 18.5893 35.2407 18.5448 35.329 18.2777ZM20.8181 1.00253C20.774 0.824433 20.6416 0.735386 20.4211 0.77991C20.2006 0.824433 19.9359 0.868957 19.6713 0.868957C19.539 0.868957 19.4508 0.958004 19.4067 1.04705C19.3185 1.35872 19.3626 1.62586 19.5831 1.84848C19.8036 2.07109 20.1124 2.11562 20.377 1.98205C20.6416 1.84848 20.8181 1.62586 20.8181 1.26967C20.8622 1.22515 20.8622 1.09158 20.8181 1.00253ZM16.9808 0.913481C16.6721 0.868957 16.4075 0.824433 16.0987 0.824433C16.0105 0.824433 15.9223 0.868957 15.8782 0.913481C15.6577 1.18062 15.6577 1.53681 15.8341 1.80395C16.0105 2.07109 16.3633 2.20466 16.6721 2.07109C16.9808 1.93752 17.2014 1.67038 17.2014 1.31419C17.2014 1.04705 17.1132 0.913481 16.9808 0.913481ZM6.17485 38.2243C6.26306 37.9126 6.17485 37.6009 5.91021 37.4228C5.64558 37.2447 5.29273 37.2447 5.0722 37.4228C4.98398 37.4674 4.93988 37.5564 4.93988 37.69C4.98398 37.9571 5.02809 38.2243 5.0722 38.4469C5.1163 38.714 5.16041 38.7585 5.46915 38.7585C5.77789 38.7585 6.08664 38.5359 6.17485 38.2243ZM3.17564 22.7746C3.04332 22.8636 2.99921 22.9527 3.08742 23.0862C3.17564 23.3534 3.26385 23.6205 3.30795 23.8877C3.30795 24.0212 3.39617 24.0658 3.52849 24.0658C3.96955 24.1103 4.32239 23.7986 4.3665 23.3534C4.41061 22.9081 4.05776 22.5965 3.6167 22.5519C3.44027 22.641 3.30795 22.6855 3.17564 22.7746ZM24.523 40.1388C24.6553 39.8716 24.5671 39.56 24.3465 39.3373C24.126 39.1147 23.8173 39.0702 23.5526 39.2038C23.4644 39.2483 23.3762 39.2928 23.4203 39.4264C23.5085 39.7381 23.5526 40.0942 23.5967 40.4059C23.6409 40.584 23.685 40.6285 23.8173 40.6285C24.1701 40.584 24.3907 40.4059 24.523 40.1388ZM33.0354 24.0658C33.0795 24.0658 33.1678 24.0212 33.2119 23.9322C33.3442 23.576 33.4324 23.2198 33.5206 22.9081C33.5647 22.8191 33.5206 22.7746 33.4324 22.6855C33.1678 22.5519 32.9472 22.5074 32.6826 22.641C32.418 22.7746 32.2856 22.9972 32.2856 23.2198C32.2856 23.7541 32.6385 24.1103 33.0354 24.0658ZM7.63035 44.6802C7.36571 44.5466 7.10108 44.5466 6.88055 44.7247C6.79233 44.7692 6.74823 44.8583 6.79233 44.9473C6.92465 45.3035 7.05697 45.6152 7.18929 45.9714C7.23339 46.0604 7.2775 46.1049 7.36571 46.1049C7.71856 46.0604 8.0273 45.7487 8.0273 45.348C8.0273 45.0364 7.89499 44.8137 7.63035 44.6802ZM31.4035 38.5359C31.4476 38.1797 31.5358 37.8681 31.5799 37.5119C31.624 37.4228 31.5799 37.3783 31.4917 37.3338C31.2271 37.2002 30.9184 37.2447 30.6978 37.4674C30.4773 37.69 30.3891 38.0016 30.4773 38.3133C30.5655 38.5804 30.8301 38.8031 31.183 38.8031C31.3153 38.7585 31.3594 38.714 31.4035 38.5359ZM18.701 1.04705C18.3922 1.09158 18.0835 1.09158 17.7747 1.04705C17.6424 1.00253 17.5983 1.04705 17.5542 1.18062C17.5101 1.49229 17.5542 1.71491 17.8188 1.93752C18.0394 2.11562 18.3481 2.16014 18.6128 2.02657C18.8774 1.893 19.0097 1.67038 19.0097 1.35872C19.0538 1.04705 19.0097 1.00253 18.701 1.04705ZM20.1565 25.8022C20.2006 25.9357 20.2888 25.9357 20.377 25.8912C20.6857 25.8022 20.8622 25.4905 20.8622 25.1788C20.8622 24.8672 20.6416 24.6 20.377 24.4665C20.0683 24.3774 19.7595 24.4665 19.5831 24.7336C19.8036 25.1343 19.98 25.446 20.1565 25.8022ZM25.8903 46.5056C25.5815 46.4166 25.2728 46.5056 25.0963 46.7728C25.0522 46.8173 25.0522 46.9509 25.0963 46.9954C25.3169 47.2625 25.4933 47.4852 25.7579 47.7078C26.0667 47.9749 26.2431 47.8859 26.3754 47.5297C26.4195 47.4406 26.4195 47.3516 26.4195 47.2625C26.4195 46.8618 26.199 46.5947 25.8903 46.5056ZM21.7002 29.9874C21.612 30.0319 21.5679 30.0764 21.612 30.1655C21.7002 30.5217 21.7884 30.9224 21.8766 31.2786C21.8766 31.3676 21.9207 31.4121 22.053 31.4121C22.45 31.4121 22.7587 31.056 22.7587 30.6552C22.7146 30.121 22.1854 29.7648 21.7002 29.9874ZM12.7908 40.584C12.879 40.584 12.9672 40.5395 12.9672 40.4504C13.0113 40.0942 13.0995 39.6935 13.1436 39.3373C13.1877 39.2038 13.0995 39.1593 13.0113 39.1147C12.5261 38.9812 12.0851 39.2928 12.0851 39.7826C12.0851 40.2278 12.3938 40.584 12.7908 40.584ZM29.1541 46.0604C29.2423 46.0604 29.2864 46.0604 29.3305 45.9714C29.4629 45.6152 29.5952 45.259 29.7275 44.9028C29.7716 44.8137 29.7275 44.7692 29.6393 44.7247C29.1541 44.4576 28.5366 44.8137 28.5366 45.3926C28.6248 45.7042 28.8454 45.9714 29.1541 46.0604ZM10.4972 47.7523C10.5413 47.7968 10.6296 47.7968 10.6737 47.7523C11.0265 47.5742 11.2912 47.2625 11.5117 46.9064C11.5558 46.8173 11.5558 46.7283 11.4676 46.6392C11.247 46.4611 10.9383 46.3721 10.6737 46.5056C10.409 46.6392 10.2767 46.8618 10.2326 47.129C10.2326 47.3961 10.3208 47.6187 10.4972 47.7523ZM16.231 24.511C15.9664 24.6 15.79 24.8672 15.79 25.1343C15.79 25.446 15.9223 25.7131 16.1869 25.8467C16.2751 25.8912 16.3192 25.8912 16.3633 25.8022C16.5839 25.4015 16.8044 25.0453 17.0249 24.6446C16.8044 24.4665 16.4957 24.3774 16.231 24.511ZM14.952 29.9874C14.6432 29.8538 14.3345 29.8983 14.158 30.0764C13.9375 30.2991 13.8493 30.5662 13.9375 30.8779C14.0257 31.1895 14.2904 31.3676 14.6432 31.3676C14.7755 30.9224 14.8637 30.4771 14.952 29.9874ZM2.33762 3.67394C2.60226 3.31775 2.55815 2.828 2.2053 2.60538C2.11709 2.56085 2.07298 2.51633 1.98477 2.60538C1.76424 2.96157 1.49961 3.31775 1.27908 3.71847C1.63192 4.03013 2.11709 3.98561 2.33762 3.67394ZM3.04332 1.53681C2.911 1.62586 2.95511 1.67038 3.04332 1.80395C3.30795 2.11562 3.79312 2.16014 4.10186 1.893C4.45471 1.62586 4.45471 1.1361 4.14597 0.77991C3.74902 1.04705 3.39617 1.31419 3.04332 1.53681ZM32.3297 1.62586C32.4621 1.893 32.6826 2.07109 32.9913 2.07109C33.3001 2.07109 33.5206 1.93752 33.6529 1.67038C33.256 1.40324 32.859 1.1361 32.4621 0.824433C32.2415 1.09158 32.2415 1.35872 32.3297 1.62586ZM6.17485 40.0942C6.26306 39.8271 6.21896 39.56 5.99843 39.3373C5.77789 39.1147 5.55736 39.0702 5.24862 39.1592C5.33683 39.649 5.46915 40.0942 5.55736 40.584C5.86611 40.5395 6.08664 40.3614 6.17485 40.0942ZM34.535 2.51633C34.094 2.78347 34.0058 3.22871 34.2263 3.5849C34.4468 3.94109 34.932 4.03013 35.2849 3.71847C35.0643 3.36228 34.7997 2.96157 34.535 2.51633ZM2.46994 19.3908C2.29352 18.9901 1.85245 18.8565 1.4555 19.0346C1.63192 19.4798 1.80835 19.9251 1.98477 20.4148C2.42583 20.2367 2.64636 19.7915 2.46994 19.3908ZM3.74902 25.8912C4.19008 25.8467 4.45471 25.4015 4.32239 25.0007C4.23418 24.6 3.79312 24.3774 3.44027 24.4665C3.57259 24.9562 3.6608 25.446 3.74902 25.8912ZM24.523 41.519C24.4348 41.1183 24.0378 40.8957 23.685 40.9847C23.7732 41.4745 23.8614 41.9197 23.9496 42.4095C24.3907 42.3204 24.6553 41.9197 24.523 41.519ZM0 11.243C0.396955 11.1984 0.661591 10.9313 0.661591 10.5306C0.705697 10.1299 0.441061 9.86272 0 9.77368C0 10.2634 0 10.7532 0 11.243ZM0.661591 8.66059C0.661591 8.25987 0.352849 7.94821 0 7.99273C0 8.48249 0 8.92773 0 9.41749C0.396955 9.37296 0.705697 9.0613 0.661591 8.66059ZM34.1822 19.4353C34.0499 19.7915 34.2263 20.1922 34.5792 20.3258C34.7556 19.8805 34.932 19.4353 35.1084 18.9901C34.6674 18.8565 34.2704 19.0791 34.1822 19.4353ZM31.2712 39.1592C30.9184 39.0702 30.5655 39.3373 30.4773 39.6935C30.3891 40.0942 30.5655 40.4504 31.0066 40.584C31.0948 40.0942 31.183 39.6045 31.2712 39.1592ZM12.8349 41.1183C12.8349 41.0738 12.8349 41.0292 12.8349 40.9402C12.482 40.8957 12.1292 41.1183 12.0851 41.4745C11.9968 41.8752 12.1733 42.2314 12.5702 42.3649C12.7025 41.9642 12.7467 41.519 12.8349 41.1183ZM32.9031 25.1788C32.9472 24.9562 32.9913 24.7336 33.0354 24.4665C32.6826 24.4219 32.3738 24.6891 32.2856 25.0453C32.1974 25.4015 32.3738 25.7576 32.7267 25.8912C32.8149 25.6241 32.859 25.4015 32.9031 25.1788ZM22.7146 32.3917C22.6264 32.0355 22.3618 31.8129 21.9648 31.8129C22.053 32.2581 22.1412 32.7479 22.2736 33.2376C22.6264 33.0595 22.8028 32.7033 22.7146 32.3917ZM0.661591 12.2225C0.617485 11.9108 0.352849 11.6437 0.0441061 11.5991C0.0441061 11.6437 0.0441061 11.6882 0.0441061 11.6882C0.0882121 12.1334 0.132318 12.5341 0.132318 12.9794C0.529273 12.9349 0.705697 12.6232 0.661591 12.2225ZM35.9464 10.4415C35.9023 10.7977 36.167 11.1539 36.5198 11.1984C36.5198 10.7532 36.5198 10.2634 36.5198 9.8182C36.2552 9.8182 35.9905 10.1299 35.9464 10.4415ZM36.5198 7.99273C36.2111 8.03726 35.9905 8.3044 35.9905 8.61606C35.9905 9.01678 36.167 9.28392 36.5198 9.37296C36.5198 8.92773 36.5198 8.43797 36.5198 7.99273ZM0 7.59202C0.352849 7.5475 0.573379 7.32488 0.661591 7.01321C0.749803 6.65702 0.617485 6.34536 0.308742 6.21179C0.22053 6.65702 0.132318 7.10226 0 7.59202ZM14.4227 32.4807C14.4668 32.2581 14.5109 32.0355 14.555 31.8129C14.2463 31.8574 13.9816 32.08 13.9375 32.3471C13.8493 32.6588 13.9816 32.9705 14.2904 33.1486C14.3345 32.9259 14.3786 32.7033 14.4227 32.4807ZM36.4757 12.3115C36.4757 12.0889 36.5198 11.8663 36.5198 11.6437C36.167 11.7327 35.9905 11.9999 35.9905 12.356C35.9905 12.6677 36.167 12.9349 36.4316 13.0239C36.4316 12.7568 36.4316 12.5341 36.4757 12.3115ZM4.32239 26.8707C4.27829 26.6036 4.05776 26.381 3.79312 26.3365C3.83723 26.7817 3.92544 27.2269 3.96955 27.6722C4.27829 27.4495 4.41061 27.1824 4.32239 26.8707ZM36.2552 6.25631C36.0347 6.47893 35.9023 6.70155 35.9464 6.96869C35.9905 7.23583 36.167 7.45845 36.4757 7.5475C36.4316 7.10226 36.3434 6.70155 36.2552 6.25631ZM5.95432 42.2314C6.39538 41.7861 6.21896 41.1183 5.64558 40.9847C5.73379 41.3854 5.822 41.7861 5.95432 42.2314ZM24.3024 44.1014C24.523 43.8787 24.6112 43.6116 24.523 43.2999C24.4348 43.0328 24.3024 42.8992 24.0378 42.8102C24.126 43.2554 24.2142 43.6561 24.3024 44.1014ZM0.396955 14.7603C0.838015 14.4041 0.749803 13.7808 0.22053 13.5137C0.264636 13.9144 0.352849 14.3151 0.396955 14.7603ZM32.5062 27.5386V27.4941C32.5503 27.1379 32.5944 26.7817 32.6385 26.381C32.2415 26.6036 32.1533 27.2715 32.5062 27.5386ZM12.3056 44.0123C12.3938 43.6116 12.482 43.2554 12.5261 42.8547C12.041 43.0773 11.9527 43.6116 12.3056 44.0123ZM7.93909 47.4406C8.15962 46.9954 7.85088 46.5056 7.36571 46.4611C7.58624 46.8173 7.76267 47.129 7.93909 47.4406ZM36.3434 13.5582C35.9464 13.8253 35.8582 14.3596 36.167 14.6713C36.2111 14.2706 36.2552 13.9144 36.3434 13.5582ZM7.40982 0.245627C7.58624 0.201103 7.71856 0.156579 7.85088 -0.0215149C7.49803 -0.0215149 7.14518 -0.0215149 6.74823 -0.0215149C6.92465 0.201103 7.14518 0.29015 7.40982 0.245627ZM4.10186 29.3641C4.45471 29.0079 4.41061 28.5181 4.01365 28.2064C4.05776 28.6517 4.10186 29.0079 4.10186 29.3641ZM8.60068 -0.0215149C8.90942 0.334674 9.4387 0.334674 9.70333 -0.0215149C9.30638 -0.0215149 8.95353 -0.0215149 8.60068 -0.0215149ZM28.0515 -0.0215149C27.6986 -0.0215149 27.3458 -0.0215149 26.9488 -0.0215149C27.3017 0.334674 27.8309 0.334674 28.0515 -0.0215149ZM29.8598 -0.0215149C29.507 -0.0215149 29.1541 -0.0215149 28.7572 -0.0215149C29.0659 0.334674 29.6393 0.334674 29.8598 -0.0215149ZM30.6096 42.0978C30.6978 41.7416 30.786 41.3854 30.8742 41.0292C30.4332 41.2073 30.3009 41.7416 30.6096 42.0978ZM20.8181 27.3605C21.0386 26.9598 20.8622 26.5145 20.4211 26.3365C20.5534 26.6926 20.6857 27.0043 20.8181 27.3605ZM22.5823 34.7514C22.8469 34.4843 22.7587 33.95 22.3618 33.7274C22.45 34.0836 22.4941 34.3952 22.5823 34.7514ZM4.14597 30.1655C4.14597 30.4771 4.14597 30.7888 4.14597 31.145C4.41061 30.8333 4.41061 30.3881 4.14597 30.1655ZM28.6689 47.3961C28.8454 47.0844 28.9777 46.8173 29.1541 46.5056C28.7572 46.5947 28.5366 46.9954 28.6689 47.3961ZM25.3169 0.156579C25.5815 0.334674 25.8903 0.29015 26.1108 0.0675323C25.8462 0.0675323 25.5815 0.112056 25.3169 0.156579ZM16.0987 26.4255C15.8341 26.6036 15.7018 26.8707 15.79 27.2269C15.8782 26.9153 15.9664 26.6926 16.0987 26.4255ZM11.2912 0.156579C11.0265 0.112056 10.7619 0.112056 10.4972 0.0675323C10.7619 0.29015 11.0706 0.29015 11.2912 0.156579ZM14.158 33.8164C13.8934 34.039 13.8493 34.3507 14.0257 34.6178C14.0257 34.3952 14.1139 34.1281 14.158 33.8164ZM32.418 29.186C32.418 28.9188 32.4621 28.6962 32.4621 28.4291C32.2415 28.6517 32.2415 29.0079 32.418 29.186ZM4.23418 32.8369C4.3665 32.5698 4.3665 32.3471 4.14597 32.1245C4.19008 32.3471 4.23418 32.6143 4.23418 32.8369ZM2.24941 20.9491C2.33762 21.1272 2.42583 21.3053 2.51405 21.4834C2.51405 21.2162 2.42583 21.0827 2.24941 20.9491ZM32.3739 30.9669C32.3739 30.7888 32.3739 30.6107 32.3739 30.3881H32.3297C32.3297 30.5662 32.3297 30.7443 32.3297 30.9669C32.3297 30.9669 32.3297 30.9669 32.3739 30.9669Z" fill="url(#paint0_linear_2885_2617)"/>
<path d="M45.4746 26.8265V20.5486H47.283C49.2677 16.9867 49.7088 12.3118 49.7088 7.99298H60.1178V20.5486H62.0585V26.8265H59.1475V23.4872H48.3415V26.8265H45.4746ZM50.7673 20.5486H56.854V10.9761H52.7962C52.5757 14.4044 52.0905 18.0108 50.7673 20.5486Z" fill="black"/>
<path d="M62.8086 23.4427L69.0717 7.99298H72.6001L78.8632 23.4872H75.467L74.3644 20.5932H67.3515L66.2048 23.4872H62.8086V23.4427ZM68.366 17.8327H73.3058L71.1446 12.2672C71.0564 11.9556 70.9241 11.6439 70.8359 11.0651C70.7477 11.6439 70.6154 11.9556 70.4831 12.2672L68.366 17.8327Z" fill="black"/>
<path d="M90.7295 23.4425V15.4728C90.7295 14.7604 90.7295 14.0035 90.7736 13.3356L83.6284 23.4425H80.541V7.99279H83.849V15.9625C83.849 16.6749 83.849 17.4318 83.8049 18.0997L90.95 7.99279H94.0375V23.487H90.7295V23.4425ZM90.7295 5.90018V3.49591C89.5828 4.20829 88.4801 4.43091 87.2892 4.43091C86.0984 4.43091 85.0398 4.20829 83.8931 3.49591V5.90018C84.8634 6.56804 85.8778 6.8797 87.2892 6.8797C88.7006 6.8797 89.7592 6.56804 90.7295 5.90018Z" fill="black"/>
<path d="M113.882 7.99298V23.4872H110.574V13.9146L106.516 20.1479H104.62L100.562 13.9146V23.4872H97.2539V7.99298H100.297L105.546 16.0518L110.839 7.99298H113.882Z" fill="black"/>
<path d="M124.468 7.68146C129.893 7.68146 132.628 11.5105 132.628 15.7402C132.628 19.97 129.893 23.799 124.468 23.799C119.043 23.799 116.309 19.97 116.309 15.7402C116.309 11.5105 119.043 7.68146 124.468 7.68146ZM124.468 10.7536C121.248 10.7536 119.661 13.0243 119.661 15.7402C119.661 18.4562 121.248 20.7269 124.468 20.7269C127.644 20.7269 129.232 18.4562 129.232 15.7402C129.232 13.0243 127.644 10.7536 124.468 10.7536Z" fill="black"/>
<path d="M148.506 7.99298V23.4872H145.198V17.2539H138.318V23.4872H135.01V7.99298H138.318V14.2263H145.198V7.99298H148.506Z" fill="black"/>
<path d="M150.625 26.8265V20.5486H152.433C154.418 16.9867 154.859 12.3118 154.859 7.99298H165.268V20.5486H167.209V26.8265H164.298V23.4872H153.492V26.8265H150.625ZM155.918 20.5486H162.004V10.9761H157.903C157.682 14.4044 157.197 18.0108 155.918 20.5486Z" fill="black"/>
<path d="M48.121 32.0353C48.6502 32.0353 49.1795 32.1689 49.5765 32.3915V33.371C49.2236 33.1038 48.7385 32.9703 48.2533 32.9703C47.4153 32.9703 46.5773 33.4155 46.5773 34.5286C46.5773 35.5972 47.4153 36.0869 48.2533 36.0869C48.7385 36.0869 49.2677 35.9534 49.6206 35.7307V36.7103C49.1795 36.9329 48.6502 37.0219 48.0328 37.0219C46.7537 37.0219 45.4746 36.265 45.4746 34.5286C45.4746 32.7922 46.8419 32.0353 48.121 32.0353Z" fill="black"/>
<path d="M51.8272 36.9327V33.0591H50.1953V32.1241H54.5177V33.0591H52.8858V36.9327H51.8272Z" fill="black"/>
<path d="M57.4703 32.0353C58.7934 32.0353 60.0284 32.9257 60.0284 34.5731C60.0284 36.2205 58.7934 37.111 57.4703 37.111C56.1471 37.111 54.9121 36.2205 54.9121 34.5731C54.9121 32.8812 56.1471 32.0353 57.4703 32.0353ZM57.4703 33.0148C56.5881 33.0148 55.9707 33.6381 55.9707 34.5731C55.9707 35.5081 56.5881 36.1314 57.4703 36.1314C58.3524 36.1314 58.9699 35.5081 58.9699 34.5731C58.9699 33.5936 58.3524 33.0148 57.4703 33.0148Z" fill="black"/>
<path d="M61.0879 36.9331V32.1691H62.1464L63.7784 34.7069L65.4103 32.1691H66.4688V36.9331H65.4544V33.6829L64.0871 35.7755H63.4696L62.1464 33.6829V36.9331H61.0879Z" fill="black"/>
<path d="M72.2021 36.1766C72.2903 36.1766 72.4226 36.132 72.5108 36.132V36.8889C72.3344 36.978 72.0698 37.0225 71.8492 37.0225C71.4082 37.0225 71.0553 36.8444 70.8789 36.4437C70.3937 36.8444 69.8204 37.067 69.0706 37.067C68.1884 37.067 67.3945 36.5773 67.3945 35.5977C67.3945 34.3511 68.5413 33.9949 69.5116 33.9949C69.9086 33.9949 70.3937 34.0394 70.7466 34.1285V33.9504C70.7466 33.3716 70.3055 32.9263 69.5116 32.9263C68.8059 32.9263 68.2325 33.1044 67.7915 33.2825V32.303C68.1884 32.1694 68.85 31.9913 69.5998 31.9913C70.9671 31.9913 71.8051 32.6592 71.8051 34.0839V35.8204C71.8492 36.0875 71.9816 36.1766 72.2021 36.1766ZM68.4972 35.5532C68.4972 36.043 68.8941 36.2656 69.3793 36.2656C69.8645 36.2656 70.3937 36.0875 70.7466 35.6868V34.8854C70.4378 34.8408 70.0409 34.7518 69.7322 34.7518C69.1588 34.7518 68.4972 34.9299 68.4972 35.5532Z" fill="black"/>
<path d="M74.2315 36.9327V33.0591H72.5996V32.1241H76.922V33.0591H75.2901V36.9327H74.2315Z" fill="black"/>
<path d="M79.9214 32.0353C81.2446 32.0353 82.4796 32.9257 82.4796 34.5731C82.4796 36.2205 81.2446 37.111 79.9214 37.111C78.5983 37.111 77.3633 36.2205 77.3633 34.5731C77.3633 32.8812 78.5983 32.0353 79.9214 32.0353ZM79.9214 33.0148C79.0393 33.0148 78.4218 33.6381 78.4218 34.5731C78.4218 35.5081 79.0393 36.1314 79.9214 36.1314C80.8036 36.1314 81.421 35.5081 81.421 34.5731C81.421 33.5936 80.8036 33.0148 79.9214 33.0148Z" fill="black"/>
<path d="M83.5366 37.0217C83.3602 37.0217 83.1396 36.9772 82.875 36.8882V36.0422C82.9632 36.0867 83.0955 36.0867 83.1837 36.0867C83.9777 36.0867 84.1982 34.4839 84.2864 32.1241H87.9472V36.9327H86.8887V33.0591H85.3008C85.1685 35.3744 84.8157 37.0217 83.5366 37.0217Z" fill="black"/>
<path d="M91.566 32.0353C92.8891 32.0353 94.1241 32.9257 94.1241 34.5731C94.1241 36.2205 92.8891 37.111 91.566 37.111C90.2428 37.111 89.0078 36.2205 89.0078 34.5731C89.0078 32.8812 90.2428 32.0353 91.566 32.0353ZM91.566 33.0148C90.6838 33.0148 90.0664 33.6381 90.0664 34.5731C90.0664 35.5081 90.6838 36.1314 91.566 36.1314C92.4481 36.1314 93.0656 35.5081 93.0656 34.5731C93.0656 33.5936 92.4481 33.0148 91.566 33.0148Z" fill="black"/>
<path d="M95.1816 36.9332V32.1692H98.7101V33.1042H96.2402V36.9332H95.1816Z" fill="black"/>
<path d="M99.5488 36.9331V32.1691H100.607V35.2857L103.166 32.1691H104.092V36.9331H103.033V33.8164L100.475 36.9331H99.5488Z" fill="black"/>
<path d="M108.236 36.9327V35.3298C107.839 35.4634 107.442 35.5525 106.913 35.5525C105.854 35.5525 105.061 35.0182 105.061 33.816V32.1241H106.119V33.727C106.119 34.4394 106.56 34.6175 107.222 34.6175C107.619 34.6175 107.927 34.5729 108.236 34.4394V32.1241H109.295V36.9327H108.236Z" fill="black"/>
<path d="M112.736 32.0353C114.633 32.0353 115.295 33.5936 114.986 34.9738H111.413C111.546 35.8198 112.384 36.176 113.222 36.176C113.795 36.176 114.324 36.0424 114.721 35.8198V36.7548C114.28 36.9774 113.663 37.0664 113.001 37.0664C111.546 37.0664 110.311 36.2205 110.311 34.5286C110.355 32.7922 111.634 32.0353 112.736 32.0353ZM112.78 32.9258C112.075 32.9258 111.413 33.371 111.369 34.1724H114.015C114.104 33.7272 113.839 32.9258 112.78 32.9258Z" fill="black"/>
<path d="M118.383 32.0353C118.912 32.0353 119.441 32.1689 119.838 32.3915V33.371C119.485 33.1038 119 32.9703 118.515 32.9703C117.677 32.9703 116.839 33.4155 116.839 34.5286C116.839 35.5972 117.677 36.0869 118.515 36.0869C119 36.0869 119.529 35.9534 119.882 35.7307V36.7103C119.441 36.9329 118.912 37.0219 118.294 37.0219C117.015 37.0219 115.736 36.265 115.736 34.5286C115.736 32.7922 117.104 32.0353 118.383 32.0353Z" fill="black"/>
<path d="M120.938 36.9331V32.1691H121.996V34.0836H122.79L124.157 32.1691H125.348L123.628 34.5288L125.525 36.9331H124.29L122.746 34.9295H121.996V36.9331H120.938Z" fill="black"/>
<path d="M126.232 36.9331V32.1691H127.291V35.2857L129.849 32.1691H130.775V36.9331H129.673V33.8164L127.115 36.9331H126.232Z" fill="black"/>
<path d="M132.055 36.9331V32.1691H133.113V35.2858L135.671 32.1691H136.598V36.9331H135.539V33.8165L132.981 36.9331H132.055ZM134.348 31.5013C133.819 31.5013 133.334 31.4122 132.893 31.1006V30.2101C133.378 30.5217 133.863 30.6108 134.348 30.6108C134.833 30.6108 135.274 30.5217 135.804 30.2101V31.1006C135.319 31.3677 134.877 31.5013 134.348 31.5013Z" fill="black"/>
<path d="M144.362 38.2243V36.9331H140.26V32.1691H141.318V36.0426H143.568V32.1691H144.626V36.0426H145.332V38.2688H144.362V38.2243Z" fill="black"/>
<path d="M148.33 32.0353C150.227 32.0353 150.888 33.5936 150.58 34.9738H147.007C147.139 35.8198 147.977 36.176 148.815 36.176C149.389 36.176 149.918 36.0424 150.315 35.8198V36.7548C149.874 36.9774 149.256 37.0664 148.595 37.0664C147.139 37.0664 145.904 36.2205 145.904 34.5286C145.904 32.7922 147.227 32.0353 148.33 32.0353ZM148.374 32.9258C147.669 32.9258 147.007 33.371 146.963 34.1724H149.609C149.653 33.7272 149.389 32.9258 148.374 32.9258Z" fill="black"/>
<path d="M151.594 36.9332V32.1692H152.652V34.0837H155.034V32.1692H156.093V36.9332H155.034V35.0187H152.652V36.9332H151.594Z" fill="black"/>
<path d="M158.562 36.9327V33.0591H156.93V32.1241H161.252V33.0591H159.62V36.9327H158.562Z" fill="black"/>
<path d="M164.87 32.0353C166.282 32.0353 167.208 33.1929 167.208 34.5731C167.208 35.9534 166.282 37.111 164.87 37.111C164.032 37.111 163.503 36.7548 163.15 36.3541V39.1591H162.092V32.1689H163.018V32.9258C163.415 32.436 163.988 32.0353 164.87 32.0353ZM164.694 32.9703C163.944 32.9703 163.415 33.46 163.194 33.9498V35.1074C163.415 35.6417 163.988 36.1314 164.694 36.1314C165.576 36.1314 166.15 35.4636 166.15 34.5286C166.15 33.5936 165.532 32.9703 164.694 32.9703Z" fill="black"/>
</g>
<defs>
<linearGradient id="paint0_linear_2885_2617" x1="0.515026" y1="39.9474" x2="36.3992" y2="4.39972" gradientUnits="userSpaceOnUse">
<stop stop-color="#A97FBE"/>
<stop offset="0.4492" stop-color="#DD4B93"/>
<stop offset="0.8203" stop-color="#F1EB51"/>
</linearGradient>
<clipPath id="clip0_2885_2617">
<rect width="168" height="50" fill="white"/>
</clipPath>
</defs>
</svg>
